<svg xmlns="http://www.w3.org/2000/svg" width="208" height="134" viewBox="0 0 208 134">
    <g fill="#C6C6C6" fill-rule="evenodd">
        <path d="M206.385 132.043c-45.776-32.93-90.009-68.54-134.798-102.792-8.099-6.193-13.212-14.42-23.395-6.275-5.062 4.048-13.886 13.091-13.819 18.94.127 10.967 12.581 24.504 21.216 29.632 11.874 7.053 25.747 5.23 38.917 4.558 7.049-.36 14.139-1.438 20.975.877 9.703 3.286 19.446 10.583 27.999 16.14a1813.98 1813.98 0 0 0 31.402 19.957 1131.771 1131.771 0 0 1 16.923 10.72c3.074 1.983 12.811 6.08 14.554 8.22-.111-.137.209-.38.322-.24l.827 1.015c.058.071-.024.186-.082.225-3.749 2.486-28.826-17.18-32.813-19.653-18.325-11.365-36.258-25.282-55.834-34.45-17.426-8.162-38.056 2.463-56.063-3.66-13.35-4.539-28.071-19.694-29.158-34.478-.18-2.455-.776-2.263.217-4.534 1.862-4.264 10.843-9.235 14.119-13.329.274-.342 3.906-5.626 4.588-5.827 6.063-1.783 15.949 9.25 20.449 12.697 23.28 17.836 46.889 35.223 70.133 53.103 21.179 16.292 41.895 33.26 63.59 48.866.158.114-.133.386-.269.288M30.855.092c5.308 1.234 15.963 6.72 17.683 12.378 1.509 4.962-4.67 10.115-7.74 13.41-4.174 4.475-9.198 9.03-15.573 9.787-7.049.84-19.082-10.375-21.574 1.225-.027.128-.27.323-.354.138-5.469-12.066-1.073-16.316 6.213-26.667C14.81 2.833 21.5-.623 30.855.093c.206.015-.04.325-.2.312-12.57-.96-16.584 6.417-23.223 15.717-1.643 2.301-2.97 3.642-4.572 6.206C.758 25.69-.18 27.88 1.377 31.694c.425 1.043.746 3.027 1.892 2.978.522-.023 1.303-2.856 1.752-3.7a.272.272 0 0 1 .208-.13c4.192-.095 25.506 2.827 25.727 2.713C34.621 31.676 45.85 22.913 46.85 18.11 48.773 8.88 38.296 2.181 30.656.405c-.21-.048.039-.35.199-.313"/>
        <path d="M22.24 11.467c.161 1.27.878 2.276 2.176 2.538 1.803.363 3.522-.95 3.247-2.823-.47-3.201-5.433-3.074-5.422.322.001.164-.356.32-.357.102-.013-3.826 6.003-4.202 6.164-.264.155 3.795-5.684 4.037-6.16.3-.023-.166.328-.358.351-.175M.511 25.387c-.386 2.588-.16 4.838.745 7.288.446 1.212.924 2.915 1.791 3.919.034.862.111.968.232.317.187-.68.357-1.364.513-2.051.369-1.74.07-3.258 2.003-3.58 1.035-.171 2.492.16 3.447.147.431-.006 4.052-.012 4.193-.28.503-.956-2.18-3.31-2.844-4.132-1.425-1.767-2.612-3.563-3.443-5.678a11.122 11.122 0 0 0-.755-2.132c-1.33-.254-2.365.165-3.106 1.256C1.882 21.89 1.016 23.52.502 25.426c-.042.157-.398.26-.335.027.44-1.636 3.45-8.123 6.163-6.832.372.177.465.554.665.87.771 1.21.938 2.908 1.693 4.204 1.598 2.737 3.945 4.98 5.807 7.53.103.14-.154.28-.261.276-1.893-.084-3.755.247-5.64.233-1.458-.011-3.275-.707-4.102.98-.63 1.285-.586 3.305-1.038 4.719-.026.085-.258.263-.329.133C1.018 33.704-.505 29.938.159 25.492c.022-.154.384-.31.353-.105"/>
        <path d="M24.991 12.777c.823-.536.995-1.122.518-1.76-.403-.54-.791-.474-1.161.199-.731.238-.87.614-.419 1.128.288.339.654.481 1.097.427.146-.003-.121.27-.23.273-1.846.038-1.871-2.477-.172-2.723 1.929-.28 1.753 2.255.207 2.717-.196.059.062-.232.16-.261M11.434 27.472c-.395.683-1.302.776-2.015.842-.605.056-1.205-.004-1.808.025-2.635.13-2.745 1.773-3.03 3.91-.016.117-.345.28-.334.2.203-1.524.27-3.315 1.82-4.073 1.143-.56 4.413.328 5.076-.819.049-.084.393-.26.29-.085M49.081 13.357c-4.406 7.7-9.499 14.886-16.905 20.024-.07.05-.202.102-.246-.007.631 1.561-.982 4.86 2.895 3.172 2.832-1.23 7.236-5.983 9.082-7.934 2.187-2.313 4.987-5.239 6.536-8.093.806-1.486 2.111-8.507-1.525-7.04-.242.097-.117-.226.038-.289 2.295-.926 4.177 3.09 3.92 4.742-.352 2.26-4.95 6.437-6.59 8.404-3.76 4.507-8.557 7.868-12.855 11.82-.05.047-.175.136-.248.08-2.628-1.996-4.863-3.344-1.112-5.092.071-.032.166-.052.202.035-.17-.418 6.296-5.582 7.003-6.313 3.957-4.098 6.718-8.662 9.518-13.555.087-.15.418-.182.287.046"/>
    </g>
</svg>
