<svg xmlns="http://www.w3.org/2000/svg" width="77" height="47" viewBox="0 0 77 47">
    <g fill="none" fill-rule="evenodd" stroke="#ACACAC" stroke-width=".5">
        <path d="M13.55 25.216a8.507 8.507 0 0 1 1.965-2.604c.282-.247.586-.462.895-.659l-.015.012.566-.419.59-.383.617-.342.637-.297c.433-.18.875-.336 1.327-.459a10.428 10.428 0 0 1 4.16-.244c.46.064.914.157 1.364.27.449.114.889.257 1.324.41l-.006-.704c.013-.234.04-.467.059-.7.03-.233.085-.462.126-.693.05-.229.127-.45.19-.677.15-.445.34-.874.56-1.288.114-.206.243-.403.363-.604l.41-.572.452-.539.49-.505.524-.469.555-.433c.382-.273.776-.527 1.186-.756a11.44 11.44 0 0 1 2.609-1.035l.688-.149.697-.103c.466-.048.935-.069 1.404-.057.469.02.936.07 1.398.153.46.09.914.213 1.357.366l.654.262.629.315.602.363.57.412.537.456.5.495c.147-.35.264-.714.369-1.078a4.63 4.63 0 0 1 .41-1.06c.36-.672.85-1.26 1.374-1.81.012-.016-.116.126-.063.065l-.002-.002-.004-.003-.008-.008-.017-.014-.033-.029-.066-.058-.133-.115-.266-.232-.554-.434c-.38-.278-.77-.538-1.173-.78a15.59 15.59 0 0 0-1.248-.656 17.63 17.63 0 0 0-1.308-.53c-1.78-.633-3.65-.969-5.516-1.24h-.001a11.67 11.67 0 0 0-2.511-2.765 10.927 10.927 0 0 0-3.243-1.797 12.367 12.367 0 0 0-3.638-.69c-1.24-.05-2.483.086-3.692.36a14.644 14.644 0 0 0-6.544 3.388c-1.843 1.663-3.227 3.865-3.812 6.311v.003c-1.418.024-2.84.193-4.205.58-1.363.386-2.674 1.003-3.776 1.9a8.479 8.479 0 0 0-2.51 3.384C.822 18.044.6 19.47.574 20.886c-.016 1.415.154 2.854.7 4.17a7.089 7.089 0 0 0 2.665 3.236c1.184.79 2.549 1.265 3.935 1.554.695.145 1.398.245 2.104.314.353.035.707.06 1.06.081.355.023.712.04 1.069-.166h.002l-.21.187c.056-.888.238-1.766.52-2.607a12.66 12.66 0 0 1 1.116-2.413l.015-.026z"/>
        <path d="M13.972 25.5a13.263 13.263 0 0 0-1.065 2.322c-.28.803-.488 1.634-.596 2.479l-.038.3-.172-.113-.002-.002c-.352-.22-.705-.23-1.06-.245a28.95 28.95 0 0 1-1.061-.08 19.658 19.658 0 0 1-2.104-.315c-1.386-.288-2.751-.765-3.935-1.553a7.089 7.089 0 0 1-2.665-3.238c-.546-1.314-.716-2.755-.7-4.168.026-1.416.249-2.843.79-4.157a8.467 8.467 0 0 1 2.51-3.385c1.102-.898 2.413-1.514 3.776-1.9 1.366-.388 2.787-.555 4.205-.58v-.002a11.925 11.925 0 0 1 1.299-3.53 12.734 12.734 0 0 1 2.342-2.968c1.84-1.745 4.174-2.942 6.64-3.528a13.728 13.728 0 0 1 3.78-.346c1.267.061 2.53.296 3.718.75a11.12 11.12 0 0 1 3.26 1.917 11.643 11.643 0 0 1 2.4 2.897h.002c1.87.242 3.747.548 5.545 1.154.448.153.89.326 1.325.514.432.195.857.407 1.27.64.412.239.81.495 1.199.77l.567.432.273.229.137.114.068.059.034.028.017.014.009.008.003.004h.003c.055-.059-.073.083-.06.07-.522.55-1.013 1.139-1.372 1.81a4.648 4.648 0 0 0-.411 1.06 9.579 9.579 0 0 1-.37 1.078l-.5-.495-.535-.456-.571-.411-.602-.364-.63-.315-.653-.262a10.06 10.06 0 0 0-1.357-.366 10.095 10.095 0 0 0-1.398-.151c-.47-.013-.938.008-1.404.056l-.697.101-.688.15a11.44 11.44 0 0 0-2.609 1.035c-.41.23-.804.482-1.186.755l-.555.434-.524.47-.49.505-.452.539-.41.572c-.12.2-.25.397-.362.603-.221.415-.41.843-.561 1.288-.063.226-.14.448-.19.677-.041.232-.095.46-.125.692-.02.235-.047.468-.06.701l.006.704a15.944 15.944 0 0 0-1.338-.35 12.902 12.902 0 0 0-1.364-.206 11.26 11.26 0 0 0-2.74.073c-.451.07-.896.174-1.334.302-.436.131-.86.296-1.276.482l-.608.306-.587.348-.561.386-.535.42-.01.008-.006.003a6.579 6.579 0 0 0-1.54 1.42c-.221.271-.422.56-.606.858a8.495 8.495 0 0 0-.493.93l-.003.008-.007.011z"/>
        <path d="M74.328 22.392a10.628 10.628 0 0 0-.914-1.288 10.127 10.127 0 0 0-1.1-1.132l-.007-.007-.005-.007c-1.045-1.097-2.484-1.785-3.97-2.166-.376-.086-.76-.189-1.136-.252a13.817 13.817 0 0 0-1.152-.162 14.78 14.78 0 0 0-2.334-.023h-.002c.007-.047.055-.072.09-.098.039-.025.08-.046.122-.066h.002c.02-.615.01-1.228-.064-1.832a9.531 9.531 0 0 0-.411-1.767 7.45 7.45 0 0 0-.786-1.618 7.553 7.553 0 0 0-1.114-1.404 9.193 9.193 0 0 0-1.395-1.13c-.243-.149-.518-.32-.777-.469-.27-.13-.524-.278-.802-.394a11.637 11.637 0 0 0-1.703-.603 8.949 8.949 0 0 0-.881-.21c-.295-.066-.594-.11-.894-.152a13.482 13.482 0 0 0-1.808-.136 14.66 14.66 0 0 0-1.813.103l-.896.146c-.294.072-.594.126-.884.214-.58.171-1.157.367-1.698.64a8.57 8.57 0 0 0-1.556.935c-.486.364-.93.783-1.32 1.25a6.213 6.213 0 0 0-.945 1.55c-.241.556-.346 1.178-.64 1.723l-.001.002-.53-.463-.553-.428-.583-.38-.61-.333-.628-.29-.648-.239a9.63 9.63 0 0 0-1.337-.32 12.287 12.287 0 0 0-1.365-.12c-.457-.008-.913.017-1.368.068l-.677.106-.668.152c-.44.125-.875.265-1.3.438-.416.163-.856.367-1.244.573-.401.218-.79.463-1.164.726l-.545.417-.516.453c-.327.32-.642.652-.94 1l-.415.547c-.123.193-.255.382-.372.58a8.79 8.79 0 0 0-.587 1.244c-.071.22-.156.435-.218.657-.051.225-.114.45-.156.678-.03.23-.068.46-.092.692l-.037.702v.002a15.875 15.875 0 0 0-1.337-.359 12.624 12.624 0 0 0-1.363-.216 10.782 10.782 0 0 0-2.746.065c-.453.072-.9.17-1.34.297-.437.13-.866.292-1.284.477l-.613.304-.591.344-.566.385-.54.42-.008.006-.003.002c-.6.386-1.114.871-1.563 1.421a8.292 8.292 0 0 0-1.13 1.792l-.003.006-.004.007c-.704 1.208-1.225 2.528-1.487 3.897a8.755 8.755 0 0 0-.162 2.072c.009.346.056.69.117 1.03.066.336.143.691.245 1.013.1.328.217.66.36.973.136.32.298.628.477.925.355.596.782 1.15 1.266 1.65.97 1.001 2.167 1.766 3.444 2.331l.007.002.004.003a10.334 10.334 0 0 0 5.237 1.178h.01a14.902 14.902 0 0 0 3.972-.344c.434-.096.866-.207 1.29-.343a13.347 13.347 0 0 0 2.455-1.049 11.83 11.83 0 0 0 1.134-.712c.365-.257.71-.54 1.046-.839l.002-.002c.156.177.285.376.41.574l.002.002c.75 1.747 2.02 3.22 3.514 4.355 1.5 1.141 3.229 1.946 5.015 2.531.897.286 1.81.517 2.737.688.465.093.923.15 1.4.232.462.08.928.133 1.397.173.487.044.938.112 1.41.133a14.846 14.846 0 0 0 4.189-.356l.006-.002h.006c2.188-.34 4.364-.942 6.297-2.03.962-.548 1.856-1.222 2.593-2.049a7.027 7.027 0 0 0 1.57-2.894l.002-.006.01-.032.03.003c1.23.164 2.483.195 3.704.032a10.457 10.457 0 0 0 3.503-1.082 8.638 8.638 0 0 0 2.796-2.324c.196-.235.36-.492.534-.743.164-.256.314-.522.452-.793.276-.544.496-1.114.677-1.697l.003-.009.003-.008c.149-.37.243-.76.286-1.16v-.008l.002-.008c.53-2.85-.01-5.9-1.527-8.367z"/>
        <path d="M74.71 22.155c1.569 2.576 2.11 5.729 1.552 8.68l.002-.014a4.77 4.77 0 0 1-.318 1.267l.006-.016c-.187.604-.43 1.193-.725 1.754a9.236 9.236 0 0 1-.486.819c-.183.258-.36.522-.567.762a8.938 8.938 0 0 1-2.938 2.362c-1.127.575-2.37.886-3.615 1.01-1.251.129-2.505.057-3.735-.145l.042-.028-.002.006a7.157 7.157 0 0 1-1.511 2.99c-.723.873-1.627 1.579-2.6 2.15-1.952 1.143-4.153 1.792-6.374 2.135l.013-.003a15.138 15.138 0 0 1-4.281.38c-.476-.02-.965-.086-1.421-.13a16.37 16.37 0 0 1-1.424-.188c-.455-.083-.938-.147-1.403-.244a22.8 22.8 0 0 1-2.77-.721c-1.81-.598-3.546-1.467-5.046-2.654-1.502-1.176-2.723-2.732-3.413-4.504v.002a4.455 4.455 0 0 0-.388-.587l-.003.002a11.625 11.625 0 0 1-2.144 1.613c-.773.456-1.596.83-2.445 1.125-.85.295-1.73.506-2.621.636-.894.129-1.792.19-2.696.154h.009a11.016 11.016 0 0 1-2.77-.206 9.918 9.918 0 0 1-2.621-.94l.01.006c-1.311-.572-2.548-1.353-3.558-2.384a9.262 9.262 0 0 1-1.322-1.706 7.592 7.592 0 0 1-.5-.96 8.139 8.139 0 0 1-.382-1.014 9.871 9.871 0 0 1-.26-1.047 7.161 7.161 0 0 1-.116-1.081 9.119 9.119 0 0 1 .179-2.151c.28-1.412.822-2.76 1.55-3.994l-.007.013a8.665 8.665 0 0 1 1.182-1.852A6.882 6.882 0 0 1 16.442 22l-.011.008.56-.42.587-.384.612-.343.632-.3c.43-.182.87-.34 1.32-.465.45-.12.907-.217 1.369-.274a10.959 10.959 0 0 1 2.78.018c.459.06.913.15 1.363.259.449.112.89.252 1.327.402v-.003l-.05-.705c0-.236.018-.472.027-.71.02-.235.064-.47.094-.706.042-.234.109-.464.162-.697.14-.458.322-.901.536-1.332.11-.212.235-.417.353-.626l.403-.598.449-.565.497-.521.532-.486.564-.45c.389-.282.79-.546 1.209-.784.438-.24.843-.444 1.3-.623.449-.174.91-.312 1.375-.436l.707-.147.715-.098c.48-.046.96-.063 1.442-.045.482.019.959.086 1.43.185.47.104.929.243 1.378.41l.658.287.63.339.594.396.558.443.52.482.47.527v-.002c.102-.291.2-.58.279-.876.075-.296.144-.601.264-.886.222-.58.545-1.117.924-1.608a8.052 8.052 0 0 1 1.314-1.315 8.835 8.835 0 0 1 1.568-1.001c.549-.293 1.135-.511 1.726-.703.295-.097.6-.161.9-.243.305-.063.61-.121.917-.172a14.672 14.672 0 0 1 1.86-.143c.622-.004 1.246.023 1.864.103.31.034.619.08.923.148.308.053.61.127.91.212.606.156 1.195.37 1.77.618.289.118.567.277.852.415.272.158.523.304.796.484.519.355 1 .764 1.439 1.213a7.612 7.612 0 0 1 1.878 3.223c.358 1.2.393 2.47.204 3.684l-.002.002a1.03 1.03 0 0 0-.122.066c-.035.025-.084.05-.09.097h.003a12.573 12.573 0 0 1 3.52-.043c.398.052.773.137 1.163.21a9.79 9.79 0 0 1 2.254.758 7.054 7.054 0 0 1 1.947 1.399l-.014-.013c.417.357.805.746 1.16 1.164.356.415.682.864.97 1.325z"/>
    </g>
</svg>
