<svg xmlns="http://www.w3.org/2000/svg" width="210" height="121" viewBox="0 0 210 121">
    <g fill="none" fill-rule="evenodd" stroke="#ACACAC" stroke-width=".5">
        <path d="M133.223 37.99a10.236 10.236 0 0 1 2.383-3.156c.34-.301.708-.563 1.083-.8l-.019.013.687-.507.716-.465.747-.413.773-.36a13.492 13.492 0 0 1 1.608-.558 13.007 13.007 0 0 1 1.667-.326 12.64 12.64 0 0 1 3.376.03c.557.078 1.109.191 1.653.327.544.14 1.078.313 1.606.498l-.008-.853c.015-.283.05-.567.073-.85.036-.281.102-.559.151-.839.063-.277.154-.547.23-.821.184-.539.413-1.06.68-1.562.139-.248.294-.487.44-.731l.497-.693.547-.654.595-.612.635-.569.672-.526c.464-.33.942-.638 1.439-.916.5-.27 1.012-.517 1.543-.725.528-.209 1.071-.38 1.62-.529l.834-.181.844-.124a13.132 13.132 0 0 1 1.702-.068c.569.022 1.135.083 1.695.184.559.108 1.108.258 1.646.443l.791.319.763.38.73.442.692.5.65.551.607.601c.178-.426.319-.865.447-1.307.115-.446.277-.88.498-1.286.434-.814 1.03-1.528 1.664-2.194.015-.018-.14.153-.076.08l-.002-.003-.005-.004-.01-.01-.02-.016-.04-.036-.08-.07-.162-.139-.322-.28-.672-.527a18.564 18.564 0 0 0-1.422-.947c-.492-.288-.997-.55-1.513-.794-.52-.236-1.05-.451-1.586-.645-2.156-.765-4.422-1.173-6.687-1.501a14.133 14.133 0 0 0-3.044-3.352 13.243 13.243 0 0 0-3.931-2.178 14.981 14.981 0 0 0-4.411-.836c-1.503-.062-3.01.103-4.476.435a17.784 17.784 0 0 0-7.933 4.107c-2.233 2.016-3.911 4.686-4.62 7.652l-.001.002c-1.719.03-3.442.235-5.098.704-1.652.468-3.241 1.216-4.577 2.304a10.263 10.263 0 0 0-3.041 4.1c-.658 1.595-.928 3.324-.959 5.041-.02 1.716.186 3.46.848 5.054a8.586 8.586 0 0 0 3.232 3.923c1.434.958 3.089 1.534 4.77 1.885.841.175 1.694.297 2.55.38.428.042.857.073 1.287.099.428.027.86.047 1.294-.2l.002-.002-.254.227c.067-1.077.289-2.14.631-3.16.34-1.023.806-2 1.352-2.925l.019-.032z"/>
        <path d="M133.734 38.333a16.08 16.08 0 0 0-1.291 2.814c-.34.975-.592 1.98-.723 3.005l-.046.363-.21-.135v-.002c-.428-.268-.855-.28-1.286-.297a35.2 35.2 0 0 1-1.286-.098 23.864 23.864 0 0 1-2.55-.38c-1.68-.352-3.336-.928-4.77-1.885a8.594 8.594 0 0 1-3.232-3.923c-.662-1.595-.867-3.34-.848-5.055.032-1.717.301-3.447.959-5.04a10.27 10.27 0 0 1 3.041-4.101c1.336-1.088 2.926-1.836 4.577-2.304 1.657-.47 3.38-.673 5.098-.703l.001-.004a14.454 14.454 0 0 1 1.574-4.278 15.467 15.467 0 0 1 2.839-3.598c2.232-2.114 5.06-3.567 8.05-4.277a16.708 16.708 0 0 1 4.582-.42c1.536.074 3.068.36 4.507.908a13.514 13.514 0 0 1 3.952 2.326 14.128 14.128 0 0 1 2.911 3.511c2.27.294 4.543.664 6.723 1.4a21.7 21.7 0 0 1 1.607.622 19.24 19.24 0 0 1 1.54.777c.497.288.982.6 1.452.934l.688.522.33.278.166.14.082.07.042.034.02.018.011.008.004.004.003.002c.067-.072-.087.102-.07.084-.635.666-1.23 1.38-1.665 2.194-.22.405-.383.84-.498 1.285-.128.443-.269.881-.447 1.307l-.607-.6-.65-.552-.692-.499-.73-.441-.763-.381-.791-.318a12.076 12.076 0 0 0-1.646-.444c-.56-.1-1.126-.162-1.694-.184-.569-.016-1.138.01-1.703.068l-.844.123-.834.182c-.55.15-1.092.32-1.62.53a13.9 13.9 0 0 0-1.543.725c-.498.277-.975.585-1.439.916l-.673.525-.634.57-.594.612-.548.652-.497.694c-.145.244-.302.483-.44.731a10.567 10.567 0 0 0-.68 1.562c-.075.274-.167.544-.23.821-.05.28-.115.558-.152.84-.022.282-.057.565-.072.849l.008.853c-.536-.16-1.076-.31-1.623-.424a15.745 15.745 0 0 0-1.653-.249c-1.109-.1-2.227-.08-3.322.087a12.78 12.78 0 0 0-1.616.366c-.529.16-1.044.359-1.547.585l-.738.37-.711.422-.68.468-.649.51-.012.009-.007.005a7.996 7.996 0 0 0-1.868 1.72 10.003 10.003 0 0 0-1.33 2.169l-.005.01-.008.012z"/>
        <path d="M206.9 34.565c-.333-.551-.7-1.068-1.108-1.56-.407-.491-.852-.951-1.331-1.374l-.01-.008-.007-.008c-1.267-1.33-3.01-2.164-4.813-2.626-.455-.104-.92-.23-1.376-.306-.462-.08-.927-.153-1.396-.196a18.028 18.028 0 0 0-2.83-.028h-.003c.008-.058.066-.087.11-.119.047-.03.097-.055.147-.08h.002c.024-.746.013-1.488-.077-2.22a11.47 11.47 0 0 0-.499-2.143 9.07 9.07 0 0 0-.952-1.961 9.149 9.149 0 0 0-1.351-1.702 11.089 11.089 0 0 0-1.69-1.369c-.295-.181-.628-.39-.943-.57-.325-.156-.634-.337-.973-.477a14.277 14.277 0 0 0-2.064-.732c-.352-.1-.707-.189-1.067-.253-.358-.08-.72-.134-1.084-.184a16.238 16.238 0 0 0-2.192-.165c-.734-.01-1.468.042-2.197.125l-1.087.176c-.356.088-.72.154-1.07.26-.704.207-1.403.445-2.06.774-.666.3-1.299.7-1.886 1.135a9.526 9.526 0 0 0-1.6 1.514 7.556 7.556 0 0 0-1.146 1.88c-.292.674-.419 1.428-.776 2.089l-.001.002-.642-.561-.671-.52-.707-.46-.74-.403-.76-.352-.785-.289a11.716 11.716 0 0 0-1.621-.388 15.071 15.071 0 0 0-1.656-.146 12.86 12.86 0 0 0-1.657.082l-.82.129-.812.184c-.533.152-1.06.321-1.573.531a14.67 14.67 0 0 0-1.51.695c-.485.265-.956.562-1.412.88l-.66.506-.625.549c-.398.387-.778.79-1.139 1.213l-.504.662c-.15.234-.308.462-.45.702-.277.483-.515.987-.712 1.51-.086.264-.19.526-.265.796-.061.273-.138.544-.188.821-.036.279-.082.558-.112.84l-.046.85v.003a19.277 19.277 0 0 0-1.62-.435 15.34 15.34 0 0 0-1.653-.262 13.03 13.03 0 0 0-3.33.079c-.547.087-1.09.205-1.622.36a13.1 13.1 0 0 0-1.557.577l-.743.37-.716.418-.687.465-.655.51-.009.006-.005.004a8.16 8.16 0 0 0-1.894 1.721 10.087 10.087 0 0 0-1.37 2.173l-.003.008-.005.007c-.853 1.465-1.485 3.065-1.803 4.725-.16.83-.236 1.674-.196 2.512.011.42.068.836.142 1.247.08.409.174.84.297 1.23.122.398.262.798.437 1.18.164.386.36.76.578 1.12.43.723.947 1.394 1.534 2 1.177 1.214 2.627 2.142 4.176 2.826l.008.003.005.004c1.935 1.03 4.148 1.513 6.348 1.427h.011c1.073.06 2.16.003 3.225-.134a18.279 18.279 0 0 0 1.592-.282 17.52 17.52 0 0 0 1.563-.417 16.24 16.24 0 0 0 2.977-1.271 14.2 14.2 0 0 0 1.374-.863 14.33 14.33 0 0 0 1.267-1.017l.004-.003c.188.215.344.455.497.697l.002.002c.909 2.117 2.448 3.902 4.26 5.279 1.818 1.383 3.915 2.359 6.08 3.067 1.087.347 2.195.628 3.317.835.563.113 1.119.18 1.698.281.559.095 1.125.162 1.693.21.59.054 1.136.136 1.709.161a18.077 18.077 0 0 0 5.078-.431l.006-.002.009-.001c2.652-.413 5.29-1.14 7.634-2.461 1.164-.664 2.25-1.48 3.142-2.483.89-1 1.566-2.202 1.904-3.509l.002-.007.011-.04.04.005c1.49.198 3.007.237 4.488.038 1.483-.191 2.932-.623 4.246-1.312a10.458 10.458 0 0 0 3.39-2.816c.237-.285.437-.596.647-.9.2-.311.38-.634.548-.963.334-.659.601-1.35.822-2.057l.003-.01.004-.01c.18-.45.294-.922.346-1.406v-.01l.003-.01c.641-3.456-.012-7.152-1.852-10.143z"/>
        <path d="M207.364 34.277c1.901 3.124 2.557 6.946 1.88 10.524l.003-.018a5.777 5.777 0 0 1-.385 1.536l.006-.02c-.227.734-.52 1.447-.88 2.127-.18.34-.373.672-.587.993-.222.313-.437.633-.687.924a10.84 10.84 0 0 1-3.562 2.862c-1.367.698-2.873 1.075-4.383 1.227-1.516.154-3.036.067-4.528-.177l.051-.035-.002.007c-.301 1.331-.951 2.577-1.831 3.627-.876 1.056-1.974 1.913-3.15 2.605-2.369 1.385-5.038 2.172-7.729 2.589l.015-.004a18.433 18.433 0 0 1-5.19.46c-.576-.023-1.169-.104-1.722-.158a19.849 19.849 0 0 1-1.726-.229c-.552-.1-1.137-.177-1.701-.294a27.69 27.69 0 0 1-3.356-.875c-2.197-.725-4.3-1.778-6.118-3.216-1.822-1.427-3.301-3.312-4.138-5.46v.001a5.413 5.413 0 0 0-.472-.712l-.003.003a14.042 14.042 0 0 1-2.598 1.956 16.347 16.347 0 0 1-2.964 1.363 17.26 17.26 0 0 1-3.177.772c-1.084.157-2.174.231-3.269.186h.011a13.385 13.385 0 0 1-3.358-.25 12.035 12.035 0 0 1-3.177-1.138l.013.006c-1.59-.693-3.09-1.64-4.314-2.89a11.21 11.21 0 0 1-1.604-2.068 9.237 9.237 0 0 1-.606-1.162 9.863 9.863 0 0 1-.463-1.231 12.112 12.112 0 0 1-.313-1.268 8.8 8.8 0 0 1-.142-1.31c-.036-.878.048-1.754.217-2.61.339-1.71.996-3.345 1.878-4.84l-.007.015a10.47 10.47 0 0 1 1.433-2.244 8.377 8.377 0 0 1 1.998-1.76l-.013.01.68-.51.711-.465.74-.416.768-.364a13.29 13.29 0 0 1 1.6-.563c.545-.145 1.1-.263 1.66-.332a13.271 13.271 0 0 1 3.368.022 15.75 15.75 0 0 1 1.654.314 19.17 19.17 0 0 1 1.608.486v-.003l-.06-.855c0-.285.022-.571.031-.86.026-.285.079-.57.116-.856.05-.284.13-.563.196-.845.17-.555.39-1.093.65-1.614.133-.257.285-.506.427-.76l.49-.724.543-.685.603-.632.646-.589.683-.544c.472-.344.957-.662 1.465-.953.531-.289 1.022-.538 1.577-.755a15.571 15.571 0 0 1 1.666-.527l.856-.179.868-.119a13.42 13.42 0 0 1 1.748-.055c.584.025 1.163.105 1.734.225.569.126 1.126.294 1.67.498l.797.347.765.411.72.48.676.536.63.586.57.639v-.003c.124-.353.244-.704.338-1.062.09-.358.175-.728.32-1.075a7.74 7.74 0 0 1 1.12-1.949 9.814 9.814 0 0 1 1.593-1.594c.597-.464 1.219-.883 1.901-1.213.666-.356 1.375-.62 2.092-.852.358-.119.728-.196 1.092-.295.368-.076.74-.146 1.112-.209.747-.101 1.5-.168 2.255-.174.754-.005 1.51.028 2.26.125.375.042.748.098 1.118.18.373.065.74.155 1.104.257.733.19 1.446.45 2.144.75.35.143.688.336 1.032.502.33.191.634.369.967.587.628.43 1.212.927 1.744 1.471 1.061 1.093 1.868 2.446 2.276 3.907.434 1.456.476 2.996.248 4.466l-.003.002c-.05.023-.1.05-.147.08-.044.03-.102.06-.11.118h.003c.936-.146 1.89-.2 2.843-.17.476.017.954.05 1.426.118.482.063.936.167 1.408.256.94.196 1.861.496 2.732.918a8.54 8.54 0 0 1 2.361 1.696l-.017-.017c.505.433.976.905 1.407 1.411.431.504.826 1.047 1.175 1.606zM16.927 31.188a10.317 10.317 0 0 1 2.383-3.156c.34-.3.71-.56 1.084-.8l-.019.015.686-.508.717-.465.747-.413.772-.36a13.35 13.35 0 0 1 1.61-.557 12.876 12.876 0 0 1 1.666-.327 12.64 12.64 0 0 1 3.376.03c.557.078 1.108.191 1.653.328.544.138 1.077.312 1.605.497h.001l-.008-.853c.015-.284.05-.567.072-.85.037-.281.102-.559.153-.839.062-.277.153-.547.23-.821.183-.539.412-1.06.68-1.561.137-.25.293-.488.439-.733l.497-.692.547-.653.595-.613.634-.569.673-.525c.464-.33.941-.64 1.439-.916.5-.27 1.012-.518 1.542-.725.529-.21 1.072-.38 1.62-.53l.835-.181.843-.124a13.132 13.132 0 0 1 1.703-.068c.569.022 1.135.084 1.695.184a12.19 12.19 0 0 1 1.646.444l.791.317.763.382.73.441.692.499.65.552.607.601c.178-.426.319-.865.447-1.307.115-.446.277-.88.498-1.286.434-.814 1.03-1.528 1.664-2.194.016-.018-.14.153-.075.08l-.003-.003-.005-.004-.01-.008-.02-.018-.04-.035-.08-.07-.162-.14-.322-.28-.672-.527a18.565 18.565 0 0 0-1.422-.947c-.492-.287-.997-.55-1.513-.794-.52-.235-1.05-.45-1.586-.645-2.156-.766-4.423-1.172-6.687-1.501v-.001a14.13 14.13 0 0 0-3.044-3.35 13.263 13.263 0 0 0-3.932-2.18 15.007 15.007 0 0 0-4.41-.836c-1.503-.06-3.01.104-4.476.437a17.783 17.783 0 0 0-7.933 4.106c-2.233 2.016-3.912 4.687-4.62 7.652l-.001.003c-1.719.03-3.442.234-5.098.703-1.652.468-3.241 1.216-4.577 2.304A10.267 10.267 0 0 0 2.156 20.9c-.658 1.594-.928 3.323-.959 5.04-.02 1.716.186 3.46.848 5.054a8.588 8.588 0 0 0 3.231 3.924c1.435.956 3.09 1.534 4.77 1.884.842.175 1.695.298 2.551.38.428.042.857.074 1.286.099.429.028.862.048 1.294-.201l.003-.002-.254.228c.067-1.077.288-2.14.631-3.16.34-1.023.806-2 1.352-2.925l.018-.032z"/>
        <path d="M17.439 31.533c-.524.891-.95 1.839-1.291 2.813a14.895 14.895 0 0 0-.723 3.006l-.046.363-.21-.136-.001-.002c-.427-.268-.854-.28-1.285-.297a35.333 35.333 0 0 1-1.286-.098 23.866 23.866 0 0 1-2.55-.381c-1.68-.35-3.336-.927-4.77-1.885a8.59 8.59 0 0 1-3.232-3.923c-.662-1.594-.868-3.339-.848-5.054.031-1.717.301-3.446.958-5.04a10.28 10.28 0 0 1 3.042-4.101c1.336-1.088 2.926-1.835 4.577-2.304 1.657-.47 3.38-.673 5.098-.703l.001-.003a14.446 14.446 0 0 1 1.574-4.279 15.467 15.467 0 0 1 2.839-3.597c2.232-2.116 5.06-3.568 8.05-4.277a16.677 16.677 0 0 1 4.582-.422c1.535.076 3.068.361 4.507.91a13.52 13.52 0 0 1 3.952 2.326 14.1 14.1 0 0 1 2.911 3.51c2.269.294 4.543.664 6.723 1.4.544.185 1.079.393 1.606.622a19.24 19.24 0 0 1 1.54.778c.498.287.983.599 1.453.933l.688.522.33.278.166.14.082.07.042.035.02.016.011.009.004.004.003.003c.067-.072-.088.101-.07.084-.635.666-1.23 1.38-1.665 2.193-.22.405-.383.84-.498 1.285-.128.443-.269.882-.448 1.307l-.606-.6-.65-.552-.692-.5-.73-.44-.763-.381-.791-.319a12.073 12.073 0 0 0-1.646-.443 12.176 12.176 0 0 0-1.694-.184c-.569-.016-1.138.01-1.704.068l-.844.123-.833.182c-.55.15-1.092.32-1.62.53a14.11 14.11 0 0 0-1.543.724c-.498.278-.975.586-1.439.917l-.673.525-.634.57-.594.611-.548.654-.498.693c-.145.245-.3.483-.439.73a10.525 10.525 0 0 0-.679 1.563c-.076.274-.169.544-.23.821-.05.28-.116.558-.153.84-.022.282-.057.565-.072.849l.008.853a19.2 19.2 0 0 0-1.623-.424 15.344 15.344 0 0 0-1.653-.249 13.716 13.716 0 0 0-3.322.087 12.78 12.78 0 0 0-1.616.366c-.529.16-1.044.36-1.548.585l-.738.371-.71.421-.68.468-.649.51-.012.009-.007.005a7.997 7.997 0 0 0-1.868 1.72 9.84 9.84 0 0 0-.734 1.041c-.224.365-.416.732-.597 1.128l-.004.009-.008.014z"/>
        <path d="M90.605 27.764c-.333-.55-.7-1.068-1.108-1.56-.407-.491-.852-.951-1.331-1.374l-.01-.008-.008-.007c-1.266-1.331-3.01-2.165-4.812-2.627-.455-.104-.92-.228-1.377-.306a17.32 17.32 0 0 0-1.396-.195 17.933 17.933 0 0 0-2.83-.03h-.003c.01-.056.067-.086.11-.118.048-.03.097-.055.148-.08h.002c.024-.746.013-1.488-.078-2.221-.103-.73-.258-1.45-.498-2.141a9 9 0 0 0-.952-1.962 9.151 9.151 0 0 0-1.35-1.7 11.091 11.091 0 0 0-1.691-1.371c-.295-.181-.629-.39-.943-.57-.325-.156-.635-.337-.973-.477a14.277 14.277 0 0 0-2.064-.732c-.352-.1-.707-.188-1.067-.253-.358-.081-.72-.134-1.084-.185a16.366 16.366 0 0 0-2.192-.164c-.735-.01-1.467.042-2.197.125l-1.087.177c-.357.087-.72.153-1.071.259-.704.207-1.402.445-2.059.774-.667.3-1.299.7-1.886 1.135a9.499 9.499 0 0 0-1.6 1.515 7.537 7.537 0 0 0-1.146 1.88c-.293.673-.419 1.427-.776 2.088l-.001.003-.642-.562-.671-.519-.707-.462-.74-.401-.761-.352-.784-.29a11.716 11.716 0 0 0-1.622-.388 15.074 15.074 0 0 0-1.654-.146c-.555-.01-1.108.02-1.658.082l-.82.129-.812.184c-.533.152-1.06.32-1.573.531-.506.199-1.04.445-1.51.696-.485.264-.956.56-1.412.879l-.66.506-.625.549c-.398.387-.778.79-1.14 1.212l-.503.663c-.15.234-.309.463-.45.702-.276.483-.515.987-.712 1.51-.086.264-.19.526-.265.797-.061.272-.139.543-.188.821-.036.278-.083.558-.112.84l-.046.85v.002a19.276 19.276 0 0 0-1.62-.436 15.538 15.538 0 0 0-1.653-.261 13.03 13.03 0 0 0-3.33.079c-.548.087-1.09.205-1.622.36-.531.157-1.05.353-1.556.578l-.744.368-.716.418-.687.466-.655.51-.01.006-.004.004a8.126 8.126 0 0 0-1.894 1.722 10.093 10.093 0 0 0-1.37 2.172l-.003.007-.005.008c-.853 1.465-1.485 3.065-1.803 4.725-.16.83-.236 1.674-.196 2.513.01.419.068.835.142 1.246.08.409.174.84.297 1.23.122.398.263.798.437 1.18.164.386.36.76.578 1.12a10.77 10.77 0 0 0 1.534 2c1.177 1.214 2.627 2.142 4.176 2.826l.008.003.005.004c1.935 1.03 4.148 1.513 6.348 1.427h.011c1.073.061 2.16.003 3.225-.134a18.279 18.279 0 0 0 1.592-.282 17.785 17.785 0 0 0 1.563-.416 16.243 16.243 0 0 0 2.976-1.272 14.049 14.049 0 0 0 2.642-1.88l.004-.003c.188.215.344.456.497.697l.002.001c.909 2.119 2.448 3.903 4.26 5.28 1.818 1.383 3.915 2.359 6.08 3.068 1.086.347 2.195.627 3.317.834.563.113 1.118.18 1.698.281a19.63 19.63 0 0 0 1.693.21c.59.054 1.137.136 1.709.161a18.077 18.077 0 0 0 5.078-.431l.006-.002h.009c2.652-.414 5.29-1.142 7.634-2.463 1.164-.663 2.25-1.48 3.142-2.482.89-1 1.566-2.202 1.904-3.509l.002-.007.012-.04.038.006c1.49.197 3.008.236 4.49.037a12.66 12.66 0 0 0 4.245-1.311 10.46 10.46 0 0 0 3.39-2.817c.237-.284.438-.597.647-.9.2-.311.38-.634.548-.962.334-.66.601-1.351.822-2.058l.003-.01.004-.01c.18-.449.294-.922.346-1.406v-.01l.003-.01c.641-3.456-.012-7.152-1.852-10.143z"/>
        <path d="M91.069 27.477c1.9 3.122 2.557 6.945 1.88 10.523l.003-.018a5.775 5.775 0 0 1-.385 1.536l.006-.02c-.227.734-.52 1.447-.88 2.127-.18.34-.373.672-.587.993-.222.312-.437.633-.687.924a10.84 10.84 0 0 1-3.562 2.863c-1.367.698-2.873 1.074-4.383 1.226-1.516.155-3.036.068-4.528-.178l.05-.034-.001.008c-.301 1.33-.951 2.577-1.831 3.625-.876 1.058-1.974 1.914-3.151 2.606-2.368 1.386-5.036 2.172-7.728 2.588l.016-.003a18.45 18.45 0 0 1-5.19.461c-.577-.025-1.17-.105-1.723-.158a20.156 20.156 0 0 1-1.726-.23c-.552-.099-1.138-.177-1.702-.294a27.637 27.637 0 0 1-3.355-.875c-2.197-.725-4.3-1.778-6.118-3.216-1.822-1.427-3.301-3.312-4.138-5.46v.002a5.413 5.413 0 0 0-.472-.712l-.003.002a14.48 14.48 0 0 1-1.241 1.053 14.3 14.3 0 0 1-1.357.904 16.4 16.4 0 0 1-2.964 1.362c-1.03.359-2.097.614-3.177.772a17.733 17.733 0 0 1-3.269.187h.011a13.385 13.385 0 0 1-3.358-.25 12.037 12.037 0 0 1-3.177-1.14l.013.007c-1.59-.693-3.09-1.64-4.315-2.89a11.264 11.264 0 0 1-1.603-2.068 9.346 9.346 0 0 1-.606-1.162 9.863 9.863 0 0 1-.463-1.23 12.077 12.077 0 0 1-.313-1.27 8.777 8.777 0 0 1-.142-1.31 11.09 11.09 0 0 1 .217-2.608c.339-1.712.996-3.346 1.878-4.84l-.008.015c.38-.804.862-1.563 1.433-2.246a8.39 8.39 0 0 1 1.999-1.759l-.013.01.68-.51.71-.465.742-.415.767-.364a13.29 13.29 0 0 1 1.6-.563c.546-.146 1.099-.264 1.659-.333a13.2 13.2 0 0 1 3.37.022c.556.073 1.108.183 1.653.314.544.135 1.078.305 1.608.486v-.002l-.06-.855c0-.286.022-.572.031-.86.026-.286.079-.57.116-.856.05-.284.13-.563.196-.847.17-.553.39-1.091.65-1.613.133-.258.285-.506.427-.76l.489-.724.543-.685.604-.633.646-.588.683-.544c.471-.344.957-.663 1.465-.952.531-.29 1.022-.538 1.577-.756a15.575 15.575 0 0 1 1.666-.527l.856-.18.867-.118a13.284 13.284 0 0 1 1.749-.055c.584.025 1.163.106 1.734.225.568.126 1.126.295 1.67.499l.797.346.765.411.72.48.676.537.629.585.571.638.002-.002c.122-.353.242-.704.336-1.063.09-.357.175-.728.32-1.074a7.726 7.726 0 0 1 1.12-1.949 9.783 9.783 0 0 1 1.593-1.593c.597-.465 1.219-.883 1.901-1.214.666-.356 1.375-.62 2.092-.852.358-.119.728-.196 1.092-.295.368-.076.74-.147 1.112-.209.746-.1 1.5-.168 2.255-.174.753-.005 1.51.028 2.26.126.375.041.748.098 1.118.18.373.064.74.154 1.104.257.733.188 1.446.449 2.144.749.35.143.687.335 1.032.502.33.192.633.369.967.587.628.43 1.212.926 1.744 1.471 1.061 1.094 1.868 2.445 2.275 3.906.435 1.457.477 2.997.25 4.468h-.002l-.002.001c-.051.024-.1.05-.148.08-.042.03-.101.06-.109.119h.003c.936-.147 1.89-.2 2.843-.17.475.017.954.048 1.426.117.481.064.936.167 1.408.256.94.196 1.86.496 2.732.918a8.54 8.54 0 0 1 2.361 1.696l-.017-.017c.505.433.975.906 1.407 1.411.431.504.826 1.047 1.175 1.607zM77.455 95.116a10.31 10.31 0 0 1 2.383-3.156c.34-.3.709-.561 1.084-.799l-.02.014.687-.508.717-.464.747-.414.773-.36c.525-.218 1.06-.407 1.608-.557a13.007 13.007 0 0 1 1.666-.327 12.64 12.64 0 0 1 3.377.031 15.9 15.9 0 0 1 1.652.326c.545.14 1.078.313 1.606.498l-.006-.852c.015-.284.048-.567.071-.85.037-.282.102-.56.152-.84.062-.276.154-.547.23-.82.184-.54.413-1.06.68-1.562.138-.249.293-.487.44-.732l.497-.693.548-.654.593-.612.636-.568.672-.526c.463-.33.941-.639 1.438-.916.5-.27 1.013-.517 1.543-.724.529-.21 1.071-.38 1.62-.53l.834-.182.844-.124a13.143 13.143 0 0 1 1.703-.068c.57.023 1.135.084 1.696.184.557.109 1.106.258 1.644.444l.792.318.763.382.73.44.692.5.65.552.606.6c.178-.425.32-.865.448-1.307.115-.445.277-.88.497-1.285.435-.815 1.032-1.528 1.665-2.194.015-.018-.14.153-.076.079l-.003-.002-.005-.004-.01-.01-.02-.017-.04-.034-.08-.071-.162-.14-.321-.28-.672-.527a18.565 18.565 0 0 0-1.422-.946c-.492-.287-.997-.551-1.513-.794a21.24 21.24 0 0 0-1.586-.646c-2.156-.765-4.423-1.171-6.687-1.5l-.001-.002a14.133 14.133 0 0 0-3.043-3.35 13.26 13.26 0 0 0-3.932-2.179 15.002 15.002 0 0 0-4.41-.836c-1.503-.061-3.01.103-4.475.436a17.775 17.775 0 0 0-7.934 4.107c-2.233 2.015-3.912 4.686-4.62 7.651v.003c-1.72.03-3.443.234-5.099.703-1.653.469-3.242 1.217-4.577 2.305a10.277 10.277 0 0 0-3.042 4.1c-.657 1.595-.927 3.323-.957 5.04-.022 1.716.185 3.46.847 5.054a8.591 8.591 0 0 0 3.231 3.923c1.435.958 3.09 1.535 4.77 1.885.842.176 1.695.297 2.55.381.428.042.858.073 1.287.098.428.028.862.048 1.294-.2l.003-.002-.255.227c.068-1.077.29-2.14.633-3.16.34-1.022.804-1.999 1.35-2.924l.019-.033z"/>
        <path d="M77.967 95.46c-.525.893-.95 1.84-1.292 2.814a14.948 14.948 0 0 0-.722 3.006l-.046.363-.21-.136-.002-.002c-.426-.268-.853-.279-1.284-.297-.43-.025-.858-.057-1.286-.098a23.908 23.908 0 0 1-2.551-.38c-1.68-.352-3.335-.928-4.77-1.885a8.598 8.598 0 0 1-3.231-3.923c-.662-1.595-.868-3.34-.848-5.055.031-1.716.301-3.445.958-5.04a10.279 10.279 0 0 1 3.042-4.101c1.336-1.088 2.925-1.835 4.577-2.304 1.657-.47 3.38-.673 5.098-.702v-.004a14.476 14.476 0 0 1 1.575-4.279 15.49 15.49 0 0 1 2.839-3.597c2.232-2.115 5.06-3.567 8.05-4.277a16.702 16.702 0 0 1 4.581-.421c1.536.075 3.068.361 4.508.91a13.495 13.495 0 0 1 3.952 2.325 14.125 14.125 0 0 1 2.91 3.51h.001c2.27.295 4.543.665 6.722 1.4.544.186 1.08.394 1.607.622.524.237 1.038.495 1.54.778.498.288.982.599 1.453.933l.688.522.33.279.165.139.083.07.041.035.02.017.011.009.005.004.003.003c.067-.073-.088.1-.07.083-.635.666-1.23 1.38-1.665 2.194a5.64 5.64 0 0 0-.498 1.285c-.128.442-.27.88-.448 1.306l-.606-.6-.65-.551-.692-.5-.73-.44-.763-.382-.792-.318a12.035 12.035 0 0 0-1.645-.444c-.56-.1-1.126-.162-1.695-.184-.568-.016-1.137.01-1.703.068l-.843.124-.834.181c-.55.151-1.092.32-1.62.53-.53.208-1.043.455-1.543.725-.498.278-.976.585-1.439.916l-.673.525-.635.57-.593.612-.549.653-.496.694c-.146.244-.302.482-.44.73a10.603 10.603 0 0 0-.68 1.562c-.076.275-.167.545-.23.821-.05.28-.115.558-.152.84-.022.283-.057.565-.072.85l.007.852c-.536-.16-1.075-.31-1.622-.424-.547-.11-1.1-.198-1.653-.249-1.109-.1-2.227-.08-3.322.088-.546.085-1.086.21-1.616.365-.529.16-1.044.36-1.547.585l-.739.371-.71.421-.68.468-.649.51-.012.009-.008.005a7.98 7.98 0 0 0-1.867 1.72 9.91 9.91 0 0 0-1.33 2.17l-.005.008-.008.014z"/>
        <path d="M151.133 91.693a12.87 12.87 0 0 0-1.108-1.561c-.408-.491-.852-.95-1.332-1.373l-.009-.009-.008-.007c-1.267-1.331-3.01-2.165-4.812-2.627-.455-.104-.92-.228-1.376-.306a17.39 17.39 0 0 0-1.397-.196 18.028 18.028 0 0 0-2.83-.028h-.002c.008-.056.067-.086.109-.118.048-.03.097-.056.148-.08l.002-.001c.024-.745.012-1.487-.078-2.22-.103-.73-.258-1.45-.497-2.142a9.048 9.048 0 0 0-.952-1.961 9.188 9.188 0 0 0-1.352-1.701 11.053 11.053 0 0 0-1.69-1.37c-.296-.182-.629-.39-.943-.57-.325-.157-.635-.337-.973-.478a14.267 14.267 0 0 0-2.064-.731 10.89 10.89 0 0 0-1.068-.254c-.357-.08-.72-.134-1.083-.184a16.259 16.259 0 0 0-2.192-.165c-.735-.01-1.467.043-2.198.126l-1.086.175c-.357.088-.72.154-1.071.26-.704.207-1.403.445-2.06.774-.666.3-1.298.701-1.885 1.135a9.526 9.526 0 0 0-1.6 1.515 7.556 7.556 0 0 0-1.146 1.88c-.293.673-.42 1.428-.776 2.088l-.002.003-.641-.561-.67-.52-.708-.461-.74-.403-.76-.351-.786-.29a11.716 11.716 0 0 0-1.62-.388 15.04 15.04 0 0 0-1.656-.146c-.554-.01-1.107.02-1.658.083l-.82.128-.811.185c-.533.152-1.06.32-1.573.53a14.67 14.67 0 0 0-1.51.695c-.486.266-.956.562-1.412.88l-.66.506-.626.55c-.397.387-.778.79-1.138 1.212l-.505.663c-.149.233-.308.462-.45.702-.275.482-.514.986-.711 1.51-.087.264-.19.526-.265.796-.062.272-.138.544-.189.821-.036.278-.082.558-.112.84l-.045.85v.002a19.34 19.34 0 0 0-1.62-.435 15.355 15.355 0 0 0-1.653-.262 13.03 13.03 0 0 0-3.33.08 13.3 13.3 0 0 0-1.622.36 13.05 13.05 0 0 0-1.556.576l-.744.37-.717.418-.686.466-.655.509-.01.007-.003.003a8.134 8.134 0 0 0-1.895 1.722 10.06 10.06 0 0 0-1.37 2.172l-.004.008-.004.008c-.854 1.464-1.485 3.065-1.803 4.725-.16.829-.236 1.673-.196 2.512.01.42.069.836.141 1.247.08.408.175.84.298 1.229.121.398.262.798.437 1.18.164.387.36.76.578 1.12a10.83 10.83 0 0 0 1.534 2c1.176 1.214 2.626 2.142 4.175 2.826l.008.004.006.003c1.935 1.03 4.147 1.513 6.348 1.428h.012c1.072.06 2.16.003 3.224-.135a18.262 18.262 0 0 0 1.591-.282 17.45 17.45 0 0 0 1.564-.416 16.186 16.186 0 0 0 2.976-1.272 14.049 14.049 0 0 0 2.642-1.88l.004-.002c.189.215.344.456.497.696l.001.002c.91 2.118 2.449 3.903 4.26 5.28 1.819 1.383 3.915 2.358 6.08 3.067 1.087.346 2.195.627 3.318.835.564.112 1.118.18 1.698.28.558.096 1.124.162 1.692.21.59.054 1.137.137 1.71.162a18.068 18.068 0 0 0 5.078-.431l.007-.003h.008c2.652-.413 5.289-1.141 7.633-2.462 1.166-.664 2.25-1.48 3.142-2.482.891-1 1.567-2.203 1.905-3.51l.002-.006.012-.04.038.005c1.49.198 3.008.236 4.489.038 1.483-.192 2.932-.624 4.246-1.313a10.448 10.448 0 0 0 3.39-2.816c.237-.284.437-.596.647-.9.2-.311.38-.633.547-.962.334-.659.603-1.35.822-2.057l.003-.011.004-.01c.18-.449.294-.922.346-1.406l.002-.01.001-.01c.642-3.455-.011-7.152-1.851-10.142z"/>
        <path d="M151.597 91.405c1.9 3.123 2.557 6.946 1.88 10.524l.003-.018a5.8 5.8 0 0 1-.386 1.535l.007-.02c-.227.734-.52 1.447-.88 2.128-.18.34-.373.671-.587.993-.222.312-.437.632-.687.923a10.841 10.841 0 0 1-3.562 2.863c-1.367.698-2.874 1.075-4.383 1.226-1.517.155-3.037.068-4.528-.177l.05-.034v.007c-.303 1.33-.952 2.577-1.832 3.626-.877 1.057-1.974 1.913-3.152 2.605-2.368 1.386-5.036 2.173-7.727 2.589l.015-.004a18.368 18.368 0 0 1-5.19.461c-.576-.024-1.17-.104-1.722-.158a19.806 19.806 0 0 1-1.726-.228c-.552-.1-1.138-.178-1.701-.295a27.509 27.509 0 0 1-3.357-.876c-2.196-.724-4.3-1.778-6.118-3.216-1.821-1.426-3.301-3.311-4.137-5.46v.002a5.414 5.414 0 0 0-.472-.712l-.003.003a14.054 14.054 0 0 1-2.6 1.956 16.315 16.315 0 0 1-2.962 1.362c-1.03.359-2.097.615-3.178.773a17.724 17.724 0 0 1-3.268.186h.011a13.348 13.348 0 0 1-3.358-.25 12.013 12.013 0 0 1-3.178-1.139l.014.006c-1.59-.693-3.09-1.64-4.314-2.89a11.177 11.177 0 0 1-1.604-2.068 9.237 9.237 0 0 1-.606-1.162 10.029 10.029 0 0 1-.463-1.23 12.37 12.37 0 0 1-.313-1.269 8.8 8.8 0 0 1-.143-1.31c-.036-.878.049-1.753.218-2.608.339-1.712.996-3.347 1.878-4.842l-.008.016c.38-.804.86-1.563 1.433-2.245a8.356 8.356 0 0 1 1.999-1.76l-.013.01.68-.51.711-.465.74-.415.767-.363a13.17 13.17 0 0 1 1.6-.564c.546-.145 1.1-.264 1.66-.333 1.12-.14 2.255-.125 3.37.022a15.79 15.79 0 0 1 1.653.315c.544.135 1.078.304 1.608.486v-.003l-.062-.854c.002-.287.023-.573.033-.86.025-.287.078-.57.116-.857.05-.284.13-.563.195-.846.17-.554.39-1.092.65-1.614.133-.257.286-.506.428-.76l.489-.724.544-.684.603-.633.645-.589.684-.544c.471-.344.957-.662 1.465-.952a13.731 13.731 0 0 1 1.576-.755c.544-.21 1.103-.378 1.667-.527l.856-.18.867-.119a13.412 13.412 0 0 1 1.749-.054c.583.024 1.163.105 1.733.224.57.126 1.126.295 1.67.499l.797.347.766.41.72.48.676.537.63.585.57.64v-.004c.124-.352.243-.703.338-1.062.09-.358.174-.728.32-1.074a7.74 7.74 0 0 1 1.12-1.95 9.814 9.814 0 0 1 1.593-1.593c.597-.464 1.219-.883 1.901-1.214.665-.356 1.375-.62 2.092-.852.358-.119.727-.195 1.092-.295.368-.075.74-.146 1.111-.209.748-.1 1.5-.167 2.256-.173.753-.005 1.51.027 2.259.125.376.041.75.098 1.118.18.373.064.741.155 1.105.257.733.189 1.446.45 2.144.75.35.142.687.335 1.032.501.33.193.634.369.966.587.63.431 1.213.927 1.744 1.471 1.062 1.094 1.869 2.446 2.277 3.907.434 1.457.476 2.996.247 4.467l-.002.001c-.051.024-.1.05-.147.08-.044.03-.103.06-.11.119h.003c.936-.147 1.889-.2 2.842-.17.476.017.955.049 1.427.117.48.064.936.167 1.408.256.94.196 1.86.496 2.732.918.867.43 1.68.99 2.361 1.696l-.017-.016c.505.432.976.905 1.406 1.41.431.505.827 1.048 1.176 1.607z"/>
    </g>
</svg>
