<svg xmlns="http://www.w3.org/2000/svg" width="127" height="77" viewBox="0 0 127 77">
    <g fill="none" fill-rule="evenodd" stroke="#ACACAC" stroke-width=".5">
        <path d="M21.922 41.746a14.73 14.73 0 0 1 .867-1.53 13.967 13.967 0 0 1 2.398-2.796 11.81 11.81 0 0 1 1.486-1.095l-.025.019.94-.696.982-.636 1.023-.567 1.059-.494c.72-.3 1.454-.558 2.205-.763a17.271 17.271 0 0 1 6.911-.405c.764.106 1.519.26 2.265.447.746.19 1.476.429 2.2.682h.001l-.01-1.168c.02-.39.067-.777.098-1.165.051-.387.14-.767.208-1.151.086-.38.212-.75.316-1.125a14.4 14.4 0 0 1 .932-2.14c.188-.341.402-.668.602-1.002l.681-.95.751-.896.814-.84.87-.778.922-.721c.634-.452 1.29-.875 1.971-1.255.686-.37 1.388-.71 2.115-.994.724-.287 1.468-.52 2.22-.726l1.143-.247 1.156-.171a18.192 18.192 0 0 1 2.334-.093c.779.03 1.555.114 2.323.253.765.148 1.517.354 2.254.607l1.085.437 1.046.522 1 .604.949.684.891.757.83.823v-.001c.244-.582.438-1.184.613-1.79a7.751 7.751 0 0 1 .683-1.762c.595-1.115 1.412-2.094 2.281-3.006.021-.026-.193.209-.104.108l-.004-.003-.006-.006-.014-.012-.027-.024-.055-.048-.111-.095-.221-.193-.441-.384-.921-.721a24.965 24.965 0 0 0-1.949-1.297 25.885 25.885 0 0 0-2.074-1.09 29.666 29.666 0 0 0-2.173-.882c-2.955-1.05-6.061-1.607-9.164-2.058l-.001-.001a19.36 19.36 0 0 0-4.17-4.592 18.166 18.166 0 0 0-5.389-2.986 20.535 20.535 0 0 0-6.045-1.146c-2.059-.084-4.124.142-6.132.597a24.356 24.356 0 0 0-10.872 5.628c-3.061 2.763-5.362 6.422-6.333 10.487v.004c-2.356.04-4.718.32-6.987.964-2.264.64-4.442 1.666-6.273 3.157a14.088 14.088 0 0 0-4.169 5.62c-.9 2.185-1.27 4.554-1.312 6.908-.028 2.35.255 4.74 1.161 6.925a11.79 11.79 0 0 0 4.428 5.377c1.967 1.31 4.236 2.103 6.538 2.583a32.67 32.67 0 0 0 3.496.522c.586.057 1.174.099 1.762.134.588.038 1.181.065 1.774-.275l.003-.002-.348.31c.092-1.474.396-2.932.866-4.33.466-1.401 1.104-2.74 1.852-4.008l.025-.043z"/>
        <path d="M22.623 42.217a22.03 22.03 0 0 0-1.77 3.856 20.455 20.455 0 0 0-.99 4.12l-.063.496-.286-.185-.003-.003c-.585-.367-1.171-.383-1.761-.408a49.528 49.528 0 0 1-1.762-.133 32.926 32.926 0 0 1-3.496-.522c-2.302-.48-4.571-1.272-6.537-2.583a11.778 11.778 0 0 1-4.428-5.377C.62 39.293.337 36.902.365 34.551c.042-2.352.412-4.723 1.313-6.906a14.082 14.082 0 0 1 4.169-5.62c1.83-1.493 4.008-2.517 6.272-3.158 2.27-.644 4.63-.923 6.987-.964V17.9a19.819 19.819 0 0 1 2.158-5.864c1.034-1.827 2.364-3.485 3.89-4.93 3.059-2.899 6.936-4.888 11.032-5.862a22.907 22.907 0 0 1 6.28-.577c2.105.104 4.204.495 6.177 1.246A18.523 18.523 0 0 1 54.059 5.1c1.592 1.372 2.927 3.018 3.989 4.811 3.11.403 6.226.91 9.214 1.917.744.255 1.478.541 2.2.854.719.325 1.424.678 2.11 1.065a25.5 25.5 0 0 1 1.992 1.28l.943.715.453.381.227.191.114.096.055.048.028.023.015.012.007.006.004.004c.09-.099-.12.137-.098.114-.868.913-1.686 1.891-2.281 3.007a7.67 7.67 0 0 0-.682 1.76 16.161 16.161 0 0 1-.614 1.791v.001l-.83-.822-.891-.757-.95-.684-1-.605-1.045-.522-1.084-.436a16.5 16.5 0 0 0-2.255-.608 16.77 16.77 0 0 0-2.323-.253 18.02 18.02 0 0 0-2.334.094l-1.156.17-1.143.248c-.752.206-1.496.438-2.22.726-.727.284-1.43.624-2.114.994-.682.38-1.337.801-1.972 1.255l-.921.72-.871.78-.814.84-.751.894-.681.95c-.2.335-.413.662-.602 1.002a14.349 14.349 0 0 0-.931 2.141c-.105.375-.231.746-.316 1.125-.07.384-.158.764-.208 1.15-.032.388-.078.775-.1 1.164l.01 1.17a26.82 26.82 0 0 0-2.223-.582 21.49 21.49 0 0 0-2.265-.34 18.79 18.79 0 0 0-4.553.12c-.75.116-1.488.287-2.215.5-.724.22-1.431.492-2.12.801l-1.011.51-.974.576-.933.641-.89.7-.015.011-.011.008c-.986.644-1.824 1.44-2.558 2.356a13.49 13.49 0 0 0-1.007 1.427 14.31 14.31 0 0 0-.818 1.546l-.006.012-.011.02z"/>
        <path d="M122.894 37.053a17.624 17.624 0 0 0-1.518-2.139 16.896 16.896 0 0 0-1.825-1.882l-.013-.012-.011-.01c-1.735-1.823-4.125-2.967-6.594-3.6-.624-.142-1.263-.313-1.887-.418-.634-.11-1.27-.21-1.913-.268a24.614 24.614 0 0 0-3.88-.04h-.002c.01-.078.09-.119.15-.162a2.19 2.19 0 0 1 .202-.11h.003c.033-1.022.017-2.039-.107-3.044a15.625 15.625 0 0 0-.682-2.935c-.317-.95-.773-1.847-1.304-2.688-.53-.84-1.14-1.637-1.852-2.332a15.327 15.327 0 0 0-2.317-1.877c-.404-.248-.862-.534-1.292-.78-.446-.215-.87-.462-1.333-.654a19.559 19.559 0 0 0-2.83-1.003 14.731 14.731 0 0 0-1.462-.347 17.371 17.371 0 0 0-1.485-.253 22.335 22.335 0 0 0-3.004-.226 24.06 24.06 0 0 0-3.011.172l-1.49.241c-.488.12-.985.211-1.467.355-.964.284-1.922.611-2.822 1.062-.914.411-1.78.96-2.585 1.554a13.098 13.098 0 0 0-2.191 2.077c-.638.781-1.186 1.64-1.573 2.576-.4.923-.573 1.957-1.062 2.863l-.002.003-.88-.769-.92-.712-.968-.633-1.013-.55-1.044-.482-1.076-.397a16.057 16.057 0 0 0-2.221-.533 20.846 20.846 0 0 0-2.268-.199c-.76-.013-1.518.028-2.273.113l-1.124.176-1.111.253c-.73.207-1.453.44-2.156.728-.694.271-1.425.61-2.07.952-.665.363-1.31.77-1.933 1.205l-.906.694-.857.753a24.742 24.742 0 0 0-1.56 1.661l-.691.908c-.205.321-.423.634-.618.962a14.635 14.635 0 0 0-.975 2.07c-.118.362-.26.72-.362 1.091-.085.373-.19.745-.26 1.126-.05.381-.112.764-.152 1.15l-.063 1.165v.003a26.691 26.691 0 0 0-2.22-.596 21.287 21.287 0 0 0-2.266-.359 17.904 17.904 0 0 0-4.562.108 18.16 18.16 0 0 0-2.224.493 18.02 18.02 0 0 0-2.133.792l-1.018.506-.983.573-.94.638-.898.698-.013.01-.005.004c-.997.641-1.85 1.446-2.597 2.36a13.785 13.785 0 0 0-1.877 2.977l-.005.01-.006.011c-1.17 2.007-2.035 4.2-2.471 6.475a14.551 14.551 0 0 0-.27 3.443c.016.575.094 1.145.195 1.708.11.561.239 1.152.408 1.686.166.545.359 1.094.599 1.617.224.53.494 1.043.79 1.536a14.864 14.864 0 0 0 2.104 2.741c1.612 1.663 3.6 2.934 5.722 3.872l.012.004.007.005c2.652 1.412 5.684 2.074 8.7 1.956h.015c1.47.084 2.96.005 4.419-.184a24.753 24.753 0 0 0 2.18-.386 24.07 24.07 0 0 0 2.144-.57 22.28 22.28 0 0 0 4.079-1.743c.65-.355 1.275-.756 1.883-1.183.607-.427 1.18-.9 1.737-1.393l.005-.004c.259.294.473.624.682.954l.002.003c1.245 2.902 3.356 5.348 5.838 7.235 2.493 1.895 5.365 3.232 8.332 4.204 1.49.475 3.008.86 4.547 1.144.772.154 1.532.247 2.327.385.766.131 1.54.222 2.319.287.809.074 1.559.187 2.342.221a24.613 24.613 0 0 0 6.96-.591l.009-.003h.01c3.636-.566 7.25-1.564 10.464-3.375 1.596-.908 3.083-2.028 4.305-3.4 1.22-1.372 2.147-3.019 2.61-4.81l.003-.01.016-.054.053.006c2.042.272 4.122.324 6.15.053 2.034-.262 4.019-.855 5.82-1.798a14.335 14.335 0 0 0 4.646-3.86c.324-.39.599-.817.886-1.235.273-.425.522-.867.752-1.318.457-.903.825-1.85 1.125-2.819l.005-.015.005-.013a7.194 7.194 0 0 0 .474-1.927l.002-.012.003-.015c.879-4.735-.017-9.802-2.538-13.9z"/>
        <path d="M123.53 36.659c2.604 4.28 3.504 9.519 2.576 14.422l.004-.025a7.886 7.886 0 0 1-.529 2.105l.01-.026a17.057 17.057 0 0 1-1.206 2.914c-.246.466-.512.92-.806 1.36-.303.429-.598.868-.94 1.267a14.846 14.846 0 0 1-4.882 3.923c-1.874.956-3.938 1.473-6.006 1.68-2.078.213-4.16.093-6.205-.243l.068-.046-.002.009c-.413 1.824-1.304 3.533-2.51 4.97-1.2 1.448-2.704 2.622-4.318 3.57-3.245 1.9-6.902 2.977-10.59 3.548l.021-.005a25.166 25.166 0 0 1-7.113.632c-.79-.034-1.603-.143-2.36-.217a27.535 27.535 0 0 1-2.366-.313c-.756-.137-1.559-.244-2.33-.405a37.527 37.527 0 0 1-4.6-1.2c-3.01-.992-5.894-2.436-8.385-4.407-2.497-1.954-4.524-4.538-5.67-7.482v.003a7.336 7.336 0 0 0-.647-.976l-.004.004a20.38 20.38 0 0 1-1.702 1.442c-.596.445-1.215.864-1.86 1.238a22.379 22.379 0 0 1-4.06 1.868 23.665 23.665 0 0 1-4.356 1.057 24.313 24.313 0 0 1-4.478.256h.015a18.3 18.3 0 0 1-4.603-.343 16.497 16.497 0 0 1-4.355-1.56l.02.008c-2.18-.95-4.235-2.247-5.914-3.96a15.41 15.41 0 0 1-2.197-2.834 12.739 12.739 0 0 1-.83-1.593 13.548 13.548 0 0 1-.635-1.686 16.71 16.71 0 0 1-.43-1.74 12.221 12.221 0 0 1-.195-1.796 15.234 15.234 0 0 1 .3-3.574c.463-2.344 1.363-4.585 2.573-6.634l-.01.02a14.397 14.397 0 0 1 1.963-3.075 11.442 11.442 0 0 1 2.74-2.411l-.02.014.932-.7.975-.637 1.015-.57 1.051-.498a17.989 17.989 0 0 1 2.193-.771c.748-.2 1.507-.362 2.275-.457a18.198 18.198 0 0 1 4.617.03c.763.1 1.518.25 2.265.43a26.39 26.39 0 0 1 2.205.667v-.003l-.084-1.172c.002-.391.031-.784.045-1.178.034-.392.106-.781.157-1.174.07-.39.18-.771.27-1.16a14.75 14.75 0 0 1 .89-2.211c.183-.353.39-.693.586-1.041l.67-.992.745-.94.827-.865.884-.808.937-.745a21.296 21.296 0 0 1 2.008-1.305c.727-.396 1.4-.737 2.16-1.034.745-.29 1.511-.52 2.284-.724l1.174-.245 1.188-.163a18.43 18.43 0 0 1 2.396-.075c.8.033 1.594.144 2.376.307.78.173 1.543.404 2.288.684l1.093.475 1.05.563.985.658.928.735.861.802.783.876.001-.004c.168-.483.332-.964.461-1.456.124-.491.24-.997.44-1.472.368-.963.905-1.856 1.534-2.671a13.468 13.468 0 0 1 2.184-2.184c.817-.636 1.67-1.21 2.605-1.664.912-.487 1.884-.85 2.866-1.167.492-.162.997-.27 1.496-.405.506-.103 1.015-.2 1.524-.286a24.394 24.394 0 0 1 3.091-.237 22.908 22.908 0 0 1 3.096.17c.516.058 1.027.135 1.533.247.512.089 1.015.213 1.514.352a20.3 20.3 0 0 1 2.938 1.028c.48.196.942.46 1.414.688.452.263.87.505 1.325.805.861.59 1.661 1.269 2.391 2.015 1.454 1.499 2.56 3.35 3.118 5.354.596 1.996.653 4.107.34 6.12l-.004.003c-.07.033-.136.069-.202.11-.058.042-.14.083-.15.163h.004a20.856 20.856 0 0 1 3.896-.234c.652.024 1.307.068 1.955.162.66.087 1.282.228 1.93.35 1.286.269 2.55.68 3.744 1.258 1.188.589 2.302 1.358 3.235 2.325l-.023-.022a17.336 17.336 0 0 1 1.928 1.933 18.35 18.35 0 0 1 1.61 2.2z"/>
    </g>
</svg>
