<svg xmlns="http://www.w3.org/2000/svg" xmlns:xlink="http://www.w3.org/1999/xlink" width="140" height="155" viewBox="0 0 140 155">
    <defs>
        <path id="a" d="M0 .66h15.17V9H0z"/>
        <path id="c" d="M.292.547H15.17V13.9H.292z"/>
        <path id="e" d="M.293.972h14.614v10.24H.293z"/>
    </defs>
    <g fill="none" fill-rule="evenodd">
        <path fill="#D19E2A" d="M0 0h140v155H0z"/>
        <g transform="translate(20 123.028)">
            <mask id="b" fill="#fff">
                <use xlink:href="#a"/>
            </mask>
            <path fill="#FFF" d="M.47 4.8c0 1.068.26 1.899.777 2.495.517.595 1.288.893 2.314.893.712 0 1.277-.284 1.695-.852.418-.567.944-1.491 1.578-2.773C7.468 3.28 8.095 2.31 8.717 1.65 9.34.99 10.15.66 11.147.66c1.272 0 2.261.38 2.966 1.143.705.762 1.057 1.82 1.057 3.173 0 1.206-.13 2.08-.39 2.624-.263.544-.48.875-.657.994L12.543 9l-.172-.235c.722-.147 1.311-.528 1.767-1.142.456-.614.684-1.39.684-2.323 0-2.547-1.1-3.821-3.299-3.821-.735 0-1.34.3-1.819.9-.477.6-1.037 1.516-1.68 2.747C7.38 6.356 6.783 7.28 6.231 7.9c-.55.619-1.247.928-2.087.928-1.296 0-2.31-.39-3.045-1.172C.367 6.877 0 5.69 0 4.1c0-.627.112-1.182.335-1.667.223-.484.48-.873.77-1.168.29-.294.523-.476.704-.548l1.574.237-.17.295c-.646 0-1.264.254-1.856.762C.767 2.518.47 3.448.47 4.8" mask="url(#b)"/>
        </g>
        <g transform="translate(20 108.028)">
            <mask id="d" fill="#fff">
                <use xlink:href="#c"/>
            </mask>
            <path fill="#FFF" d="M1.631 2.705c-.1 0-.238.015-.417.047a.86.86 0 0 0-.45.216c-.054.047-.1.15-.144.31a5.326 5.326 0 0 0-.093.388H.292V.754h.235c.014.09.041.213.08.37.036.157.09.275.156.356.085.1.234.163.447.192.214.028.385.043.513.043h11.14c.811 0 1.308-.078 1.488-.235.1-.081.171-.226.214-.435.043-.21.068-.375.078-.498h.236v2.158H11.873c1.03.323 1.837.919 2.421 1.79a5.04 5.04 0 0 1 .876 2.872c0 1.452-.307 2.743-.922 3.875-.615 1.13-1.63 1.697-3.045 1.697H1.631c-.1 0-.238.016-.417.047a.868.868 0 0 0-.45.217c-.054.048-.1.15-.144.309-.043.16-.074.289-.093.389H.292v-2.914h.235c.014.09.041.216.08.375.036.159.09.279.156.36.08.095.228.156.445.185.215.028.387.043.515.043h9.188c.954 0 1.72-.224 2.293-.67a3.547 3.547 0 0 0 1.211-1.7c.233-.684.35-1.422.35-2.21 0-.836-.189-1.582-.564-2.237a4.848 4.848 0 0 0-1.41-1.581 5.646 5.646 0 0 0-1.738-.847H1.631z" mask="url(#d)"/>
        </g>
        <path fill="#FFF" d="M33.475 97.193c.114-.142.266-.339.456-.59.19-.252.311-.433.364-.542.232-.48.348-.859.348-1.139h.236v3.41h-.236a3.222 3.222 0 0 0-.085-.4c-.043-.16-.102-.24-.178-.24-.062 0-.203.098-.423.296-.222.196-.401.362-.539.494l-6.125 6.852h6.418c.085 0 .203-.008.356-.025a.66.66 0 0 0 .342-.117c.099-.08.163-.212.191-.393a2.84 2.84 0 0 0 .043-.427h.236v2.856h-.236c0-.299-.057-.532-.171-.698-.081-.09-.218-.147-.413-.17a3.99 3.99 0 0 0-.462-.036H21.631a2.73 2.73 0 0 0-.417.046.87.87 0 0 0-.451.218c-.053.047-.1.152-.143.313a6.607 6.607 0 0 0-.093.391h-.234v-2.92h.234c.015.09.041.217.079.378.038.162.09.277.157.35.085.098.234.163.448.191.213.03.384.043.513.043h4.956l-4.928-6.738c-.275-.389-.548-.583-.819-.583a.454.454 0 0 0-.235.056c-.071.048-.117.19-.139.424a6.768 6.768 0 0 0-.032.573h-.234v-3.589h.234c0 .252.168.671.502 1.26.336.59.655 1.092.959 1.51l4.692 6.361 6.795-7.415zM26.595 87.016c0-.356-.097-.589-.292-.698-.204-.138-.593-.207-1.168-.207v-.377h3.355v.348c-.499 0-.898.09-1.197.265-.195.118-.292.341-.292.67v4.521h6.567c.085 0 .2-.007.346-.025a.722.722 0 0 0 .352-.124c.1-.076.163-.204.192-.385.028-.18.043-.322.043-.427v-4.409a3.49 3.49 0 0 0-.129-.886c-.085-.326-.18-.564-.285-.716-.118-.152-.323-.309-.615-.47a7.433 7.433 0 0 0-.695-.349l-.085-.349 2.186.641v9.394h-.235c0-.305-.057-.537-.17-.699-.082-.09-.219-.146-.414-.17a4.004 4.004 0 0 0-.463-.036H21.631c-.099 0-.238.016-.417.047a.874.874 0 0 0-.452.216c-.052.048-.099.152-.142.311a5.588 5.588 0 0 0-.093.387h-.235v-9.564l2.536.641-.114.292c-.427-.038-.72-.058-.877-.058-.389 0-.63.048-.726.143-.275.214-.413.641-.413 1.282v4.352c.014.09.045.218.09.381.045.164.093.28.145.346.086.1.235.163.448.191.214.03.385.043.514.043h4.7v-4.522zM22.685 70.585l.086.356c-.119-.019-.29-.043-.513-.074a5.196 5.196 0 0 0-.712-.046c-.243 0-.409.03-.499.092-.233.166-.35.574-.35 1.225v2.563c0 .295.08.537.236.727.086.1.235.164.448.193.214.028.385.042.513.042H33.71c.086 0 .204-.008.356-.024a.652.652 0 0 0 .342-.118c.1-.08.163-.232.192-.456.028-.223.043-.403.043-.54h.235v3.325h-.235c0-.494-.057-.824-.172-.99-.08-.09-.218-.147-.412-.17a4.004 4.004 0 0 0-.463-.037H21.81c-.1 0-.24.016-.424.047a.836.836 0 0 0-.452.217c-.157.166-.236.401-.236.705v2.421c0 .503.167.902.5 1.196.09.081.31.198.658.35.35.152.626.268.83.35l.114.377-2.507-.556V69.944l2.393.641zM34.879 68.69h-.236c0-.298-.057-.531-.17-.697-.082-.09-.22-.147-.415-.171a3.934 3.934 0 0 0-.462-.035H21.631c-.1 0-.239.015-.417.046a.868.868 0 0 0-.452.217c-.052.047-.1.152-.142.313a6.013 6.013 0 0 0-.094.393h-.234v-4.438c0-1.162.216-2.254.648-3.276a8.425 8.425 0 0 1 1.773-2.67 8.296 8.296 0 0 1 2.526-1.767 6.953 6.953 0 0 1 2.873-.627c.907 0 1.767.212 2.582.635a6.839 6.839 0 0 1 2.161 1.787c.627.769 1.121 1.687 1.482 2.753.361 1.065.541 2.209.541 3.429v4.109zm-14.152-2.157c.024.114.157.187.399.218.242.03.44.046.598.046h12.805c0-1.785-.177-3.303-.53-4.555-.355-1.25-.84-2.246-1.46-2.984s-1.326-1.265-2.116-1.581c-.79-.316-1.659-.473-2.604-.473-.888 0-1.762.19-2.623.577a7.53 7.53 0 0 0-2.329 1.634 7.886 7.886 0 0 0-1.645 2.514 7.979 7.979 0 0 0-.61 3.116c0 .555.039 1.052.115 1.488zM27.002 52.701h6.709c.085 0 .204-.008.356-.025a.643.643 0 0 0 .342-.117c.1-.08.163-.21.192-.392a2.98 2.98 0 0 0 .043-.427h.235v2.856h-.235c0-.304-.058-.539-.172-.705-.075-.08-.211-.134-.41-.16a3.794 3.794 0 0 0-.465-.04H21.632c-.1 0-.24.016-.417.047a.859.859 0 0 0-.452.216c-.052.05-.1.151-.142.311a4.957 4.957 0 0 0-.093.388h-.235V51.74h.235c.014.09.04.215.078.374.038.16.09.28.157.36.08.095.229.157.445.185.216.03.388.042.516.042h4.872V42.432h-4.964c-.1 0-.24.015-.417.046a.868.868 0 0 0-.452.217c-.052.048-.1.151-.142.31-.043.16-.075.288-.093.388h-.235V40.48h.235c.014.092.04.216.078.375a.89.89 0 0 0 .157.36c.08.095.229.156.445.185.216.028.388.043.516.043H33.71c.085 0 .204-.009.356-.025a.652.652 0 0 0 .342-.118c.1-.08.163-.21.192-.392.028-.18.043-.322.043-.428h.235v2.857h-.235c0-.304-.058-.539-.172-.705-.075-.08-.211-.135-.41-.16a3.57 3.57 0 0 0-.465-.039h-6.595v10.27zM20.293 35.523h.234c.015.09.04.216.079.378.038.16.09.277.157.349.085.099.235.164.448.192.214.029.385.042.513.042H33.71c.085 0 .203-.007.352-.025a.64.64 0 0 0 .346-.124c.1-.076.163-.204.192-.385.028-.18.042-.323.042-.427h.236v2.856h-.236c0-.304-.056-.536-.171-.698-.08-.09-.218-.147-.413-.171a4.166 4.166 0 0 0-.462-.035H21.632c-.1 0-.24.015-.417.046a.86.86 0 0 0-.452.217c-.052.048-.1.15-.142.31a5.555 5.555 0 0 0-.094.388h-.234v-2.913z"/>
        <g transform="translate(20 23.028)">
            <mask id="f" fill="#fff">
                <use xlink:href="#e"/>
            </mask>
            <path fill="#FFF" d="M14.002 2.169c.427-.275.64-.674.64-1.197h.237l.018.463c.006.209.01.404.01.584 0 .432-.302.9-.905 1.403-.47.323-1.193.813-2.172 1.47-.978.659-1.965 1.306-2.962 1.945-.998.639-1.551.958-1.66.958-.043.17-.114.407-.214.709-.1.3-.214.552-.342.75h6.888c.503 0 .804-.046.904-.142.07-.09.12-.235.15-.434.028-.2.044-.355.049-.47h.236v2.942h-.236c0-.3-.057-.532-.171-.7-.081-.09-.218-.146-.413-.17a4.032 4.032 0 0 0-.462-.036H1.632c-.1 0-.24.017-.417.047a.875.875 0 0 0-.452.217c-.053.048-.1.152-.143.314a5.893 5.893 0 0 0-.093.39H.293V6.777c0-.944.176-1.746.53-2.403.354-.658.818-1.15 1.393-1.478a3.602 3.602 0 0 1 1.809-.491c.517 0 1.022.19 1.516.569.494.38.896.889 1.204 1.528.309.638.463 1.319.463 2.04l6.794-4.372zM6.887 6.748c0-.893-.294-1.645-.883-2.258-.588-.612-1.248-.918-1.98-.918-.911 0-1.694.237-2.346.712-.654.474-.98 1.305-.98 2.492 0 1.439.032 2.218.093 2.336.038.048.109.082.214.104.104.02.187.034.249.039h5.192a7.205 7.205 0 0 0 .44-2.507z" mask="url(#f)"/>
        </g>
    </g>
</svg>
