<svg xmlns="http://www.w3.org/2000/svg" width="145" height="212" viewBox="0 0 145 212">
    <g fill="#C6C6C6" fill-rule="evenodd">
        <path d="M4.753 109.211c.875 1.823 1.99 3.478 3.224 5.046-1.278-1.813-2.45-3.688-3.459-5.668.092.202.14.421.235.622M41.675 66.998c2.444-4.982 6.25-8.027 10.801-7.255.778.131 1.469.575 2.203.863 2.026.466 4.333 1.992 6.06 3.052 3.132 1.921 5.82 4.223 8.115 7.085 5.075 6.33 12.415 23.017 1.922 27.38-11.711 2.024-9.606-10.83-14.857-16.846-3.574-4.094-15.968-7.585-14.244-14.279M57.642 84.94c1.563 3.125 1.077 6.76 3.025 9.737 2.355 3.6 6.027 4.566 10.027 3.852.035-.006.073-.034.11-.054.024-.006.024.017.05.007 10.054-4.087 5.113-17.376 1.093-24.485-3.874-6.85-16.634-18.14-25.406-15.028-2.692.956-4.327 3.365-5.069 6.038-1.709 6.156 2.235 8.827 7.012 11.536 3.665 2.078 7.207 4.498 9.158 8.397M48.445 10.242c-.037-.046-.076-.082-.113-.128.076.095.107.13.113.128M103.747 162.302c-1.857 10.186-3.414 20.837-3.16 30.555.16-.995.298-1.958.379-2.855.83-9.247 1.644-18.492 2.78-27.7M40.603 35.26c-.686-4.755-2.374-9.637-3.155-14.477.505 4.848 1.772 10.185 3.155 14.477M96.454 65.732c-5.94-10.717-13.953-19.029-22.43-26.81 12.807 12.695 23.158 26.517 29.888 44.65 8.867 23.89 5.713 41.848 1.647 65.995-.713 4.233-1.287 8.481-1.813 12.734 1.078-5.906 2.236-11.659 3.182-16.936 5.417-30.205 5.011-51.7-10.474-79.633"/>
        <path d="M141.558 87.95c-5.028-14.25-14.073-17.891-23.27-29.135-8.863-10.832-10.183-15.778-23.139-21.711C74.845 27.807 52.807 22.863 42.882.06L42.786 0c-16.017.672-6.428 36.106-8.474 45.196-6.208 2.219-12.03 5.193-18.497 11.659-2.76 2.76-8.837 10.637-10.696 14.069-7.935 14.647-5.446 28.147-.6 37.665C-1.37 95.615-.962 81.843 6.11 70.225c7.626-12.533 20.186-22.451 30.658-24.607 9.177-1.81 27.098 3.66 37.425 12.247 17.581 18.453 20.564 47.11 9.425 70.042-4.085 8.41-15.844 21.25-24.122 25.617-18.368-.461-27.679-2.541-32.925-13.936-2.272-4.832-9.026-14.085-18.593-25.331 5.748 8.149 13.043 17.682 18.285 26.974.48 2.895 1.426 7.978 3.451 10.888 2.768 3.98 6.504 8.073 13.363 8.326 9.732.358 20.931-8.26 27.452-14.354 24.552-22.952 27.565-64.05 4.196-88.576C61.425 43.589 44.241 43.2 44.086 43.04c-.935-.962-2.25-3.955-3.483-7.78.408 2.829.47 5.615-.277 8.316-.012.044-.024.07-.036.114a30.163 30.163 0 0 0-3.857.833c-.32-1.255-.4-2.383-.129-2.046-2.04-2.534-1.249-13.05-1.375-16.98-.132-4.137-2.183-25.03 8.036-23.61-.4-.055 5.56 8.333 5.48 8.355 10.593 13.21 23.712 18.198 38.782 24.182 15.175 6.025 20.475 12.437 30.466 24.665 8.33 10.194 18.692 16.156 23.272 29.136 6.08 26.165 1.725 42.465-13.712 63.857-4.549 6.303-8.179 11.854-10.914 19.365-3.279 9.003-3.387 22.32-9.48 30.199-5.559 7.184-4.785 8.138-6-3.728-.169-1.644-.227-3.35-.272-5.062-1 6.21-3.049 13.956.064 18.882.077.023.135.04.212.065 13.192-5.691 13.902-39.084 20.425-50.661 5.834-10.354 15.2-17.558 19.598-28.811 5.55-14.202 4.032-29.921.672-44.381"/>
        <path d="M40.445 5.82c-3.612 4.799-3.822 9.856-2.998 14.963-.715-6.861.1-12.676 4.344-12.856.312-.013.754.189 1.261.504-.692-.907-1.393-1.805-2.056-2.749-.114-.162-.464.022-.55.138M43.053 8.431c8.978 11.767 20.332 20.724 30.97 30.49-4.486-4.448-9.262-8.763-14.306-13.068-1.913-1.632-12.364-14.75-16.664-17.422"/>
        <path d="M103.462 184.742c4.02-12.81 9.045-28.423 11.895-43.733.033.195.081.412.102.587-.014-.114-.014-.147-.02-.218-.027-.135-.05-.272-.075-.407.971-5.224 1.684-10.406 2.015-15.435.086.517.17 1.037.308 1.527.504 1.778 1.638 3.164 2.65 4.671 1.825 2.722 3.24 5.993 3.538 9.283.098 1.083.462 2.142.56 3.221a57.269 57.269 0 0 0-1.127-7.245c-.514-2.302-1.28-4.639-2.42-6.71-1.084-1.973-2.55-3.637-3.436-5.695.268-4.744.191-9.34-.352-13.68-.815-6.507-1.924-13.669-3.509-20.833 2.181 3.72 4.982 7.02 8.366 9.725 3.504 2.801 7.332 4.891 9.351 9.083-.15-.313-.034-.757-.187-1.073-2.013-4.18-5.855-6.289-9.35-9.084-3.448-2.755-6.289-6.125-8.486-9.927-1.224-5.33-2.742-10.607-4.619-15.622 6.701 8.633 19.86 10.246 24.675 20.815-.144-.318-.04-.752-.187-1.074-4.916-10.787-18.515-12.246-25.077-21.363-1.767-4.467-3.826-8.688-6.28-12.432-1.185-1.806-2.537-3.496-3.976-5.123 6.608 4.982 15.214 6.174 21.764 11.297-.208-.163.03-.905-.187-1.074-6.904-5.399-16.117-6.379-22.84-12.09.132.112.113.405.116.675-2.712-2.879-5.74-5.522-8.973-7.99 4.711 1.116 9.475 2.01 14.112 3.424-.15-.045-.023-1.024-.187-1.074-5.018-1.53-10.189-2.432-15.277-3.689.053.013.068.183.078.375-7.062-5.238-14.793-9.822-21.478-14.657-.128-.092-.657.235-.55.312 13.238 9.573 30.132 17.951 38.386 32.518 7.956 14.04 11.898 33.285 13.721 49.155.96 8.34.18 17.922-1.514 27.757-.02-.15-.063-.296-.082-.447.014.117.057.31.081.451-2.772 16.096-8 32.874-12.123 46.018-.027.086.541-.048.594-.219"/>
        <path d="M127.412 123.774A148.11 148.11 0 0 1 115.28 98.51c.37 1.001.189 2.212.56 3.221a147.961 147.961 0 0 0 12.132 25.264c-.52-.863-.032-2.343-.561-3.22M119.615 158.528c-.371-2.189-.77-4.36-1.307-6.516-.434-1.735-.937-3.45-1.429-5.17-.26-.91-.528-1.82-.773-2.736-.131-.486-.762-3.76-.667-2.728 1.08 5.5 3.057 10.768 3.997 16.3.166.986.565 3.123.18.85"/>
    </g>
</svg>
