<svg xmlns="http://www.w3.org/2000/svg" xmlns:xlink="http://www.w3.org/1999/xlink" width="18" height="28" viewBox="0 0 18 28">
    <defs>
        <path id="a" d="M0 .479h17.977v20.385H0z"/>
        <path id="c" d="M.632.716h7.392V1H.633z"/>
        <path id="e" d="M.176.823h6.223v6.915H.176z"/>
    </defs>
    <g fill="none" fill-rule="evenodd">
        <path fill="#696D70" d="M10.62 10.373c.257.116-.005.298-.027.513-.154-.06.038-.358.026-.513M13.021 11.36c.285.013.013.493-.155.417.033-.17.165-.187.155-.416M14.125 12.17c.245.09-.03.346-.213.33.025-.178.156-.198.213-.33M8.737 21.133c.043-.104.122-.11.271-.244.095.06.385-.008.344.14.183-.023-.168-.339.083-.429.312.122.472.346.374.743-.338-.184-.362-.243-.54.115-.098-.058-.388.013-.345-.14-.15-.01-.082.31-.213.328-.375-.058-.307-.413-.389-.669.14-.18.38-.044.415.156"/>
        <g transform="translate(0 6.177)">
            <mask id="b" fill="#fff">
                <use xlink:href="#a"/>
            </mask>
            <path fill="#696D70" d="M15.56 7.386c-1.136-1.737-2.95-3.02-5.828-3.586-.119.37-.598.046-.742.004-.075 1.558.205 2.88.261 4.353.081.09.193.16.245.272a.329.329 0 0 0 .028.226c-.046.083-.12.128-.242.102-.015.336.072.93.106 1.356.024.329-.079.539.158.328-.009.415.166.206.36.442.142.17.21.264.287.425.11.233.044.21.074.386.058.36 0 .747-.496 1.015-.059.097.01.388-.143.344.007-.087.054-.201-.029-.228-.065.087-.18.102-.313.087-.043.587-.079 1.168-.12 1.758-.124-.031-.226-.031-.3.014-.01-.511.023-1.05.092-1.612-.24-.193-.54-.342-.875-.467-.042-.282-.268-.441-.216-.787-.276-.147-.139.004-.043-.157.04-.065-.065-.127-.03-.228.031-.091.187-.203.141-.342.041-.123.335-.152.342-.231.001-.003-.117-.035-.057-.086.09-.075.282-.023.342-.23-.055-.397-.054-.622-.077-1.126-.246-.064-.327-.236-.358-.443a.654.654 0 0 0 .341-.23c-.104-.094-.018-.316-.06-.456.073-.52-.042-.828-.046-1.271-.003-.231.06-.445.053-.657-.015-.4-.117-.91-.134-1.213-.019-.353.115-.695-.103-.985-.14.187.123.403-.084.429.045-.217-.099-.308-.132-.471.124-.063.332-.001.342-.232-.232-.021-.58-.033-.328.16-.139-.01-.14-.111-.27-.124-.043.273-.064.012-.228.027-.146.185-.524.082-.5.274.013-.072-.109-.113-.144-.028.04.007.071.073-.014.072-.259-.075-.42.293-.854.203-.034.092-.132.127-.186.186-.089.099-.075.194-.229.03-.107.195-.159.244-.212.33-.109-.01-.258-.077-.3.015.092.145-.289.364-.512.345-.176.23.012.183-.013.442-.036-.05-.306-.233-.357-.07.077.12-.16.089-.257.173-.064.057-.115.172-.198.258-.069.072-.214.155-.198.259-.046.119.292.286.087.312.015-.133-.234-.091-.259-.196-.315.237-.485.69-.724 1.043.051.09.26.073.173.256-.092-.042-.116-.13-.273-.128-.12.373-.409.499-.479.946-.03.183.26.157.228.342-.234-.004-.195-.177-.357-.07-.077.388-.407.925-.165 1.23-.274-.09-.218.36-.227.398-.053.237-.219.658-.024.887-.254.357-.096.976.047 1.269.02-.091.216-.05.216.043-.102.004-.158.075-.3.014.096.472.015 1.068.491 1.285-.09-.01-.174-.012-.172.114.103.324.225.635.333.955.06-.121.07.046.13.1.046-.083.12-.128.241-.101-.05.142-.22.103-.268.243.253.057.207.399.272.5.018.028.123-.002.143.028.017.026-.05.12-.028.142.052.063.154.055.2.113.095.119.09.36.243.27-.134-.032.1-.27.2-.257-.152.207-.222.562.102.614.226 0 .215-.357.441-.358.13.258-.217.426-.28.685.193.11.241.159.327.214.183.133.253-.344.313-.088-.058.099-.14.16-.198.258.688.602 1.547 1.274 2.72 1.646.27.084.415.144.557.182 1.52.398 2.71.143 3.855.013.4-.207.843-.348 1.284-.493.187-.18.394-.335.67-.387.227-.306.633-.35.81-.731.185.088.172-.116.313-.088a.987.987 0 0 1 .47-.503c.094-.12-.167-.28.055-.285.006.059-.025.142.043.156.226-.381.724-.711.681-1.203.071.014.075.077.13.102.138-.401.58-.773.466-1.247.181.06.241-.245.297-.385.095-.248.065-.55.211-.701.018-.136-.227-.097-.173-.256l.215.042c.126-.416.001-.661.14-1.086.018-.137-.228-.096-.173-.258.107.015.146.01.171-.114.05-.254-.092-.744-.02-1.041-.104-.033-.268-.027-.272-.128a.513.513 0 0 0 .242-.102c-.089-.316-.17-.666-.246-1.011-.087-.39-.158-.947-.362-1.183-.129-.151-.012-.194-.03-.23-.017-.031-.107-.061-.129-.097-.027-.047-.02-.112-.043-.158-.159-.32-.227-.38-.36-.442.06-.006.095-.044.1-.13M8.106.738c0 .703.15 1.303.036 2.084-1.212.093-2.314.454-3.293.913-.49.228-1.013.577-1.439.907-.066.05-.023.086-.099.129-.156.079-.354.304-.54.487-.212.205-.435.377-.569.63-.148.054-.255.359-.399.147-.024.624-.565 1.068-.836 1.615-.07.14-.098.323-.169.486-.143.337-.448.889-.565 1.374-.024.094.026.253 0 .372-.052.247-.135.55-.18.927a8.863 8.863 0 0 0 .343 3.554c.031.1-.005.082.044.158.063.096.097.433.173.628.013.03.125.073.131.099.008.04-.045.106-.029.144.012.03.124.072.13.098.04.175.157.375.26.57.054.107-.03.113.028.227.02.038.104.053.13.1.063.125.22.338.343.514.1.137.177.288.288.426.053.068.09.023.128.1.045.082.16.149.16.33.366.075.528.447.76.666.674.64 1.484 1.186 2.576 1.616a13.74 13.74 0 0 0 1.71.528c.213.054.424.119.641.156.17.029.341.04.512.05.326.022.656.07.983.09.103-.194.121-.058.3-.013.262-.168.606-.111.927-.191.127-.03.18.047.37 0 .026-.01.225-.12.328-.162.173-.064.53-.124.785-.215a8.488 8.488 0 0 0 1.225-.577c.393-.217.92-.554 1.354-.848.086-.263.358-.32.54-.487.052-.051.053-.143.113-.202.088-.084.22-.145.355-.301.041-.044.062-.15.114-.2.061-.06.168-.132.27-.245.133-.144.39-.483.453-.801.285.07.161-.316.327-.53.016-.02.148-.027.157-.043.063-.12.1-.276.155-.414.041-.102.041-.244.056-.285.2-.534.48-1.022.606-1.59.077-.337.044-.782.081-1.171.01-.097.051-.122.041-.214-.002-.042-.055-.084-.055-.086-.003-.026.116-.382.111-.57-.003-.17-.032-.363-.045-.528-.005-.06.003-.204-.017-.302-.012-.061-.11-.136-.114-.17-.009-.061.056-.105.042-.212-.007-.04-.018-.146-.03-.23a8.781 8.781 0 0 0-.32-1.398 2.5 2.5 0 0 0-.1-.244c-.052-.116-.086-.221-.146-.396-.056-.161-.229-.372-.332-.587-.014-.03.05-.112.028-.14-.017-.026-.128-.001-.14-.028-.038-.073.01-.163-.03-.228-.154-.267-.447-.433-.447-.757-.28.038-.24-.451-.387-.298-.065-.184-.258-.281-.274-.5-.512-.315-.71-.844-1.345-1.076-.046-.26-.327-.273-.516-.4a8.926 8.926 0 0 0-1.89-.96c-.864-.312-1.765-.491-2.572-.503.292-.173.024-.187-.073-.386-.08-.357.237-.496-.16-.7-.018-.272.333.003.343-.231-.377-.345-.33.412-.67.39-.088-.211.081-.592-.247-.642.307-.072.193-.52.14-.713" mask="url(#b)"/>
        </g>
        <path fill="#696D70" d="M6.964 10.475c.094.046-.019.127-.099.128-.035.127.058.166.016.3.048.07.002.205.101.243-.073.274.08.4.101.614-.03.078-.08.026-.072-.014-.063-.124-.03-.312-.143-.402.057-.14-.012-.198-.016-.298-.04-.14-.13-.243-.145-.399-.103.064-.16.035-.128-.1.135-.017.304.022.385-.072M9.575 13.433c.154-.172.24-.443.297-.755.081-.123.068.057.043.154-.086.272-.163.556-.297.759.098.29-.096.388-.197.629-.183.27.01-.106.042-.214.141-.498.012-1.135-.006-1.486.08-.12.07.059.044.156.108.197.081.486.074.757M9.38 10.649c.122.455.066 1.028.147 1.515-.006.13-.098.135-.086.058.017-.55-.118-.997-.062-1.573M7.056 11.9c.179.318.16.762.305 1.1-.006.13-.097.134-.085.058-.035-.412-.205-.732-.22-1.157M9.725 14.946c.077-.127.095.1-.014.072-.093.208.02.273-.012.441-.064.001-.063-.04-.057-.084-.087-.005-.085.12-.115.2-.262.105.266-.46.04-.585.048-.107.115.085.158-.044"/>
        <g transform="translate(5 26.177)">
            <mask id="d" fill="#fff">
                <use xlink:href="#c"/>
            </mask>
            <path fill="#696D70" d="M6.104.716c.41.139.928.114 1.415.139.14.004.436.037.505.029-.823.11-1.762.048-2.766.092C3.696 1.042 2.09.96.633.884 1.242.786 2.033.87 2.63.76" mask="url(#d)"/>
        </g>
        <g transform="translate(5 -.823)">
            <mask id="f" fill="#fff">
                <use xlink:href="#e"/>
            </mask>
            <path fill="#696D70" d="M3.106 7.737c-.044-.913.203-3.45.005-4.242-.306.221-.695-.075-.652-.497-.194-.076-.435-.046-.688-.04.023-.026.082-.019.111-.042-.108-.171-.385-.092-.596-.112-.059.007-.016-.085-.03-.121-.088-.175-.58-.277-.524.038.03.165.261.181.442.221.03.026-.214-.003-.277-.026-.052-.026-.033.083-.056.042-.293-.006-.244-.487-.009-.526-.182-.26-.643-.4-.656-.83 0-.235.131-.423.25-.594 1.025-.425 2.425.014 3.664.014.748 0 1.641-.307 2.102.155.109.105.27.385.182.593-.073.16-.307.131-.515.15-.134.015-.296.087-.457.126-.436.106-.94.248-1.269.455a.444.444 0 0 0-.346.126c-.013.052.029.079 0 .108-.109.053-.227.139-.389.167-.138.023-.333.004-.33.14 0 .049.258.25.317.26.086.015.145-.067.208 0 .276.74-.003 3.427.082 4.177" mask="url(#f)"/>
        </g>
    </g>
</svg>
