<svg xmlns="http://www.w3.org/2000/svg" xmlns:xlink="http://www.w3.org/1999/xlink" width="32" height="16" viewBox="0 0 32 16">
    <defs>
        <path id="a" d="M0 .113h31.91V16H0z"/>
    </defs>
    <g fill="none" fill-rule="evenodd">
        <g transform="translate(0 -.113)">
            <mask id="b" fill="#fff">
                <use xlink:href="#a"/>
            </mask>
            <path fill="#767676" d="M31.295 14.983c-.331.425-.766.512-1.123.638a7.772 7.772 0 0 1-1.1.225c-.722.094-1.438.133-2.151.15-1.425.021-2.84-.044-4.252-.092a185.572 185.572 0 0 0-8.471-.18c-2.822.004-5.647.103-8.47-.017-1.403-.084-2.833-.167-4.173-.636-.162-.068-.354-.078-.51-.172-.16-.092-.27-.248-.397-.367a2.63 2.63 0 0 1-.57-.884c-.12-.326-.115-.725.109-1.009.205-.29.525-.48.854-.6h.003l.002.001c.655.377 1.333.721 2.048.967.72.23 1.48.305 2.229.398l-.013.012v-.002a67.097 67.097 0 0 1 .072-5.055c.054-.84.118-1.684.293-2.51.18-.829.609-1.577 1.066-2.28.946-1.404 2.438-2.402 4.076-2.806 1.63-.433 3.32-.614 5.004-.649l-.003.003V.115l.003-.003h.109l.002.003v.003L15.93.115c1.68.036 3.367.22 4.995.651 1.604.41 3.257 1.21 4.205 2.7.466.721.867 1.493 1.042 2.36.163.845.22 1.69.277 2.532.138 1.688-.051 3.377.005 5.06l-.027-.027-.003-.033a18.728 18.728 0 0 0 2.21-.403c.717-.178 1.407-.489 2.093-.774l.053-.02.074.016c.279.065.52.193.733.414.208.222.326.552.323.861.01.318-.1.59-.206.844-.117.25-.261.47-.41.687m-.716-.595c.296-.307.554-.659.62-.985a.652.652 0 0 0-.057-.474c-.072-.159-.24-.308-.401-.416l.127-.005c-.706.286-1.423.536-2.178.69-.748.14-1.5.23-2.255.278l-.003-.034-.028-.025c.05-1.684-.22-3.362-.31-5.033-.068-.834-.151-1.672-.312-2.48-.138-.79-.511-1.554-.941-2.248-.86-1.385-2.263-2.49-3.915-2.89C19.297.336 17.61.156 15.93.12l-.003-.002V.115l.003.002h-.11l.003-.002v.003L15.82.12c-1.683.036-3.372.22-5.001.653-1.636.406-3.124 1.404-4.067 2.806-.456.701-.883 1.45-1.061 2.275-.174.824-.237 1.667-.29 2.507a67.601 67.601 0 0 0-.068 5.054v.016l-.013-.002c-.75-.093-1.508-.174-2.232-.406-.716-.25-1.393-.597-2.046-.977H1.04h.003c-.328.118-.647.306-.852.596-.223.283-.23.68-.11 1.005.126.327.319.635.572.88.137.114.314.163.462.248.154.075.28.214.449.274 1.326.497 2.763.574 4.165.658 2.822.12 5.647.021 8.469.016 2.824-.012 5.648.094 8.47-.018 1.41-.047 2.822-.14 4.215-.298a19.677 19.677 0 0 0 2.055-.32c.33-.076.658-.165.956-.28.304-.104.538-.314.684-.419" mask="url(#b)"/>
        </g>
        <path fill="#767676" d="M5.31 11.772l.022 1.527-.011-.012c1.76.099 3.51.317 5.271.411 1.76.084 3.524.141 5.285.093a89.166 89.166 0 0 0 5.274-.267l2.627-.241 1.312-.114.655-.059.328-.03.163-.016.081-.008.041-.004.02-.002.01-.001.005-.001c.012.068-.018-.154.027.153l-.044.051a10.86 10.86 0 0 1 .028-1.487l.01.011c-1.753.154-3.516.224-5.274.311-1.76.075-3.52.134-5.282.118a143.08 143.08 0 0 1-5.28-.149c-1.755-.085-3.528-.163-5.267-.284zm-.016-.018c3.532.242 7.038.407 10.564.428 1.761.009 3.521-.061 5.28-.145 1.76-.071 3.512-.23 5.276-.283h.01l.002.011c.058.495.063.991.054 1.486l-.044.052c.041.308.009.086.017.155l-.005.001-.012.001-.02.004-.041.007-.084.013-.163.027-.329.05-.657.089-1.32.143c-.88.081-1.765.103-2.648.138a87.464 87.464 0 0 1-5.297.007 198.056 198.056 0 0 1-5.285-.236c-1.758-.102-3.526-.141-5.274-.39v-.001l-.011-.002v-.01l-.014-1.545z"/>
    </g>
</svg>
