<svg xmlns="http://www.w3.org/2000/svg" width="18" height="18" viewBox="0 0 18 18">
    <path fill="none" fill-rule="evenodd" stroke="#636363" stroke-linecap="round" stroke-linejoin="round" stroke-width=".5" d="M9.285 6.015c-1.834 0-3.321 1.441-3.321 3.218 0 1.778 1.487 3.219 3.321 3.219s3.322-1.441 3.322-3.219c0-1.777-1.488-3.218-3.322-3.218zm6.384 1.979h-1.455c.137.45.212.926.212 1.419 0 2.751-2.302 4.98-5.141 4.98s-5.14-2.229-5.14-4.98c0-.493.074-.97.212-1.419H2.838v6.986a.66.66 0 0 0 .658.657h11.516a.659.659 0 0 0 .658-.657V7.994h-.001zm-2.621-5.156a.746.746 0 0 0-.745.744v1.782c0 .41.335.745.745.745h1.869c.41 0 .744-.335.744-.745V3.582a.745.745 0 0 0-.744-.744h-1.869zM3.123 1h12.293c1.167 0 2.122.864 2.122 2.123v12.293c0 1.258-.955 2.122-2.122 2.122H3.123C1.955 17.538 1 16.674 1 15.416V3.123C1 1.864 1.955 1 3.123 1z"/>
</svg>
