<svg xmlns="http://www.w3.org/2000/svg" xmlns:xlink="http://www.w3.org/1999/xlink" width="67" height="25" viewBox="0 0 67 25">
    <defs>
        <path id="a" d="M0 .963h66.191V24H0z"/>
    </defs>
    <g fill="none" fill-rule="evenodd">
        <path fill="#696D70" d="M54.873.42c0 .038.003.061.028.072-.035.044-.045-.058-.114-.027.007-.036.052-.036.086-.046M53.402 1.791c-.03.045-.083.072-.13.027.023-.03.1-.003.13-.027M52.409 4.04c-.01.048.04.035.027.086.135.017.224-.017.23-.127-.048-.131-.206-.055-.257.04m.27-.315c.042.134.063.295.16.374a4.058 4.058 0 0 0-.72.217c.008-.165-.126-.196-.116-.361.32.01.42-.217.677-.23M56.26 6.577c.026.014-.008.124-.018.148-.072.134-.289.261-.402.402-.039.048-.035.11-.1.131.038-.303.337-.47.52-.68M36.497 11.136c.01.01.02.017.044.014.018.034-.037.055 0 .058-.037.055-.082-.048-.044-.072M11.316 11.208c.035.021.086.024.069.103-.045-.014-.083-.034-.07-.103M36.555 11.24c.079-.049.148.04.217.057a.773.773 0 0 1-.203.16c-.011-.039-.038-.06-.045-.105-.007-.048.103-.096.031-.113M6.049 17.325c-.007.03-.031.045-.044.072-.021-.003-.011-.034-.015-.058.028.003.03-.018.059-.014M32.082 17.47c.044.01.07.034.058.102-.034-.003-.068-.003-.072.028-.045-.035.021-.09.014-.13M6.929 17.572c.02.017.028.048.028.086-.045-.01-.045.024-.07 0-.006-.048.07-.017.042-.086M14.675 17.96c-.021.036-.068.039-.072.087-.031.003-.007-.051-.017-.072.045.01.045-.024.089-.014M47.732 19.66c.028.181.248.171.417.202.027-.052.082-.072.075-.158-.117-.186-.303.058-.492-.045m-1.083-.1c-.017.251.3.165.478.217-.034-.079.014-.155 0-.258-.182-.11-.292.11-.478.041m1.052-.127c.165.08.375.007.437-.058.075.013.137.044.203.072-.076-.213-.334-.237-.59-.26.016.115-.057.14-.05.246m-4.009-1.083c.313.031.626.255 1.015.29.137.01.285-.01.43 0 .371.023.728.167 1.096.185.471.023.984.048 1.414.13.068.148.285.265.446.117.073.127.275.072.447.07.145.336-.168.542-.199.838-.15-.014-.306-.062-.389.044-.068-.189-.282-.082-.522-.103-.265-.02-.444-.182-.619-.027-.083-.096-.25-.127-.406-.072-.12-.13-.058-.485.072-.55-.254-.128-.694-.073-.808-.344.035.003.06-.004.073-.014-.152-.169-.527-.107-.763-.189-.042.013.024.038-.018.058-.04-.045-.127-.045-.186-.072-.03.004 0 .062-.044.058a.427.427 0 0 0-.419-.103c-.038-.024-.052-.068-.097-.086-.05-.01-.02.06-.076.045-.103-.055-.164-.148-.312-.16 0-.084-.086-.08-.135-.115M18.495 18.752a.086.086 0 0 1-.028-.041c-.041.038-.058.096-.099.13h-.117c-.004-.049-.007-.09-.031-.117.034-.061.148-.044.202-.085.035-.05.004-.136-.054-.145-.056-.01-.069.044-.131.072-.069.03-.155-.003-.145.059-.007.102.076.113.087.198-.121.014-.145-.079-.145-.157 0-.3.533-.364.461.085M18.9 18.535c.251.038.516.189.85.189.01.045-.015.052-.015.086-.079.014-.099-.034-.13-.072-.014.003-.01.027-.014.044-.13-.027-.306-.103-.474-.044.017-.069-.055-.048-.072-.086-.038-.011-.03.031-.045.045-.079-.007-.062-.114-.1-.162M22.565 19.735c.028.179.244.165.416.199.024-.051.08-.072.072-.158-.116-.185-.302.059-.488-.041m-1.083-.117c-.03.265.296.179.475.23-.035-.078.017-.154 0-.257-.186-.124-.31.134-.475.027m1.056-.113c.203.148.367-.138.574-.031.017-.031-.066-.128-.13-.158-.11-.052-.262-.021-.389-.045 0-.007 0-.017-.014-.01.017.113-.055.137-.04.244m-2.745-.781c.42.024.98.158 1.513.189.426.02.832.055 1.2.114.017.069.075.096.086.172.123.034.258.007.333-.06.065.132.275.08.444.077.148.333-.172.536-.203.835-.144-.017-.286-.055-.389.028-.072-.176-.289-.07-.519-.086-.265-.017-.43-.18-.605-.028-.072-.006-.079-.082-.158-.103-.086-.017-.179.028-.275.03-.096-.15-.028-.456.058-.563-.24-.093-.57-.1-.749-.257-.01-.052-.038-.086-.03-.16-.184-.067-.503-.081-.675-.071-.02-.031-.017-.082-.03-.117M31.78 18.968c.02-.03.1-.004.148-.014-.003.028.007.038.024.045-.038.031-.107-.035-.172-.03M6.61 19.04c.026-.027.15-.024.161.014-.045.041-.104-.02-.162-.014M35.86 20.918c-.078.093-.322-.076-.374.027-.351-.054-.732.01-1.093-.072.096-.068.299-.048.474-.041.262.007.53.014.705.055.103-.024.237-.08.289.03M36.569 20.931c.059-.014-.048-.055 0-.058.148.02.275.072.406 0 .004.072.017.096.086.072-.107.1-.344-.093-.433.072-.093-.175-.482.031-.61-.1.008-.03.07-.003.059-.044.173.082.368-.08.492.058M9.71 20.904c-.055.127-.35.079-.488.04.106-.13.337.046.488-.04M9.9 20.931h.03c-.024.038.038.01.028.055h-.073c.011-.01.014-.03.014-.055M11.629 20.986c-.045.041-.168.093-.213.045.03-.066.137-.055.213-.045M11.732 21.017c.042-.045.104.01.145.014-.018.027-.08.013-.103.027.01-.034-.028-.024-.042-.04M61.135 22.936c.017.004.01.024.01.045-.07-.007-.075.05-.158.04.038-.04.11-.044.148-.085M59.776 23.369c.035.01.038.048.072.058-.003.031-.062.007-.072 0v-.058zM57.714 23.672c.038-.038.093.02.162 0 .017.014-.17.038-.162 0"/>
        <path fill="#696D70" d="M53.127 1.1c-.038.148.107.213.203.144.01-.072-.02-.092-.014-.16a.651.651 0 0 1-.19.016m4.082.62c0 .074.035.12.03.202a1.064 1.064 0 0 0-.147-.289c-.185-.01-.306-.086-.488-.103.066-.038.22.01.289-.028-.141-.165-.42-.227-.708-.288-.39-.087-.83-.258-1.238-.114.028.086.072.158.175.172-.295.093-.787.32-1.1.086-.127.106-.271.196-.406.303.014-.042.055-.11 0-.145-.048-.034-.168.168-.271.072.093-.038.148-.113.247-.144-.08-.024-.2-.014-.288-.028-.066.004.007.141-.06.145-.02-.004-.04-.004-.044.013-.044.004-.03-.048-.041-.072-.11.06-.268.07-.361.145-.041.031-.045.1-.086.144-.086.083-.223.138-.32.217-.093.08-.196.175-.23.302-.017.076.034.17-.058.231.013-.066.02-.262.017-.389-.16.004-.303.368-.09.461.059.433.2.78.392 1.083-.072.034-.182.041-.247.086.027-.148-.09-.337-.145-.492-.03.06-.003.18-.01.261-.13-.336-.282-.653-.306-1.096h.086c.337-.372.533-.88 1.01-1.11-.075-.114-.192-.187-.202-.362-.086.038-.113.134-.186.19-.574-.028-1.124.092-1.66.013-.034-.134.027-.25.058-.36-.11-.029-.264-.004-.333-.073-.104-.32.127-.619.347-.753.839.014 1.64.065 2.424.134.062-.004 0 .021 0 .041.113.107.282.093.433.144.048.014.086.07.127.087.083.034.186.017.262.058.068.034.075.107.158.113.007.031-.007.042-.014.06.13.01.182.095.26.157-.04.028-.11.028-.102.103-.093-.069-.223 0-.361-.03-.08-.014-.134-.1-.213-.128-.265-.086-.574-.03-.667.2.076.096.213.123.306.202-.01-.045.017-.124-.017-.144.27-.227.7.086 1.096 0 .08-.158.22-.258.434-.289.062.048.127.093.117.217.055.007.069-.03.127-.028.003.024-.017.028-.014.055.825.07 1.55.241 1.96.722.588.18 1.107.64 1.127 1.27-.09-.675-.502-1.029-1.07-1.225M27.96 1.272c.003.041.065.058.127.1.245-.09-.161-.358-.127-.1m1.238-.32C28.94.99 28.613.746 28.29.78c-.113.014-.316.107-.316.203-.007.144.196.083.213.231.058-.007.113-.09.076-.145.054-.038.13-.062.185-.1.293.062.605.107.935.131-.037-.14.22-.299.42-.333.048.103.103.206.099.36-.148.007-.288.104-.226.272-.19.127-.602.158-.825.045-.124.062-.224.151-.334.23.007-.055.124-.117.165-.185-.182.034-.326.226-.505.172.086-.02.116-.1.172-.159-.09.011-.138-.017-.221-.013-.037 0-.02.058-.027.1-.058-.01-.086.01-.086.058-.021-.014-.017-.048-.031-.073-.223.08-.461.152-.56.358-.158.127-.39.237-.447.464-.017.07.03.165-.041.217.01-.062.017-.25.013-.375-.034-.03-.093.031-.116.06.189-.314.45-.675.794-.882-.06-.127-.152-.216-.203-.347-.337.31-1.276.206-1.82.175-.02-.103.022-.247.045-.347-.103-.02-.22-.03-.316-.058-.082-.444.179-.774.564-.777.292-.007.626.055.963.072.44.017.894.038 1.268.07.045.033.049.11.09.143.423.066.78.248 1.066.478.027.021.086.051.072.086-.01-.02-.027-.028-.055-.03-.07-.008-.07.051-.103.071"/>
        <path fill="#696D70" d="M55.059.492c.073.079.23.069.348.103-.111.007-.18-.027-.286-.017-.034.05-.103.062-.13.117-.007-.038.05-.138.068-.203M56.056 1.4a6.181 6.181 0 0 1-.69-.087c-.135-.024-.041-.02.068-.014.175.011.389.076.623.1M28.245 1.846c-.014.028-.055.031-.068.062-.049.01-.032-.04-.076-.03.027-.032.117-.004.144-.032"/>
        <g transform="translate(0 .951)">
            <mask id="b" fill="#fff">
                <use xlink:href="#a"/>
            </mask>
            <path fill="#696D70" d="M27.224 19.33c-.106-.006-.055-.167-.162-.171h-.041c-.096.175.134.368.203.172zm-19.388.114c-.013.224.179.313.347.306-.006-.072-.037-.127-.058-.19.083-.05.189-.078.234-.171.007.055.017.104.055.13.117-.143.031-.425-.13-.405v.145c-.028-.024-.094-.011-.145-.014-.024.096-.213.127-.172.199-.017-.027-.114-.013-.131 0zM33.44 19.2c-.141-.093-.216.107-.32.145.018.003.035.024.018.027-.052-.02-.103.007-.162.017a.396.396 0 0 0 .375.303c-.003-.08-.038-.134-.055-.203.086-.048.182-.082.23-.172a.237.237 0 0 0 .059.086c.12-.124.027-.344-.117-.375-.038.03.01.145-.028.172zm-16.142-.172a.456.456 0 0 0 .076.262c.261.333 1.489.423 1.54-.09-.134-.058-.237.03-.258.13-.044-.051-.089-.106-.206-.085-.045.02-.048.082-.082.117-.039-.148-.238-.103-.307-.017.014-.176-.233-.124-.271-.072-.004-.066-.048-.09-.072-.128-.083-.003-.155-.003-.2.028.004-.06-.017-.083-.017-.131-.072-.027-.144-.09-.203-.014zm25.171-.086c0 .392.577.55 1.025.547.278-.003.594-.086.574-.375h-.145c-.045.028-.062.09-.096.13-.072-.106-.265-.044-.306.046-.031-.152-.227-.103-.286-.017 0-.17-.237-.128-.275-.073-.003-.062-.044-.086-.072-.127-.082-.003-.154-.003-.203.028.018-.1-.058-.117-.089-.172-.045.003-.103-.011-.127.013zm-24.707 0c.296.12.829.142 1.052-.03.028-.241-.305-.248-.333-.06a.135.135 0 0 0-.131-.1c-.055 0-.096.09-.144.09-.034-.003-.086-.1-.145-.102-.068-.004-.055.024-.144.044.007-.144-.193-.168-.255-.117.007-.072-.02-.106-.075-.113-.306.127-.034.306.175.388zm24.851-.302c.021.296 1.269.495 1.41.113-.107-.093-.323-.185-.371.03-.035-.154-.238-.095-.289 0-.014-.085-.066-.133-.172-.13-.049.014-.072.056-.1.087.017-.165-.186-.203-.261-.145.014-.068-.024-.082-.045-.113-.1.003-.175.079-.172.158zm-24.407-.347c-.148-.014-.382.024-.389.144-.01.227.702.285.795.1a.51.51 0 0 0-.406-.244zm24.782.072c.083.237.619.292.78.086-.079-.224-.649-.347-.78-.086zm-2.685 1.57c.516-.002 1.035-.047 1.605-.026.121-.097.379.065.444-.114-.289-.203-.561-.392-.777-.667a3.16 3.16 0 0 1-.505-.94.024.024 0 0 0-.014-.012c-.172.677-.489 1.189-.753 1.76zm11.383-.907c.038.079.093.214.217.172-.148-.34-.299-.732-.505-1.052.017.354.168.633.288.88zm-43.114-.78c-.086.01-.12.186-.158.289.2.05.272-.182.348-.303.054-.093.161-.158.113-.33-.004-.01-.01-.017-.027-.014-.114.097-.293.13-.276.358zm25.167-.072c-.078.01-.12.185-.154.292.22 0 .288-.148.344-.306.099-.055.127-.18.116-.344-.14.076-.313.13-.306.358zm-16.568-.127c-.038 0-.072.003-.072-.031.076-.007.076-.097.072-.186a.69.69 0 0 0-.306-.045c-.031.237.155.495.306.262zm25.154-.06c-.021-.013-.056-.013-.059-.04.079-.01.076-.1.072-.19a.797.797 0 0 0-.316-.044c.003.179.148.512.303.275zm-25.763.132c.128-.021.172-.3-.027-.32.014-.07-.031-.086-.045-.127-.031-.011-.072-.014-.099-.031-.031.186-.011.505.171.478zM8.5 17.746c.082-.021.062.062.131.055.096-.027.144-.107.185-.186-.165-.017-.281.014-.316.13zm33.233.303c.124-.021.175-.3-.028-.32.014-.072-.03-.086-.044-.127-.031-.011-.072-.014-.104-.031-.027.182-.01.505.176.478zm-8.021-.492c.013.072.017.155.075.189.08-.034.145-.086.155-.19-.062-.04-.151.008-.23 0zm-25.456-.492c.114.062.268.017.316-.07a1.666 1.666 0 0 1-.374-.071c.01.055.034.097.058.14zm25.167-.07c.11.053.282.026.316-.071a1.66 1.66 0 0 1-.371-.072c.007.055.038.096.055.144zm-25.658-.03c.144.03.271.014.288-.113-.127.014-.271-.034-.288.114zm25.229-.085c.027.006.041.034.085.027.011-.058-.024-.072-.017-.131-.062-.006-.075.038-.068.104zm-25.69.099c.144.148.446-.01.316-.23-.083.103-.282.082-.316.23zm8.279-.127c.106.01.288.086.275-.086-.069-.096-.31-.11-.275.086zm23.582.028c-.11-.021-.237-.035-.303-.104-.044.052-.138.079-.23.045.01-.051-.017-.062-.028-.086h-.103c.004.055-.003.107-.027.13-.055-.027-.169.004-.217-.03-.007-.045.028-.048.014-.1-.034-.02-.048-.058-.113-.045-.018.08-.128.032-.19.032.007-.021.021-.038.028-.06-.141.018-.21.108-.258.218.041.01.038-.021.072-.014.196.127.581.062.794.172.007-.028-.017-.096.014-.1.089-.007.124.038.217.028-.007.034 0 .055.014.072.12.01.147-.076.271-.06.062.118.272.153.434.118v-.072c-.042-.038-.138-.024-.204-.045.014-.037.066-.034.059-.086-.052.007-.069-.024-.127-.013-.041-.083-.083-.172-.131-.248-.01.1.021.155.014.248zm1.602-.086c.055.006.127.006.213.013.028-.031.058-.058.045-.13-.1-.065-.296-.096-.258.117zm-31.892.027c.069-.07.196-.086.217-.2-.073-.171-.259.087-.217.2zm25.184-.19c.041.028.041.097.103.104-.014-.11.093-.096.1-.19a.183.183 0 0 0-.076-.068c-.034.055-.117.073-.127.155zm23.844-.343c.158.038.443.103.46-.1-.175.01-.354.018-.46.1zM18.34 16.17v.073c.082.034.127.17.244.175.103 0 .196-.083.213-.22-.178.01-.309-.09-.457-.028zm25.167.017c.086-.006.1.114.172.145.128.048.268-.048.289-.203-.141.03-.444-.168-.461.058zm-29.265-.13c-.062.155.065.24.23.217-.01-.07.021-.176-.014-.217-.058.04-.134-.021-.216 0zm-6.189.244h.158c-.037-.086.021-.182-.013-.258a.186.186 0 0 0-.128-.031c.021.09-.086.196-.017.289zm31.342-.186c.021.062.134.093.247.083-.01-.065.018-.17-.017-.213-.133.02-.275-.041-.23.13zm-6.216.072c.045.03.1.052.189.042-.003-.062.024-.275-.059-.303-.058.072-.092.169-.13.26zm-25.731-.32c-.062.149-.079.479.059.55.123-.04.189.018.275.059.003-.158-.118-.306-.09-.45.014-.07.096-.086.073-.158-.094.045-.204-.017-.317 0zm50.554.362c-.062-.141-.12-.292-.244-.375-.02.23.066.35.244.375zm-25.342.117c.068-.011.12-.024.189 0 0-.128-.106-.207-.059-.334-.01-.017-.055 0-.058-.027.052-.031.065-.1.058-.19h-.175c-.058.152-.069.454.045.55zm-14.337-.406c.117.017.186-.017.234-.072.01.134.213.14.285.058-.01.072.034.09.058.13.138.01.165-.085.231-.143-.09-.07-.224-.097-.317-.16-.027 0 .007.022-.017.029a1.435 1.435 0 0 0-.474-.072c-.035.062-.038.172 0 .23zm25.139-.1c.079.059.224.024.262-.044.014.134.216.14.289.058-.007.065.023.1.055.13.144.01.175-.085.233-.157a1.997 1.997 0 0 0-.807-.19.592.592 0 0 0-.032.203zm-36.361-.103c.11-.1.285-.024.406-.07-.079-.23-.392-.047-.406.07zm26.208-.041c.021.02.073.01.114.014.007-.083.004-.16-.041-.186h-.1c.017.048.004.127.027.172zm-25.053-.06c-.11-.043-.268-.184-.361-.04.014.072.038.134.1.158 0-.041.006-.075.031-.086.044.01.086-.048.099-.017v.103c.024.028.073.035.131.028v-.145zm33.552 0c-.023-.095.042-.11.025-.198-.203-.107-.162.169-.025.199zm-34.69-.071c.175.024.313-.165.158-.258-.052.086-.134.148-.158.258zm-.189-.158c.196.045.316-.158.172-.244-.042.096-.148.127-.172.244zm25.167-.072c.196.052.302-.151.162-.23-.042.089-.138.12-.162.23zM7.823 15.06c.055.048.096.103.216.086.035-.028.09-.11.041-.172-.079.034-.244-.014-.257.086zm25.383.014c.035-.028.093-.11.045-.172-.289-.021-.326.172-.045.172zm-16.193.044c.199-.075.447-.11.619-.216.003-.052.092-.155.041-.172-.193.158-.516.185-.66.388zm-9.06-.258c.076-.02.11 0 .2 0 .024-.02.017-.065.017-.103-.086-.065-.234-.02-.217.103zm34.254.186c.176-.093.437-.103.592-.217.007-.051.106-.147.045-.171-.172.158-.554.185-.637.388zm-.993-.388c-.014.17.027.416.131.519.006-.176.072-.557-.131-.52zm-25.04.577c.083-.361-.107-.691-.23-.88.106.26.051.688.23.88zm-8.207-1.344c-.069.034-.041.165-.158.144.017.172-.034.337 0 .478.12-.01.138.117.316.086.134-.192.083-.426.086-.722-.096-.01-.154.02-.244.014zm25.171-.07c-.069.035-.045.159-.162.145.011.155-.007.289-.014.434.117.017.155.144.262.14.23-.003.127-.47.158-.735-.1-.01-.155.02-.244.017zm31.644-.346c.004-.083.004-.158-.044-.19h-.1c-.01.12.038.186.144.19zm-39.101-.42v.045c.161.168.519.22.763.258-.22-.127-.478-.292-.763-.303zM7.537 11.674c-.127-.062-.244-.2-.436-.144v.027c.051.45.203 1.052.23 1.53.01.179.007.269.158.303-.014-.076.014-.107.089-.09v-.357a.159.159 0 0 0 .145-.045c-.024-.447-.11-.832-.186-1.224zm25.167-.075c-.133-.048-.237-.203-.433-.145v.03c.056.45.203 1.06.231 1.528.01.182.003.27.158.306-.018-.076.014-.107.089-.086v-.361c.072.01.11-.011.141-.045-.024-.447-.11-.835-.186-1.227zm-.144 2.743c-.007.052.024.069.028.114a.382.382 0 0 1 .172.172c.02-.025 0-.093.03-.114.121.11.093-.172.069-.23.093-.041.031-.341 0-.447-.055-.017-.172-.086-.227-.014-.048-.103-.234-.113-.316-.131a3.207 3.207 0 0 1 .011-.433c.01.004.058.035.058 0a.412.412 0 0 1-.041-.144c.02 0 .047.003.041-.028-.038-.43-.124-.808-.172-1.227-.317-.224-.784-.292-1.111-.506.471 1.01.935 2.029 1.458 2.988zm-1.643-3.421c.093.3.361.42.663.519.165.055.341.14.488.13.062-.04.066-.136.059-.243-.413-.131-.787-.378-1.228-.433.014.003.018.01.018.027zm-17.239.925c.017-.041.034-.045.014-.072a4.572 4.572 0 0 0-.763-.836c-.032-.051-.056.056-.073.014v-.144c-.223.007-.247.158-.375.302-1.096 1.242-2.231 2.469-3.276 3.707.034.013.065-.052.076-.014a.499.499 0 0 0-.118.402c.059.028.111.11.172.086-.041.045-.054.134-.013.189.165.052.491-.007.691.072.089-.072.186-.01.306-.013.051-.004.107-.035.144-.031.096.01.206.082.303 0 .481.106 1.072-.014 1.643.058.048-.007.076-.038.127-.041.303.027.747-.031 1.087.027a.955.955 0 0 0 .11-.058c.409.038.901.04 1.317-.041-.038-.492-.1-1.06-.289-1.472 0-.024.038-.014.031-.045-.158-.36-.237-.8-.478-1.08.01-.03.037-.047.014-.071-.193-.33-.372-.671-.605-.956-.039-.017-.045.059-.059.017h.014zm.939 3.734c-.045 0-.1-.031-.145-.028-.038.004-.072.042-.117.045-.141.004-.289-.034-.429-.031-.059.004-.114.042-.176.042-.058.003-.117-.031-.175-.028-.052.003-.103.045-.155.045-.141 0-.275-.055-.419-.045-.062.007-.11.04-.173.045-.047 0-.109-.028-.175-.028-.041-.003-.103.03-.141.028-.048-.004-.068-.045-.117-.045-.054.003-.096.04-.148.045-.037.003-.092-.031-.14-.028-.052 0-.093.028-.131.028-.117-.004-.234-.073-.347.013-.09-.061-.22-.027-.344-.013-.096-.052-.114-.055-.203 0-.117-.042-.254-.06-.361 0-.076-.066-.206-.042-.289 0-.165-.048-.467-.076-.591 0-.103-.131-.395.003-.361.086.426.024.746.137 1.141.203 1.025.17 2.015.374 3.071.488.127-.145.189-.358.347-.475.1.045.234.09.316 0 .055.182.392.065.578.13.072.025.076.097.127.073v-.564c-.148-.038-.299.024-.443.014zm24.245-3.878a4.7 4.7 0 0 0-.763-.836c-.031-.051-.052.055-.076.014.028-.048.007-.1-.01-.144-.203.024-.244.15-.361.285-1.069 1.224-2.173 2.43-3.187 3.638-.011.034-.024.065-.017.113-.114.03-.12.23-.117.334a.339.339 0 0 0-.096.04c.093.008.23-.023.285.018-.045.096-.089.206.014.275.124-.06.313.038.55 0a.45.45 0 0 1 .099.055c.22-.1.571-.014.853-.014.11 0 .234-.07.303.028-.111.103-.327-.045-.461.044-.186-.092-.519.045-.736-.058-.051.004-.051.055-.117.045-.172-.076-.333-.024-.402.113.423-.038.712.169 1.152.158-.004.02.034.042.058.045.925.172 2.025.347 3.029.478.131-.145.186-.365.344-.478.093.055.237.086.32 0 .099.21.584.03.708.217v-.564c-.248-.062-.502.024-.722.017-.052-.004-.086-.031-.131-.031-.065.004-.123.048-.185.045-.052-.004-.097-.045-.145-.045-.051.004-.106.04-.158.045-.192.01-.402-.07-.591.013-.045-.013-.065-.051-.134-.044-.062-.007-.059.055-.128.044a.413.413 0 0 0-.347 0c-.185-.054-.395-.017-.601.014.003-.031.034-.027.041-.058-.117.013-.251.01-.334.058-.113-.106-.354.062-.447-.072.093.014.11-.041.172-.055.1.082.238.017.347.028.035.003.08.04.114.04.017 0 .072-.04.089-.04.073-.014.155.017.231.013.041 0 .086-.031.127-.027.048.003.086.045.134.04.045 0 .103-.044.155-.04.048 0 .089.027.134.027.055-.003.11-.038.168-.041.117-.01.248.04.361-.017 0 .034.014.045.045.045.278-.025.557.006.825-.045.038.017.083.03.127.045.241-.097.626.03.853-.087-.065-.477-.124-1-.261-1.444-.014-.03-.093.007-.1-.027.041.01.035-.021.072-.017a4.13 4.13 0 0 0-.419-1.066c-.007-.034-.059-.021-.076-.041.042-.004.059-.024.062-.06-.206-.325-.378-.68-.619-.965-.038-.02-.044.055-.058.014.041-.021.041-.048.027-.072zm24.133-1.111c-.093.01-.076-.086-.186-.058-.093.168.199.275.186.058zm-50.933-.216c.086.117.241.247.419.144-.11-.076-.264-.292-.419-.144zm25.17-.1c.062.144.234.275.42.172-.12-.086-.223-.251-.42-.172zm-6.13 2.582c-.003-.048-.103-.12-.13-.19.01-.027.068 0 .072-.03-.051-.014-.079-.055-.145-.055-.405-.444-.639-1.062-.997-1.561-.003-.031.031-.027.018-.07-.182-.287-.3-.645-.492-.924-.371.327-.897.609-1.152 1.039a2.515 2.515 0 0 0-.736.907c-.257.265-.412.629-.574.984-.007.055-.02.05.01.086-.109.037-.178.244-.144.333-.041-.003-.048.024-.072.04-.062-.006-.131-.06-.189-.026v.027c-.007.097.11.076.161.13-.45 1.077-.502 2.958-.099 4.182.031-.004.058-.017.082-.028-.007.04-.065.038-.055.1.11.375.251.722.419 1.042.035 0 .042-.024.073-.031-.011.034-.058.03-.045.086.182.34.354.694.622.952-.013.01-.034.083 0 .086 0-.014.025-.017.028 0 .234.299.467.602.76.839.007-.014.051-.045.048-.017-.034 0-.01.05-.014.072.145.103.265.234.402.347.186.159.44.265.578.447 0-.017-.003-.041.014-.041 1.231.928 3.679 1.44 5.669.88.021-.02.014-.065.014-.103.041.007.035.062.072.072.788-.258 1.506-.588 2.091-1.052.003-.051-.042-.051-.042-.103.042.02.055.069.1.089.278-.247.598-.454.822-.75.034-.006-.017-.04-.014-.057.028.006.034.03.072.027.124-.186.334-.292.403-.533-.08-.107-.203.007-.303 0-.1-.007-.206-.082-.303 0-.316-.072-.673.028-.979-.06.031-.022.048-.064.099-.071.048.018.069.038.117.045.437.052.866-.076 1.269.014.065-.031.161-.066.23-.014.052-.11.186-.21.172-.333.024.017.038.017.059 0 .199-.32.402-.637.549-1.011-.02-.014-.054-.011-.058-.042a.224.224 0 0 0 .086.028c.114-.344.255-.657.347-1.025h.1c-.027-.065-.117-.075-.158-.127.065-.014.086.017.141.014-.014-.09-.093-.114-.141-.172.361-.07.124-.67-.172-.433-.007-.028.038-.072 0-.09a.993.993 0 0 0-.175.406c.02.034.103.079.086.103-1.407-.216-2.782-.46-4.24-.622v.189c-.044.017-.123.014-.185.014-.014-.041-.038-.072-.059-.1-.251-.065-.44-.19-.694-.248-.007.025.02.087-.014.087-.151-.124-.22.123-.185.23-.042-.031-.097.014-.145.017-.014.024.041.048 0 .055 0-.024-.014-.038-.031-.041.017.158.076.278.072.46.162.114-.01.293-.031.46-.003.053.014.11 0 .163-.068.368-.54.502-.591.877-.203-.028-.086.278.048.144.031-.045-.014-.162.069-.158-.01.13.093.148.161.203-.058.113.049.179.069.258-.086.01-.11.15-.058.216-.127.045-.203.23-.127.392.168-.055.46-.02.591.014-.069.14-.286-.028-.419.04-.135-.044-.296-.026-.451-.026-.313-.004-.639-.076-.918-.145v-.117c.151-.055.344-.258.155-.402.038-.117.065-.244.117-.347.209.01.12-.272.347-.244a.27.27 0 0 1 .086-.186c.003.014.052.072.044.014.059-.231.317-.262.276-.592-.169-.031-.354-.13-.523-.072-.007-.041.031-.031.031-.058-.103-.011-.158-.124-.244-.103.11-.062.299-.07.402 0-.051.11.148.172.275.189.035-.06.017-.152.028-.203-.076-.076-.255-.048-.303-.014-.034-.151-.031-.175.031-.303.024-.003.031.018.055.014.034-.014-.031-.065.014-.086.086-.006.137.018.203.03.024.214.333.135.461.073.023-.061-.073-.003-.073-.044.052-.017.103-.031.131-.072-.248-.035-.402-.165-.691-.16 0 .039.01.084-.031.087.007-.061-.024-.09-.055-.116-.083.068-.203.05-.302.103-.045.02-.069.068-.118.086-.161.05-.364.003-.46.17.147.163.436-.036.663.032-.092.03-.199.049-.247.128-.018-.042-.059-.062-.128-.06-.017.063-.068.09-.058.177-.007.04.076-.014.069.027-.055.1-.165.148-.186.289-.093.04-.254.024-.303.117-.061-.042-.178-.021-.23-.072.011-.038.014-.083.045-.1.103.017.093-.083.172-.09.055.01.058.069.114.073.085-.07.023-.213-.011-.29h-.09c.018-.027.018-.064.032-.1-.217-.1-.035-.233.013-.374.011-.034-.01-.082 0-.116.035-.155.148-.186.131-.276-.017-.058-.124-.08-.131-.127.103.073.248.148.217.275.178.117.347-.051.388-.202-.092.044-.137-.004-.23-.032.007.055-.007.093-.041.104-.089-.052-.193-.09-.261-.162.02.024.072.014.116.017.031-.065.128-.141.114-.203-.083.052-.268.083-.333.014.071.014.206-.096.391-.041-.024-.193-.34-.19-.433-.117.027-.151-.179-.213-.203-.072.062.034.1.093.186.103-.069-.007-.041.089-.1.1-.034-.011-.086-.042-.117-.014.007-.021.025-.028.018-.06-.069-.005-.1-.057-.19-.043.118-.076.042-.265-.058-.303.028-.093.062-.18.193-.203v-.127h-.104c.045-.027.031-.113.055-.158.117.027.086.206.131.303.041-.014.038.02.072.013.014-.086.159-.024.159-.144-.059-.01-.121-.024-.159-.06.024-.057.09-.074.131-.112-.048-.045.02-.168-.086-.175-.069 0-.059.075-.117.089-.007-.034-.079 0-.072-.045.041-.096-.01-.165-.042-.23.042 0 .042.045.1.027.059-.034.08-.103.145-.13-.073-.031-.086-.127-.158-.158-.282-.795-.764-1.393-1.097-2.135.045.055.093.11.216.089zM7.304 18.062c.02 0 .051-.003.058.014-.103.038-.254.024-.306.113-.059-.034-.179-.017-.227-.068.007-.038.011-.083.041-.103.093.027.076-.05.117-.07.038.059.1-.034.172.056.083-.07.024-.213-.017-.29h-.086c.024-.02.007-.078.031-.1-.206-.067-.051-.188 0-.346.014-.045 0-.106.014-.144.041-.114.158-.196.144-.29-.048-.02-.134-.082-.127-.112.062-.021.089.006.169 0 .034-.066.13-.141.116-.204-.044.052-.058.004-.086-.027.062.007.083-.027.114-.045-.003-.12-.196-.055-.155-.216-.158.007-.21.11-.247.158.044-.213-.224-.206-.244-.055.12-.021.13.065.23.069-.055-.007-.045.05-.072.075-.038-.037-.042-.103-.087-.13.004.065.038.099.042.158-.107-.021-.148-.158-.272-.117.079-.024.035-.175.086-.23-.055-.05-.137-.073-.158-.16-.017.015-.072.063-.089.029.11-.035.185-.107.288-.141.032-.113-.044-.113-.086-.162.052-.006.011-.106.045-.127.1.045.09.196.128.303.041-.014.041.02.075.014.017-.076.151-.038.172-.145-.058-.021-.155 0-.158-.072.058-.028.179-.217.027-.275-.062 0-.068.058-.1.086a.39.39 0 0 0-.113-.028c.076-.058.017-.151 0-.23.035.003.052.024.097.014a.607.607 0 0 0 .103-.158c-.031-.028-.062-.056-.073-.104a.42.42 0 0 0 .159.03c.034-.01.024-.061.089-.043.007-.05-.02-.134.014-.16.062.032.168.019.199-.026-.014.082.107.027.158.04V14.7c.096.013.048-.052.072-.086.007.03.007.062.045.058.011-.024-.017-.086.014-.086.034.007.038.062.072.028.038-.093.024-.162 0-.258.1-.07.028-.323 0-.464-.227-.004-.364-.117-.56-.127.027-.124 0-.306.027-.434.007.004.055.035.059 0a.435.435 0 0 1-.045-.144c.021 0 .051.003.045-.028-.038-.43-.131-.807-.176-1.227-.264-.151-.543-.292-.894-.361 0-.027-.037-.017-.027-.058-.643-.241-1.427-.39-1.499-1.183-.014-.113.027-.285-.031-.39-.227.084-.416.21-.56.376.027.004.027.038.041.059-.038-.014-.048-.06-.086-.073-.31.262-.691.52-.894.836a2.69 2.69 0 0 0-.722.91c-.028.025-.028-.013-.055.015-.193.33-.403.636-.536 1.024.017.007.03.014.044.028-.185.017-.117.289-.234.375-.061-.004-.103-.038-.154-.06a.168.168 0 0 0-.045.1c.055.025.113.042.158.076-.034.22-.172.413-.144.647-.238.622-.258 1.554-.172 2.352.01.027.079-.004.086.027-.034-.003-.055.003-.073.017.083.922.32 1.609.682 2.263 0-.025.044-.007.054-.028-.01.034-.054.03-.045.086.183.344.355.694.623.952.199.372.488.657.794.925 0-.01.045-.045.041-.017-.03 0-.006.055-.013.072.285.22.515.499.863.65.051.04.085.175.144.117.289.21.612.388.98.519 0 .017-.021.028.017.028.323.13.818.333 1.138.319-.004.048.031.035.045.04.192.09.505.129.749.146.956.072 1.96.058 2.727-.186.031-.013-.004-.092.031-.103.031.01.017.069.055.072.787-.261 1.581-.595 2.09-1.083.34-.137.615-.471.894-.722-.02-.01-.02-.044-.024-.068.017.013.051.013.069.027.148-.18.336-.32.433-.55-.516-.031-1.018.007-1.53-.014-.004-.031-.069-.007-.055-.058.048-.07.127-.017.186.017.096-.034.268-.08.364.014.086.024.086-.045.155-.042.227.052.564-.068.736.056.051-.06.165-.09.244-.045.041-.11.227-.2.147-.344.018.014.049.014.069.03.213-.315.413-.65.564-1.024-.017-.017-.055-.013-.059-.044.028.01.052.024.09.027.11-.34.251-.66.344-1.024h.1c-.028-.066-.118-.076-.155-.128h.141c-.031-.08-.1-.123-.172-.158.124-.045.23-.117.23-.233 0-.172-.251-.324-.419-.231.051.017.051.059 0 .072 0-.044-.004-.09-.028-.113-.027.034-.01.113-.058.13-.069-.1-.248-.106-.361-.044-.055-.038-.096-.162-.158-.145.024.035.02.093.027.145a.519.519 0 0 0-.199-.028.46.46 0 0 0-.103-.19c-.008.032.017.097-.014.1a1.697 1.697 0 0 0-.333-.027c-.025.035-.011.104-.042.13-.048-.033-.168.005-.213-.03-.011-.045.024-.048.01-.1-.099-.096-.34-.055-.46-.13.044.13-.09.189-.014.302.285.028.557.062.808.117.003-.044-.055-.048-.014-.086.1-.01.151.03.244.028v.072c.127.017.151-.07.272-.058.082.164.285.12.505.144.024.052.093.134.09.16-.227 0-.358-.054-.551-.088a81.315 81.315 0 0 0-2.884-.433c-.076-.01-.124-.021-.172.017-.244-.127-.681-.137-1.038-.103.12.05.302.034.405.103v.072c-.048.018-.109.014-.175.014-.179-.196-.498-.244-.763-.347-.007.02.014.075-.018.072-.172-.07-.236.107-.172.244-.047-.024-.099-.003-.144.017-.038.018.035.076 0 .086-.003-.014-.027-.075-.041-.031.031.134.072.255.072.42.051.017.062.082.055.158-.034.027-.038.086-.072.117.045.6-.354.766-.591 1.097a.365.365 0 0 0-.014.127c-.069-.014-.083.024-.114.044-.034.138.121.159.172.086-.01-.082-.02-.13.059-.144-.007.052.007.083.013.117.038.04.114.04.145.086-.055.11.045.179.072.258-.107.024-.086.137-.072.247-.186-.003-.141.2-.131.36.176-.057.468-.016.606.015-.069.14-.262-.038-.416.058-.094-.106-.21-.017-.32-.013-.042 0-.076-.041-.117-.045-.062-.003-.131.034-.2.027-.213-.023-.508-.12-.735-.158.017-.206.233-.21.274-.392-.058-.027-.082-.086-.116-.14.037-.11.072-.217.099-.334.224.024.141-.254.348-.244.041-.06.068-.134.1-.203.017.02.017.055.044.058.042-.257.32-.278.275-.62-.1.008-.192-.067-.289-.088-.065-.01-.148.038-.189-.027 0 .024.004.048-.027.044-.059-.072-.107-.151-.234-.161.137-.045.409-.107.395.072.079.05.155.113.289.117.034-.06.017-.151.024-.203-.065-.041-.189-.08-.271-.027-.017-.052-.055-.08-.059-.145.096-.058.069-.161.13-.258.004.09.162.03.2.086.028.052-.01.096.017.13.169-.013.327.02.448-.09-.011-.023-.069.005-.073-.026.045-.021.09-.038.117-.072-.241-.041-.389-.172-.681-.158-.024 0-.007-.042-.028-.045-.15.065-.35.082-.46.189-.251-.003-.385.117-.55.203.21.096.53-.004.722 0-.12.062-.213.134-.375.082.007.086-.065.09-.041.19.041-.004.103.01.127-.014-.113.089-.21.196-.302.302zm29.973-8.193c-.052.158.196.176.172.028-.02-.045-.124-.062-.172-.028zm-21.161.145c.003.065.01.134.03.185.062.014.083-.017.141-.013a.722.722 0 0 0-.068-.344c-.011.079-.031.15-.103.172zm-10.311.952c-.093-.11-.234-.134-.334-.23-.189-.19-.254-.464-.271-.822-.093-.041-.148-.296-.248-.19-.086.028-.168.063-.213.132.003.364.024.814.227 1.024.23.234.646.26.966.402.137.062.248.138.433.203.261.09.657.354.591-.086-.388-.137-.729-.326-1.151-.433zm50.31-1.516c-.024-.028-.073-.035-.103-.055.041.058.03.172.072.23.151.01.285-.155.158-.247a.418.418 0 0 1-.127.072zm-43.448-.114c-.065-.02-.068-.103-.172-.086-.124.2-.351.303-.316.664-.021.02-.082.003-.072.055v.072c.027.04.106.03.172.03.02-.1-.032-.133-.086-.157.099-.23.209-.457.491-.505-.031 0-.006-.052-.017-.073zm-.818 1.11c0-.116.051-.236.01-.346a.35.35 0 0 0-.114-.042c-.481-.436-1.186-.643-1.873-.866-.21.636-.389 1.296-.505 2.018-.021.045-.083-.031-.073.028-.134.612-.368 1.127-.433 1.805.117.027.017.27.1.333-.079.134-.286.145-.475.172.01.179 0 .337-.202.303.03.189-.069.364-.028.519.014.058.069.089.069.144 0 .052-.076.1-.041.13.099.015.168-.075.202-.071-.003.12.076.15.203.144a.327.327 0 0 0 .1-.162c.849-.866 1.822-1.99 2.654-2.925.213-.245.736-.595.272-.894-.086.03-.096.075-.186.013.007-.037.045-.044.045-.085-.186 0-.258-.221-.159-.303.069.003.114.027.172.04 0 .042-.01.097.014.118.127-.007.176-.096.189-.217-.082-.058-.158-.123-.306-.116.059-.038.079-.104.19-.086.099.075.123.22.175.347zM6.18 9.306c-.035-.017-.052-.055-.118-.041a8.308 8.308 0 0 0-.763.289c.021.419.014.763.172 1.007.172.262.502.34.839.447.217.073.413.196.619.23-.141-.68-.193-1.45-.375-2.09-.141.042-.354.004-.374.158zm3.345-.144c-.076.278-.169.56-.244.839-.079.282-.159.567-.231.849-.151.567-.34 1.128-.436 1.733-.111.055-.073.25-.086.402a.575.575 0 0 1 .189.316c.133-1.158.481-2.083.749-3.101.086-.33.227-.67.234-1.052-.072.007-.141-.041-.175.014zm26.538.302c-.34-.11-.667-.244-1.024-.343a16.704 16.704 0 0 0-.519 2.032c-.038.017-.062-.045-.055.013-.137.619-.371 1.135-.433 1.819.003.035.079 0 .072.045a.311.311 0 0 0 .041.27c-.041.039-.062.105-.113.132-.103-.065-.224.069-.378.045a.676.676 0 0 1-.028.275c-.048.014-.093.038-.175.027.006.22-.042.379-.011.592.048-.004.093.003.114.03-.086.01-.073.128-.131.173.113.02.193-.07.231-.073-.011.14.151.117.103.217.024-.058.089-.076.144-.103.217-.327.495-.591.781-.894.67-.725 1.399-1.637 2.059-2.307.12-.12.354-.268.351-.461-.007-.137-.121-.203-.207-.288-.075-.014-.051.072-.127.058-.021-.083-.131-.141-.144-.203.199-.041.309-.172.446-.275-.171-.003-.216-.131-.374-.144a.186.186 0 0 1 .1-.086c.079.013.182.079.247.058-.251-.265-.598-.43-.97-.578.004.038-.006.059-.027.073 0-.042.024-.062.027-.104zm-4.73-.23c.007-.044-.031-.044-.072-.041-.2.048-.372.117-.547.186.017.17.237.38.117.509-.1-.107-.227-.018-.337.027-.011.633.409.839.87.994.251.086.498.192.732.257-.138-.68-.185-1.45-.375-2.086-.148.03-.344.013-.388.154zm6.216.017c.01.179-.22.189-.158.375.151-.02.165-.175.275-.23.162.01.237-.062.271-.176-.058 0-.089.035-.158.03-.055-.04-.034-.153-.099-.188-.014.09-.014.244-.131.189zm-2.854-.161c-.079.278-.168.56-.247.839-.079.285-.155.57-.231.849-.151.567-.337 1.128-.43 1.733 0 .038-.082-.014-.058.04-.01.125-.041.224-.027.362a.638.638 0 0 1 .182.32c.148-1.156.474-2.104.753-3.12.089-.332.244-.673.216-1.051-.034.04-.134-.038-.158.028zm-4.283.089c.037-.003.092.007.113-.017.01.048.041.079.086.089.055-.192-.22-.323-.199-.072zM7.029 9.034c-.09.05-.262.024-.317.113.11.722.241 1.434.344 2.163.13.044.213.13.392.117a13.471 13.471 0 0 0-.419-2.393zm24.85.045c.117.718.244 1.43.347 2.159.128.044.21.127.389.116-.058-.862-.23-1.615-.402-2.365-.148-.007-.265.017-.334.09zM7.201 9.017c-.021.278.116.539.161.78.041.254.045.509.086.75.117.71.31 1.406.375 2.166.013.027.065.017.086.04-.059.375.247.138.161-.13h.2c.037-.055-.004-.196.055-.23.051.034.034.144.134.13.289-1.165.653-2.258.935-3.434a6.171 6.171 0 0 0-.808-.1c-.007.024.017.086-.014.09.004-.038.004-.073-.014-.09-.443-.062-.931-.01-1.357.028zm25.259.446c0 .056.052-.034.059.018.038 1.172.378 2.042.475 3.156.01.038.085.01.085.059-.027.075-.017.158.031.202.138-.02.131-.182.128-.347h.202c.038-.055-.003-.193.059-.23.051.027.02.13.096.13.158-.258.162-.57.251-.852.258-.84.499-1.7.719-2.582a6.348 6.348 0 0 0-.808-.1c-.007.03.017.096-.018.1v-.1c-.388-.048-.828-.024-1.21.014-.027.01.004.082-.027.086-.025-.052-.049-.104-.1-.128-.045.203.007.423.058.574zm29.651.709c-.038.065-.038.034-.011-.028-.921-.612-1.928-1.096-3.303-1.227-.031.003-.042.03-.059.045v-.06a6.521 6.521 0 0 0-1.21 0c-.007.029.017.087-.014.087v-.072c-.45.027-.915.038-1.183.244-.031-.093-.141-.007-.202 0-.028.165.106.175.23.144.013.179-.083.447-.285.406-.017.062-.032.124-.104.13-.034-.023.007-.116-.041-.116-.1.093-.299.065-.32.216-.01.076.093.234.158.348.069.12.128.237.172.33.695 1.385 1.341 2.919 2.08 4.198-.068.068-.003.123.014.216a.76.76 0 0 0-.158-.072c0 .107.045.176.114.217.051.007.068-.018.099-.031a.262.262 0 0 0 .148.144c0-.021-.007-.051.01-.055.024.09.11.117.117.23h.086c-.041.083.093.172 0 .186-.017.2.155.213.175.375.018.038.042-.024.056.017-.035 0-.028.048-.028.086-.017-.007-.028-.021-.058-.014.01.203-.324.172-.406.33-.162-.065-.364-.092-.416-.275-.058.028-.079-.055-.172-.072-.003-.127-.137-.124-.117-.271-.079-.055-.089-.11-.168-.145.055 0 .058-.055.055-.117-.131.024-.145-.068-.145-.172-.075-.017-.227.028-.23-.014.134-.058.392-.003.475-.144.017-.062-.069-.017-.059-.072.041-.01.113.02.13-.017-.061-.01-.106-.038-.171-.041-.451-.815-.946-1.661-1.341-2.483.038.103.117.213.244.145-.158-.141-.206-.4-.447-.461-.065-.127-.155-.234-.23-.347.006-.028.041-.025.027-.072a38.508 38.508 0 0 1-1.038-2.001c-.217.017-.317.15-.447.257-.368.176-.605.482-.921.705.009.059.054.079.068.13-.041-.01-.034-.068-.1-.058-.288.255-.519.554-.749.867-.045.024.038.044 0 .058h-.045a6.106 6.106 0 0 0-.56.966c-.024.048.052.059.01.072-.017-.006-.024-.017-.041 0-.265.482-.406 1.039-.547 1.616.021.028.103-.003.103.042-.409-.011-.797-.17-1.241-.186 0 .038.004.083-.017.1.378.079.77.14 1.142.23-.042.134-.107.382-.045.519-.048.01-.038.03-.041.059-.086.323-.025.715 0 1.069.027.457.096.91.202 1.238 0 .05.045-.028.042.013-.025.014-.031.038-.031.073.127.367.223.76.419 1.052-.007.02-.02.03-.014.062.203.33.348.718.619.979-.017.007-.027.018-.027.045.264.279.481.688.804.863 0 .028-.034.017-.027.058.832.77 1.794 1.41 3.042 1.76.007-.013.042-.064.045-.03-.003.02-.017.024 0 .045.427.096.873.175 1.358.216a.3.3 0 0 0-.072.158h.172c.021-.031.028-.08.055-.1.017.183.608.148.55-.044.275-.014.537-.041.794-.072-.01.034-.027.099 0 .13.176-.041.2-.068.403-.058.03-.014.02-.065.044-.086-.007.086.141.024.203.04.024 0 .007-.037.028-.04.326-.093.694-.076.808-.39a4.87 4.87 0 0 1 .316-.13c-.035.066.017.104.058.13a.404.404 0 0 0 .2-.188c.007.045.034.062.089.059.048-.045.062-.12.1-.176-.024-.006-.086.018-.086-.013.055-.011.086-.041.131-.055-.014.055.02.062.041.082.103.007.161-.031.148-.144-.021-.034-.059.034-.076-.01.186-.08.32-.214.478-.32.004-.052-.045-.052-.045-.1.049.01.072.103.117.072.296-.23.609-.436.836-.736.048-.01-.066-.047-.014-.058.038.007.041.04.086.04.233-.305.591-.57.722-.934.041-.003.027.024.058 0 .423-.626.784-1.31 1.008-2.135-.014-.007-.035-.014-.041-.027.048-.011.044.027.071 0 .062-.386.179-.716.186-1.156-.021-.006-.072.018-.068-.013.03.003.065.003.082-.014.089-.712-.014-1.64-.127-2.207-.014-.062-.09-.093-.103-.145.003.007.044-.044.044-.044.004-.06-.058-.193-.085-.29a6.595 6.595 0 0 0-.898-1.845c-.011.027-.048.027-.069.044.011-.038.062-.038.058-.086-.126-.161-.292-.354-.377-.505.075-.038.109.079.13.144.241.193.351.516.564.736.12.23.196.509.419.636-.02-.131-.02-.282-.157-.29.017-.023.013-.075.013-.116a.442.442 0 0 0-.107-.117c-.137-.374-.371-.653-.591-.952.021 0 .045.003.048-.014-.227-.062-.254-.4-.522-.374-.007.175.179.16.175.333-.395-.413-.76-.83-1.272-1.155zM31.549 8.989c.093-.007.111.055.203.045-.014-.048-.041-.086-.031-.158-.068-.07-.196-.004-.172.113zM6.726 8.903c.007.182.443.124.361-.058-.107.037-.285-.035-.361.058zm.619 0c.034.035.158.045.192 0v-.086c-.062-.051-.233-.051-.192.086zm24.638 0c.085-.01.127.028.216.014.027-.038.062-.072.059-.145-.124.014-.268.007-.275.13zM7.548 8.786c-.004.059 0 .107.03.13.097.015.142-.03.128-.13-.031-.02-.128-.02-.158 0zm.217-.014c-.052.176.24.176.188 0-.038-.024-.151-.024-.188 0zm50.712.073c.117-.007.189.027.302.017.031-.041.066-.072.062-.148-.165.014-.305-.007-.364.13zm-.877-.028c.1.079.217-.034.258-.103-.113.01-.275-.034-.258.103zm-1.485.389c-.165-.22-.162-.61-.478-.678.12.265.251.52.478.678zM14.977 8.18c-.367.36-.732.842-1.024 1.255 0 .065.096.065.059.13a.74.74 0 0 0-.362.13c.674.679 1.307 1.377 1.802 2.222.481.822.908 1.819 1.011 3.012.017.217-.007.423.117.523-.031.04-.072.062-.076.127.041.034.055.093.117.103.062-.062.052-.2-.031-.23.113-.031.12-.162.23-.19.031-.003.072.1.076.028.065-.141-.01-.265.041-.461.048.08.134.114.234.145-.674-2.238-1.42-4.528-2.111-6.794-.024.004-.079-.003-.083 0zm25.226-.1c-.282.224-.557.619-.822.936-.072.089-.254.244-.261.319-.003.079.11.117.045.172-.145-.024-.241.062-.347.117 1.289 1.3 2.592 2.885 2.812 5.236.021.214-.007.413.131.533.103-.048.12-.178.244-.203.082.104.158.22.247.317-.079-.217-.247-.43-.131-.72.052.046.179.139.231.087-.743-2.238-1.396-4.566-2.149-6.794zM10.36 7.373c-.052.196-.134.364-.141.605.966.2 1.709.626 2.479 1.025.031-.127.148-.17.199-.272-.024-.251.104-.35.248-.433.038.017.048.055.1.055.068-.096.206-.07.216.03.017.149-.502.396-.46.592.048-.007.089-.031.099.028.004.11-.099.11-.158.158.031.082.107.117.158.175.086-.058.258-.024.234.114.392-.351.729-.76 1.052-1.183-.227-.11-.54-.131-.78-.23-.01.013-.031.082-.042.044.028-.034-.007-.017-.013-.044-.54-.124-1.066-.265-1.602-.39 0 .163-.286.252-.389.132.127-.028.271-.034.33-.131-.471-.13-.99-.213-1.53-.275zM35.531 7.3c-.056.196-.138.364-.145.605.939.213 1.716.585 2.424 1.025.076-.093.217-.155.262-.303.013-.058-.008-.131.013-.19.038-.11.141-.171.244-.212.031.014.004.079.045.086.035-.072.121-.093.213-.1.162.24-.423.43-.419.69.051-.006.093-.03.103.029.017.134-.138.092-.162.189.049.05.131.065.135.158.099-.086.271-.035.271.1.378-.358.709-.76 1.039-1.166a20.584 20.584 0 0 0-2.421-.608c-.041.12-.296.233-.403.103.128-.024.269-.038.33-.131-.474-.131-.99-.213-1.529-.275zm-24.607.017c.299.04.757.172 1.011 0-.282-.093-.76-.138-1.011 0zm25.171-.072c.298.04.753.172 1.007 0-.278-.093-.756-.138-1.007 0zm-7.403.055c.09-.01.011.062.017.103.079.034.179.007.214-.041-.011-.103-.014-.141.03-.203-.126.004-.227.04-.261.14zm-18.549-.172c-.106.234-.23.45-.23.79.069-.037.11.01.162.032.065-.258.151-.495.185-.791-.034-.021-.061-.038-.117-.031zm-3.287-.014c.004.196.083.447.1.678.826-.11 2.012-.11 2.799.072.065-.251.137-.5.203-.75H6.856zm-1.746 0c.01.392.062.74.072 1.125.402-.1.743-.262 1.183-.32-.01-.292-.069-.543-.114-.805H5.11zm1.385.75c.097-.004.31-.01.361-.103-.075-.19-.075-.451-.157-.633a.687.687 0 0 0-.276-.027c-.01.288.059.498.072.763zm-1.932-.722c.024.443.059.873.086 1.313a1 1 0 0 0 .42-.19c-.014-.398-.055-.77-.09-1.151-.168.007-.299-.034-.416.028zm30.751-.086c-.1.24-.234.45-.23.794.065-.041.11.007.158.027.068-.257.154-.498.186-.794-.032-.013-.059-.037-.114-.027zm-3.187.663c.818-.11 2.011-.11 2.799.073.061-.258.137-.5.202-.75h-3.104c.007.196.086.447.103.677zm-1.846-.677c.006.392.058.739.072 1.124.402-.1.739-.261 1.183-.316-.014-.296-.073-.546-.117-.808h-1.138zm-.551.028c.032.35.028.735.09 1.052.162-.07.237.04.416.058-.014-.392-.055-.763-.086-1.138-.141.007-.323-.024-.42.028zm-.574.649c.035.048.097.066.086.158.035.01.104-.017.114.014-.004.045-.028.066-.042.1.114.065.128.227.258.275.182-.107.069-.464.059-.677-.131-.045-.268.079-.406.03-.024-.23.059-.357.045-.577h-.231c.062.203.035.492.117.677zm2.551.086c.083-.038.214-.027.289-.072 0-.258-.072-.447-.117-.663-.082-.021-.158-.052-.271-.042-.028.276.017.568.099.777zm-4.741-1.224c.214-.257.461-.498.63-.766.175-.272-.107-.626-.155-.85 0-.01-.004-.017-.017-.017-.53.14-1.094.244-1.63.378-.024.083-.127.097-.213.114-.059-.014-.048-.09-.121-.086-1.399.33-2.788.67-4.194.994-.055.137-.172.068-.275.072-.255.017-.564.144-.853.216-.859.22-1.757.42-2.596.609-.041.155-.175.127-.299.117-.509-.062-1.041.258-1.502.272.038.085-.069.133-.073.216-.007.127.152.364.203.519.196.547.354 1.135.475 1.688.137.217.189.53.275.808.069.217.148.43.22.647.137.447.254.904.402 1.313.011.034.072.038.024.086.059.007.141-.014.176.014-.186.055-.083.268-.028.45.093.323.224.732.347.953.038.04.097-.031.114.027-.189.045-.045.244-.045.388.055.01.144-.017.175.014a.406.406 0 0 0 .014.162c-.13.024-.265.05-.316.155.093.082.271.044.347.017v.172c.585-.031 1.007.103 1.396.275.65-.815 1.351-1.572 1.977-2.411.014-.072-.1-.072-.058-.13.058-.055.099.01.189 0 .282-.337.57-.66.818-1.025-.007-.068-.031-.08-.01-.154.048.003.082.02.144.01 1.399-1.674 3.015-3.531 4.459-5.247zm25.411-1.66c.107-.031.217-.09.276-.131-.231-.007-.433.01-.564.1.027.127.199.058.288.03zm-1.412.333c-.032.076-.114.097-.203.114-.155-.134-.382-.004-.619.058-2.448.619-5.006 1.193-7.413 1.774-.041.066-.11.1-.203.117-.247-.062-.608.1-.938.172-.296.062-.595.096-.763.244.195.533.398 1.1.546 1.66.052.193.076.406.144.589.041.12.107.213.145.333.251.863.512 1.764.791 2.51.023.038.134-.007.161.03-.185.049-.079.266-.027.444.093.32.223.719.33.939.027.062.113-.014.13.045-.178.055-.048.237-.044.388.048.01.134-.02.158.014.024.04.014.11.031.158-.131.028-.265.055-.32.158.089.079.269.048.333.018.031.034.007.113.014.17a2.916 2.916 0 0 1 1.4.277c.646-.815 1.351-1.575 1.973-2.411.01-.072-.072-.058-.069-.13.059-.042.114-.011.2-.014.292-.327.584-.65.825-1.024.01-.066-.096-.066-.048-.128.044-.055.086.02.175 0 1.454-1.695 2.981-3.555 4.473-5.281.169-.196.547-.54.636-.763.114-.3-.1-.598-.206-.835-.516.14-1.076.244-1.612.374zm-23.741-2.05c.038-.01.048.005.042.043.199.044.223-.094.257-.217-.148.014-.268.048-.299.175zm12.226.33c.227.33.303.758.423 1.17.117.406.254.822.375 1.21-.007.069.096.028.086.103.037.348.106.664.347.808 1.863-.412 3.793-.828 5.783-1.313 1.64-.4 3.324-.791 4.989-1.21.289-.076.76-.11.784-.375.01-.203-.183-.292-.217-.42.11-.096.357-.051.502-.144.089.066.168.028.275 0 .031-.024-.034-.123 0-.144.041-.066.134-.007.217-.045-.007.083-.041.138-.059.203.144.375.224.815.375 1.183.234-.076.447-.255.65-.317-.22.11-.416.24-.619.362.079.164.168.326.213.532-.045-.103-.155-.144-.258-.19.107.252.292.43.433.65.375-.466.736-.98 1.094-1.484.038-.055.092-.155.175-.158.038.086-.072.165-.117.216-.406.457-.853.984-1.141 1.57.182.448.251 1.002.522 1.36-.027.175-.024.543.131.632.065.014.117-.041.141.014.024.093-.024.117-.082.13.075.1.15.2.212.317.217-.065.42-.148.534-.317-.079.007-.183.08-.244.014-.097-.127.188-.182.044-.316a.29.29 0 0 0 .103-.103c-.058-.038-.076-.162-.189-.1-.048-.148-.172-.3-.089-.461.02 0 .041.004.045-.013.127.082.078.165.013.275.065.04.144-.007.203-.014.103.203.179.433.303.619-.004.058-.09.034-.1.086.048.192.12.36.244.474.006-.065.069-.003.113-.041-.024-.158-.096-.272-.154-.392.735-.247 1.585-.382 2.595-.358.059.01-.058.104.014.145 1.303.048 2.482.326 3.459.794.842.395 1.647.942 2.252 1.57 1.251 1.3 2.242 2.965 2.352 5.31.117 2.579-.887 4.41-2.063 5.766-1.101 1.275-2.534 2.159-4.442 2.585.385.13.869.107 1.327.13.131.004.409.035.474.028-.774.103-1.653.045-2.596.086-1.464.062-2.97-.014-4.339-.086.571-.093 1.314-.014 1.874-.117-3.366-.856-5.494-2.95-6.319-6.347-.045-.034-.103.042-.127.018-.22-.801-.203-1.847-.162-2.83.011-.07-.089-.024-.072-.1-.011-.061.034-.061.086-.058 0-.072-.038-.107-.072-.144a.284.284 0 0 0 .072-.245c.004-.051.083-.024.103-.058.561-2.224 1.695-3.871 3.359-4.992.01-.072.045-.117.076-.172.155-.004.217-.145.33-.203.069-.034.151-.031.213-.086-.045-.165-.096-.323-.244-.388v.086c-.038-.066-.203.003-.244-.06.034-.136.162-.181.258-.26-.017-.261-.196-.365-.303-.547.017-.18-.055-.268-.113-.375-.437.238-.647.705-.994 1.025.014.12-.059.155-.103.217-.052 0-.065-.042-.1-.06-.553.647-1.1 1.304-1.66 1.964-.21.248-.427.53-.633.722-.199.179-.372.43-.564.647-1.299 1.47-2.585 3.029-3.864 4.514-.014.103.086.1.054.217.018.058.059-.056.076 0 .224.378.427.777.416 1.385-.164-.024-.333-.048-.492-.086.032-.172-.061-.516-.171-.52-.134-.002-.162.283.017.317-.031.059-.103.069-.103.162-.059-.031-.141-.031-.203-.06.01-.191-.045-.318-.083-.463-.099.038-.213.09-.22.189-.007.11.1.11.117.189-.141.093-.251-.127-.361-.116-.106.01-.1.154-.23.158-.065-.035.11-.073.1-.145-.148-.02-.217.035-.303.072-.199-.027-.278-.185-.475-.158-.185.024-.302.255-.519.244.21.062.516-.106.647.073-.121.037-.303.013-.303.172.1.05.33-.004.32-.155.076.055.055.21.01.285-.051-.096-.051 0-.127.03-.086.005-.137-.026-.23-.016-.073-.076-.055-.237-.086-.316-.199-.028-.138.27-.09.347.221.32 1.186.03 1.444.316-.178 0-.089.25.059.244.099-.003.113-.11.172-.172.075-.006.11.025.185.014.066.007-.037.066-.01.13.059.235.306.076.313-.1.172.036.34.066.519.087-.389.976-1.176 1.77-2.565 1.674a1.408 1.408 0 0 1-.46-.116c-.296.037-.736.017-1.111.044-.069.004-.141.04-.203.04-.093 0-.199-.064-.288.019-.2-.055-.42-.031-.619.013-.265-.137-.344.059-.478.258-1.142 1.709-2.83 2.906-5.133 3.435.615.079 1.34.052 1.973.113.144.014-.038.018-.158.018-.351 0-.805.027-1.124.04-1.799.083-3.851.042-5.639-.04-.027 0-.031-.014-.017-.018.591-.041 1.179-.082 1.819-.072-.688-.23-1.372-.402-2.005-.691-.196-.093-.371-.216-.56-.333-2.18-1.31-3.875-3.428-4.026-6.722-.034-.73.065-1.32.158-1.946-.017-.058-.127-.003-.144-.031.027-.285.257-.591.13-.85.021-.04.031-.092.117-.071.003-.086-.059-.107-.072-.172.052-.017.096-.038.158-.045-.014-.038-.079-.103-.031-.158.017-.08.058-.01.117-.014.694-1.684 1.826-2.932 3.301-3.837-.173-.158-.231-.436-.344-.65-.072.09-.11.042-.262.045.032-.134.128-.203.19-.306-.103-.34-.334-.55-.406-.921-.481.302-.777.787-1.111 1.24-.041 0-.058-.026-.072-.057-.846.976-1.685 1.959-2.496 2.97-.117.028-.213.182-.344.334-1.217 1.399-2.393 2.815-3.634 4.239-.093.106-.237.258-.244.316-.017.13.124.237.186.347.189.35.333.753.33 1.255a4.08 4.08 0 0 1-.489-.086c.028-.175-.061-.515-.171-.52-.138-.002-.162.283.01.317-.028.059-.093.076-.1.159-.062-.024-.137-.035-.199-.06.007-.191-.048-.315-.086-.46-.175 0-.333.324-.076.348-.148.15-.275-.097-.388-.086-.1.007-.097.134-.217.144-.021-.014.052-.096-.014-.117-.116-.007-.175.076-.302.045-.065-.017-.089-.09-.158-.117-.093-.038-.165.014-.248-.041-.024.075-.117.082-.186.113-.048.059-.068.145-.175.145 0 .03.052.007.076.017-.165.082-.086.38.013.474.238.22.808.01 1.152.128.093.03.128.085.203.116-.264.162.213.389.231.073.069.013.13.034.216.027-.12.296.265.286.289.045.179.01.34.034.505.058-.371.96-1.134 1.77-2.524 1.67a1.639 1.639 0 0 1-.491-.112c-.347.02-.808.058-1.196.044.196-.175.646.056.791-.158-.286-.213-.571-.388-.791-.667-.217-.271-.355-.601-.502-.952-.193.66-.482 1.214-.767 1.777.151.014.282-.072.402 0 .052-.02.103-.031.144-.058.21.107.564-.08.695.045-.316.086-.681.003-.997.082-.254-.13-.354.059-.492.262-1.172 1.715-2.846 2.936-5.191 3.462.584.03 1.196.034 1.76.086a54.032 54.032 0 0 1-6.464 0c.551-.024 1.218-.148 1.675.027-.011-.08-.347-.127-.244-.227-.272.014-.519-.09-.822-.19a10.58 10.58 0 0 1-.636-.233c-.44-.165-.788-.395-1.124-.605a7.785 7.785 0 0 1-1.86-1.585C.812 19.744.104 18.16.004 16.044c-.03-.701.107-1.334.172-1.963-.034-.024-.106.034-.144.058-.017-.178.192-.512.189-.722 0-.072-.069-.106-.045-.171-.007-.06.045-.066.104-.06 0-.085-.059-.106-.073-.174a.268.268 0 0 0 .176-.1c-.011-.041-.1-.041-.045-.1.007-.048.082-.031.127-.044.822-1.94 2.204-3.318 4.054-4.226.01-.323-.038-.588-.042-.894-.165-.003-.257.062-.419.059-.017-.227.052-.365.041-.578-.388-.031-.804-.038-.921-.347.247-.117.523.01.777.058.271.052.543.086.852.072 2.218-.1 4.804.1 6.983 0 .066-.003.152.02.217 0 .203-.065.172-.53.474-.464-.116.262-.216.537-.419.712.072.103-.027.199-.045.299.055.107.2.093.289.117.702.182 1.489.378 2.255.505.114-.134.375-.264.344-.563-.02-.16-.099-.42-.244-.461 0-.031.062-.004.069-.028-.034-.21-.131-.361-.144-.591-.124.048-.327.079-.313-.058.003-.117.182-.07.258-.145-.172-.866-.485-1.585-.692-2.41-.319.23-.725-.08-.68-.52-.203-.078-.454-.047-.719-.041.024-.027.086-.02.117-.044-.113-.18-.402-.096-.622-.117-.062.007-.018-.09-.031-.127-.093-.182-.605-.29-.547.04.031.173.272.19.461.232.031.027-.224-.004-.289-.028-.055-.028-.034.086-.058.044-.307-.006-.255-.508-.011-.55-.189-.271-.67-.416-.684-.866 0-.244.137-.44.261-.62 1.07-.442 2.531.015 3.824.015.78 0 1.712-.32 2.193.162.114.11.282.402.189.619-.075.168-.319.137-.536.158-.141.013-.31.089-.478.13-.454.11-.98.258-1.324.475a.462.462 0 0 0-.361.13c-.013.055.031.083 0 .114-.113.055-.237.144-.405.175-.145.024-.348.004-.344.145 0 .05.268.26.33.27.089.018.151-.068.217 0 .288.775.494 1.634.752 2.439.004.048.062-.038.069.017-.01.289.11.443.162.677.051.052.134.072.171.145 2.108-.461 4.322-.956 6.434-1.458.68-.162 1.282-.285 1.976-.475.66-.182 1.303-.316 2.019-.491.416-.103.89-.172 1.124-.406.034-.251-.096-.344-.2-.461.11-.017.351-.178.506-.172.041 0 .079.049.127.045.103-.014.168-.096.144-.233-.23.006-.488.109-.677.202.004-.165-.121-.206-.117-.374.292 0 .42-.17.667-.217.076.168.107.443.33.419-.083.303.131.712.23 1.01.097.29.19.562.29.806-.018.05-.1-.06-.172-.042.034.214.254.35.34.52.089.16.127.374.192.56.059.186.128.37.172.564.403.124.877.168 1.355.144 2.235-.103 4.686.107 6.952 0 .175-.124.168-.502.464-.46-.017.154-.155.254-.22.388-.055.124-.062.25-.186.316.041.13-.041.203-.058.32.165.103.385.13.608.186.406.103.843.168 1.283.288.179.049.454.172.65.13.323-.071.481-.844.099-1.023.004-.031.063-.004.072-.028-.034-.21-.13-.361-.144-.591-.299.182-.457-.22-.058-.145a34.689 34.689 0 0 0-.705-2.468c-.269.23-.599-.035-.619-.286.079-.048.217.018.244-.103-.065-.041-.206-.1-.234.014-.024-.034-.014-.11-.041-.144-.079-.004-.203.03-.203-.06-.192-.006-.337.029-.533.018.028-.027.086-.02.114-.044-.11-.18-.399-.093-.619-.117-.059.007-.014-.086-.028-.127-.1-.176-.546-.262-.563-.018-.014.227.281.25.491.289.045.03-.251-.007-.302-.027-.038-.004-.049.02-.045.058-.32-.048-.275-.467-.041-.578-.193-.264-.664-.412-.664-.866 0-.251.138-.443.272-.62 1.069-.418 2.537.029 3.795.029.499 0 1.107-.141 1.613-.1.481.038.845.368.767.92-.152.142-.337.098-.533.118-.138.014-.307.093-.461.13-.464.108-.939.252-1.286.462-.265.003-.402.123-.533.258.062-.011.124-.018.172-.042a.582.582 0 0 1-.244.172c-.179.072-.55.01-.55.189 0 .083.117.079.175.128.096.085.158.305.313.13z" mask="url(#b)"/>
        </g>
        <path fill="#696D70" d="M55.826 4.098c-.275.1-.488.261-.636.492.02-.158.23-.25.32-.392 0 .068.199-.086.299-.158.282-.196.526-.444.722-.692.299-.374.587-.746.708-1.182v-.145c.017-.172.017.176.014.231-.076 1.004-1.138 1.385-1.589 2.063.007-.062.117-.145.162-.217M26.774 2.355c-.045.086-.027.29.086.33-.01.144.02.251.089.316.01.327.223.5.23.781a.447.447 0 0 1-.144.041c-.038-.165-.11-.302-.234-.388-.003.048.014.068.017.1-.13-.297-.247-.609-.271-1.008.158.024.175-.096.227-.172M56.359 6.464c.014-.007.028-.014.028-.027.746-.905 1.705-1.596 1.904-3.047-.048-.051.055-.374.014-.416.052.048-.034.334 0 .416-.065.74-.4 1.262-.75 1.733-.347.468-.721.922-1.151 1.314a.076.076 0 0 1-.045.04c-.021.02-.007.004 0-.013M55.059 4.531c-.268.241-.708.433-1.048.65.296-.213.718-.426 1.048-.65M39.495 8.052a4.2 4.2 0 0 0-.533.633c.069-.262.305-.482.532-.633M14.328 8.124a3.576 3.576 0 0 0-.534.633c.07-.262.306-.482.534-.633M31.694 15.826c-.07-.027-.113-.034-.172 0-.035-.034-.09-.045-.127-.072.024.017.299-.062.299.072M6.523 15.898c-.065-.028-.11-.035-.172 0-.035-.035-.09-.048-.13-.072-.018-.031.106.02.144.027.034.004.054-.003.058-.027.031.027.096.02.1.072M57.122 16.558c.01-.024.059.027.059.062h-.06c-.016-.035.043-.059 0-.062M31.377 17.08c.035-.116.182-.116.275-.171-.086.062-.172.127-.275.172M6.382 17.022c0 .048-.096.117-.175.127.003-.096.127-.072.175-.127M39.77 17.902c.055-.01.093-.034.158-.027-.031.054-.137.041-.158.113 0 .038.01.06.03.072-.047.041-.054-.117-.03-.158M56.995 17.96c.041.087-.065.149-.072.23-.034-.03-.096-.01-.103.029.02-.07.154-.144.175-.258M18.509 18.408c.103-.003.25.069.36.1.01.045-.023.045-.013.086-.076-.014-.127-.052-.2-.072-.02-.021-.02-.035 0-.06a.387.387 0 0 1-.147-.054M10.243 21.003v-.072c.134.046.258.02.392 0a.101.101 0 0 1-.014.072h.086c.021.032-.137.021-.117-.04-.12-.005-.223.085-.347.04M11.316 20.962s.007.014.01.024c-.003.014.007.017.007.017-.086.055-.261-.024-.368 0 .083-.154.299.117.35-.04"/>
    </g>
</svg>
