<svg xmlns="http://www.w3.org/2000/svg" xmlns:xlink="http://www.w3.org/1999/xlink" width="41" height="25" viewBox="0 0 41 25">
    <defs>
        <path id="a" d="M.966.625h1V1h-1z"/>
        <path id="c" d="M.19.622h1V1h-1z"/>
        <path id="e" d="M0 .05h40.966V25H0z"/>
        <path id="g" d="M.855.675h1V1h-1z"/>
        <path id="i" d="M.35.417h.616v1H.351z"/>
    </defs>
    <g fill="none" fill-rule="evenodd" opacity=".3">
        <path fill="#696D70" d="M6.156 17.211l-.014-.005a.03.03 0 0 1-.005.007l.02-.002M6.375 16.405c.01.009.022.012.033.017v-.001h.003v-.002c-.01-.002-.024-.009-.036-.014M6.514 18.872h.007s0-.002-.004-.003c0 0-.003 0-.003.003M5.89 17.026c-.177-.022-.35-.052-.526-.076.16.03.315.059.476.093.015-.007.036-.01.05-.017M7.919 18.942c-.005-.01-.003-.015-.007-.029-.007.024-.012.045-.02.067.01-.012.015-.026.027-.038M7.428 20.462c-.003.009-.003.016-.008.024l.04-.033c-.013.004-.02.007-.032.009M7.009 18.07c.007.003.012.003.012.003.007-.002.007-.005.009-.01h-.01s-.006.006-.011.008M12.534 21.031h-.016c.01.014.024.026.038.038-.007-.01-.014-.024-.022-.038M6.808 18.133l-.026.01c-.003.007-.01.014-.01.023a.54.54 0 0 1 .036-.033M6.899 18.146c.009.003.017.003.029.014-.003-.004 0-.007-.001-.01a.03.03 0 0 1-.007-.01l-.021.006M6.34 17.153l-.002.004c.005.003.01.017.014.027l-.012-.031M7.344 20.75c-.002-.004-.007-.004-.007-.004l-.028.08c.013-.025.023-.05.035-.077M6.614 18.205v.007c.003-.002.008-.002.012-.003-.005-.004-.01-.002-.012-.004M7.453 18.84H7.45h.005zM4.951 12.023v-.017c-.022-.017-.043-.048-.067-.072.023.03.046.067.067.09M6.839 18.49c.001.004.001.005.005.007-.004-.043.036-.017.022-.043-.008.01-.018.02-.018.024-.002.005-.008.01-.009.012M6.873 18.446c.007.003.011.003.018.007l-.006-.03c0 .006-.005.014-.012.023M6.35 16.276c-.006.002-.016.003-.023.014.015 0 .024-.004.036-.005l-.012-.009zM6.57 18.34c-.006.006-.023.016-.032.025a.075.075 0 0 1 .024-.009c.004-.003.007-.014.009-.017M5.57 17.253l-.012-.005c-.002.003-.007.005-.012.008.006-.001.017-.001.024-.003M18.816 20.116c0-.003.002 0 0-.005l-.007.002c-.001.003.002.003.007.003M11.534 16.556l.026-.005h-.03l.004.005zM14.308 16.733c0 .005-.005.008-.007.01.01.012.02.015.03.022-.007-.01-.016-.018-.023-.032M9.882 16.586H9.88h.005zM11.24 20.818h.012a2.615 2.615 0 0 0-.098-.168c.027.054.058.11.086.168M10.843 16.752l-.078.016c.255.041.52.087.795.134-.241-.049-.485-.095-.717-.15M10.193 20.789h.012a4.543 4.543 0 0 1-.074-.174c.02.059.043.114.062.174M9.14 18.398c-.006-.01-.01-.021-.017-.032 0 .053-.01.114-.017.175.012-.05.024-.098.033-.143M8.663 19.467l-.001-.004c-.007.004-.011.007-.011.01a.037.037 0 0 1 .012-.006M18.084 20.29a.05.05 0 0 1-.007-.016c0 .006-.004.006-.01.011l.017.005zM18.116 19.752c-.001.009.005.021 0 .029.005-.002.005-.005.009-.007-.004-.008-.005-.015-.01-.022M18.561 19.787c.003.004.002.01.003.017l.013-.007c-.006-.003-.01-.003-.016-.01M9.107 18.057v.007c.007-.002.01-.007.017-.01-.005.003-.012.003-.017.003M15.33 20.832h-.142l-.008.014c.051-.007.1-.007.15-.014M17.054 20.734l.03-.003c-.04-.016-.07-.038-.102-.057l.072.06M17.322 19.922l-.002.002c0 .017.007.025.012.041-.003-.014-.01-.027-.01-.043M9.863 18.418c.003.01.014.021.02.031a4.187 4.187 0 0 1-.113-.246l-.04-.024c.04.08.085.16.133.24M7.081 13.835c.014.052.022.096.036.148-.014-.117-.029-.22-.04-.33.001.062.004.122.004.182M1.642 14.396c-.012 0-.02-.006-.033-.01.012.017.031.022.043.034 0-.008-.007-.014-.01-.024M2.838 12.333c-.002-.005-.002-.017-.006-.03-.025.03-.041.056-.065.082.024-.018.042-.038.071-.052M7.86 20.366a.016.016 0 0 0-.007.005h-.01c0 .019.014.038.027.045l-.01-.05zM12.729 21.829c-.002.003-.01.007-.01.014l.01-.002c.01-.012.017-.017.025-.026l-.025.014M7.344 15.485l-.002.002a.227.227 0 0 1 .012.008s.012-.003.014-.005a.208.208 0 0 0-.024-.005M7.44 15.025c.004.003.004.007.011.012.002-.017-.002-.04-.004-.06-.003.017-.003.034-.008.048M7.618 15.07c.007.013.015.023.019.04a.55.55 0 0 0 .007-.134.305.305 0 0 1-.026.093M9.31 18.51c.062.149.124.297.188.445l-.144-.41-.045-.034M11.953 20.58c0 .005-.005.003-.005.006.022.022.048.036.07.055-.017-.02-.039-.033-.057-.055-.003-.001-.005-.001-.008-.005M10.55 19.518l.098.168-.052-.13-.046-.038M11.463 20.794h-.001c.003.003.008.003.008.003 0-.001-.005 0-.007-.003M7.078 15.623c0 .007.005.01-.001.02h.02c-.008-.006-.016-.01-.02-.02M10.322 19.264c.062.063.122.132.18.208l.004-.002c.003-.003.005-.003.007-.007a3.529 3.529 0 0 1-.177-.211c-.004.005-.01.008-.014.012M11.128 17.892a2.248 2.248 0 0 0-.11-.055.588.588 0 0 1 .058.046.471.471 0 0 1 .052.01M14.79 18.322h-.002zM17.054 15.753v.005-.006zM9.517 15.98a.06.06 0 0 1 .06.052.135.135 0 0 0 .01.034l.008.014a.224.224 0 0 1 .04-.035c.01-.003.016-.007.025-.008a.04.04 0 0 1 .02-.019.084.084 0 0 1 .024-.014l-.008.002c-.005.003-.016.005-.016.005l-.027-.003c-.062-.019-.083-.069-.098-.104-.005-.01-.01-.025-.014-.03h-.003a.216.216 0 0 1-.048.041c-.006.003-.01.003-.014.007h.001c.002.024-.006.048-.025.06.015-.002.03-.002.048-.002h.017zM15.024 9.139l-.002-.014c-.034.027-.065.059-.098.085.033-.024.066-.05.1-.072M13.7 10.605l-.003.005c.097.089.187.186.283.279-.093-.097-.18-.191-.28-.284M21.554 19.663c-.003-.003-.009-.007-.01-.01.001.003.005.007.01.01M16.83 15.643s.003.005.007.005c0 0 0-.003.003-.005h-.01zM9.074 15.028c-.002-.002-.005 0-.007-.005.002.005-.002.007 0 .012.002-.002.005-.003.007-.007M19.845 18.563c.003-.002 0-.002 0-.002h-.026a.018.018 0 0 1 0 .006c.011-.003.02-.005.026-.005M9.134 14.945c.002.002.002.008.003.01 0 0 .006 0 .009-.002-.005-.003-.007-.002-.012-.008M18.532 19.728c-.003-.003-.005-.014-.007-.021a.038.038 0 0 1-.005.018s.007 0 .012.003M13.483 16.307c-.019.003-.041.01-.062.01.038.004.079.004.119.004-.019-.004-.036-.007-.057-.014M8.695 14.636l-.007.003a.014.014 0 0 1 .002.007c0-.003.004-.007.005-.01M12.758 11.734h-.002zM18.537 18.877l-.003.002c0 .003.003.003.006.007 0-.002 0-.005-.003-.009M18.816 18.635c-.003.004-.001.007-.007.01.002-.001.007-.003.01-.006l-.003-.004zM19.438 18.769c-.007.024-.01.048-.007.053.002-.001.005-.001.007-.003l.005-.057-.005.007zM18.496 18.896c-.001.002-.008 0-.01.003h.022c-.003 0-.007-.003-.012-.003M19.624 19.097c-.005.005-.01.002-.014.005l.073.01-.06-.015M18.611 18.306s-.015 0-.026.002l.045.014-.019-.016M19.58 18.813c.002.01-.006.01-.008.017l.017-.005c-.003-.003.002-.012.002-.012h-.01zM21.024 19.27v.004c.01-.001.02-.007.014-.013-.06-.014-.11-.028-.168-.04.052.017.098.03.154.05M20.615 18.62c0 .003.002.005 0 .008 0-.002.003 0 .003 0 0-.003 0-.007-.003-.007M19.608 18.353c.003-.007-.003-.012-.003-.02a.01.01 0 0 0-.005.006c0 .007.005.004.008.014M19.502 18.406c0-.002.005-.002.005-.002l-.012-.003c.004.003.007.003.007.005M20.145 18.482l-.002-.053c-.005.017-.005.034-.008.055.003-.002.007 0 .01-.002M28.34 8.877v.003h.003c0-.003 0 0-.002-.003M21.627 18.772c.039 0 .079 0 .103-.004-.052 0-.095-.005-.141-.01.014.004.024.01.038.014M21.123 19.38l.002-.006h-.012s.009.001.01.005M8.37 13.254v.002zM10.145 8.1l.003-.043c-.017.03-.027.065-.043.098l.04-.055M11.681 8.561c.018-.005.033-.007.052-.014a15.606 15.606 0 0 0-.296-.063c.08.022.162.048.244.077M14.267 9.187l.003-.005c-.01-.005-.025-.007-.039-.012.012.007.025.01.036.017M6.873 8.057c0 .002 0 .007.002.01l-.002-.01M13.346 10.23c0 .002.003.002.003.005a.09.09 0 0 1 .016-.017c-.007.003-.014.01-.02.012M11.721 8.207c.012-.003.03 0 .041-.007-.02-.003-.05-.005-.076-.01l.035.017M6.545 11.92l.01.003c-.007-.027-.01-.055-.019-.082.004.027.009.052.009.079M13.499 9.293c-.003.004-.01.01-.012.014a.027.027 0 0 0 .01-.01l.002-.004M11.228 8.184c-.014.003-.031 0-.041.003.017.003.036.007.057.008l-.016-.01zM7.088 14.143a3.672 3.672 0 0 0-.06-.246c.01.062.019.12.025.182l.035.064M3.138 11.965c.005.007.01.01.014.017-.004-.007-.01-.01-.014-.017M7.06 14.464c-.008.04-.008.077-.02.12.008.004.012.012.02.02.01-.05 0-.093 0-.14M8.79 23.555h.003l-.013-.072c.001.024.007.048.01.072M13.454 21.045c.003-.004.007-.007.01-.014h-.09l.08.014zM7.625 15.398c0-.083-.033-.134-.103-.146v.146c.02-.005.044-.016.065-.016.016 0 .026.004.038.016M9.971 23.355h.003l-.014-.05c.002.017.007.033.011.05M8.702 15.102c.002.009 0 .012.002.019.02-.017.031-.048.044-.072a.254.254 0 0 1-.046.053M8.988 14.017l-.031.074c.003.007.003.017.009.022.006-.029.013-.063.022-.096M8.51 14.487l-.003.002-.002.043c.002-.016.005-.028.005-.045M8.589 13.897h.002v-.003zM9.117 14.578c-.061.072-.125.14-.19.213-.001.014-.006.028-.006.043l.196-.256M8.113 15.181zM9.101 14.908h.005s.023.007.038.009c.043-.037.091-.078.143-.126a1.088 1.088 0 0 1-.186.117M9.857 10.156l.006-.003-.003-.004c0 .002 0 .005-.002.007M6.698 12.245c-.005-.002-.008-.002-.01-.005.002.01.002.017.005.024 0-.005.002-.012.005-.02M5.838 12.095h.008c0-.01-.008-.017-.013-.027 0 .008.005.017.005.027M7.15 12.44s-.01 0-.016.003c.006.034.013.075.016.116v-.12zM7.54 13.742v.014l.011.01.015-.002c-.007-.008-.015-.012-.026-.022M8.629 12.364c0 .023.003.051.003.079.03-.118.062-.227.093-.34-.031.085-.06.171-.096.26M7.925 13.773v.01c.005-.003.005-.01.008-.013a.026.026 0 0 1-.008.003M30.038 4.638h.002c0-.004-.002 0-.002-.004v.004zM2.478 22.63l-.001.003.023.014s.007 0 .009.002c-.005-.012-.02-.02-.031-.02"/>
        <g transform="translate(5 23.95)">
            <mask id="b" fill="#fff">
                <use xlink:href="#a"/>
            </mask>
            <path fill="#696D70" d="M1.017.658c.017 0 .033 0 .046-.002L.966.625l.051.033z" mask="url(#b)"/>
        </g>
        <path fill="#696D70" d="M.24 13.811c-.002-.003.001-.009 0-.01-.002.001-.002.007-.004.01H.24zM31.9 5.632c-.024.076-.074.124-.121.17a.606.606 0 0 0-.107.133c.133-.152.26-.303.385-.456a1.87 1.87 0 0 1-.158.153"/>
        <g transform="translate(10 23.95)">
            <mask id="d" fill="#fff">
                <use xlink:href="#c"/>
            </mask>
            <path fill="#696D70" d="M.26.622C.238.629.215.639.19.644c.096.009.202.012.312.019C.42.65.336.643.26.622" mask="url(#d)"/>
        </g>
        <path fill="#696D70" d="M18.241 18.222c0 .005.002.01 0 .014l.024-.004-.024-.01M17.99 18.748c-.01-.03-.005-.062-.012-.09l-.005.083c.003.005.007.012.012.017.002-.003.002-.007.005-.01M29.627 4.996v-.01l-.005.005c.002 0 .005.003.005.005M29.352 5.38v.01l.012-.017c-.005 0-.01.006-.012.008M29.548 5.071l.005-.004h-.04l.035.004zM24.857 18.398l.003-.003v-.002s-.003.002-.003.005M30.538 7.23l.014.007c.285-.366.577-.69.858-1.007l.233-.264a.067.067 0 0 1-.02.01c-.066.057-.119.123-.174.188-.16.19-.325.385-.53.495-.036.151-.234.341-.345.415a.422.422 0 0 1-.076.153h.01a.09.09 0 0 1 .03.003M31.522 1.698l.007.007a.007.007 0 0 1 .003-.003c-.002-.004-.003-.004-.01-.004M30.464 4.069h-.001a.013.013 0 0 0-.007.009l.008-.009M32.085 1.784c.01.028.01.057.012.086 0-.028.005-.052.002-.079-.002-.003-.01-.004-.014-.006M29.7 4.982v.003a.104.104 0 0 1-.029.073l-.008.017a.139.139 0 0 1-.06.048c-.019.062-.064.117-.107.172-.024.03-.05.063-.067.096a5.17 5.17 0 0 1 .462-.478c-.006.004-.013.004-.013.004-.035 0-.06-.018-.07-.043a.689.689 0 0 1-.109.108M37.976 10.338c0 .006-.012.008-.017.013.046.032.084.066.124.101-.036-.04-.074-.072-.107-.114M30.669 11.284h-.001s-.006 0-.011-.002a.036.036 0 0 1-.014.019h.002l.023.016v-.033M31.153 10.507a.233.233 0 0 0-.005-.028c-.004.014.002.021.004.028h.001zM30.761 11.528c0 .002-.003.004-.003.005.012.021.024.047.036.067l-.033-.072M35.762 22.95l.005-.003zM31.683 13.386c.015.026.025.053.042.077-.03-.124-.054-.26-.08-.395.012.107.031.213.038.318M34.456 23.187l.064.21-.064-.21M29.85 22.922c.002-.002.002-.007.003-.01 0 .003 0 .008-.003.01M26.187 18.453c.012-.003.024-.008.036-.01-.012.002-.024.006-.036.01M32.434 14.928c.005.017.016.033.026.048-.014-.127-.02-.258-.028-.388.002.113 0 .226.002.34"/>
        <g transform="translate(0 -.05)">
            <mask id="f" fill="#fff">
                <use xlink:href="#e"/>
            </mask>
            <path fill="#696D70" d="M39.766 17.402a.06.06 0 0 1-.032.048c.007.004.013.01.018.017.013.014.017.03.014.052-.057.385-.11.729-.206 1.045-.005.029-.03.046-.057.048a.078.078 0 0 1 .019.06c-.05.26-.16.52-.265.777-.034.083-.07.166-.101.245a.07.07 0 0 1-.062.042.065.065 0 0 1 .002.066l-.081.158c-.146.279-.296.567-.505.794a.065.065 0 0 1-.03.017.07.07 0 0 1-.008.06 5.197 5.197 0 0 1-.46.57c-.08.092-.16.18-.236.273a.071.071 0 0 1-.052.026s-.026-.006-.036-.014l-.007-.003c.007.01.01.024.01.037 0 .017-.01.035-.024.047a9.156 9.156 0 0 1-.813.668c-.012.007-.026.01-.026.01-.032 0-.053-.008-.067-.023-.008-.016-.018-.028-.03-.042.012.019.02.038.03.057.014.033.004.07-.025.086-.301.184-.611.373-.943.536a.051.051 0 0 1-.03.007s-.016-.001-.023-.003a.053.053 0 0 1-.026-.02.066.066 0 0 1-.044.077c-.105.037-.207.079-.312.117a4.148 4.148 0 0 1-.721.233h-.014a.064.064 0 0 1-.033-.008c-.003.005-.005.013-.01.019a.065.065 0 0 1-.046.03c-.088.016-.181.037-.281.059-.244.05-.523.11-.81.117h-.001a.061.061 0 0 1-.045-.016.057.057 0 0 1-.036.026.337.337 0 0 1-.241-.002c-.006.006-.012.006-.012.006h-.026c-.087.01-.194.017-.3.017-.093 0-.176-.007-.24-.021a.092.092 0 0 1-.058.019c-.02 0-.045-.005-.072-.008a.366.366 0 0 0-.087-.013l-.026.002c-.012.004-.02.004-.02.004a.073.073 0 0 1-.04-.01.063.063 0 0 1-.032-.045l-.003-.014a.066.066 0 0 1-.06.04h-.003a5.183 5.183 0 0 1-.917-.143l-.146-.031a.065.065 0 0 1-.044-.033c-.002-.005-.006-.012-.006-.017a.068.068 0 0 1-.052.022h-.02a6.793 6.793 0 0 1-1.02-.381.066.066 0 0 1-.037-.071c-.007.005-.014.012-.028.016-.005.003-.014.003-.014.003s-.027-.002-.037-.005c-.313-.153-.67-.325-.94-.574-.006-.01-.014-.02-.016-.03l-.015.006a.08.08 0 0 1-.043-.011c-.308-.19-.564-.433-.813-.667l-.035-.032a.07.07 0 0 1-.02-.07s-.023-.006-.032-.013c-.211-.158-.397-.402-.58-.64a7.487 7.487 0 0 1-.138-.178c-.012-.015-.02-.034-.014-.052a.063.063 0 0 1 .029-.046c.022-.016.047-.031.069-.046l-.09.046a.076.076 0 0 1-.02.007c-.033 0-.057-.014-.07-.036-.033-.066-.09-.158-.155-.265-.134-.215-.297-.481-.353-.67a.061.061 0 0 1 .026-.073l.052-.036c-.014.009-.028.014-.04.02a.14.14 0 0 1-.021.008c-.034 0-.058-.014-.07-.036l-.024-.045c-.074-.145-.167-.32-.184-.495-.05-.045-.076-.141-.108-.258-.02-.07-.038-.141-.06-.182a.066.066 0 0 1 0-.055c.003-.017.017-.031.032-.04 0 0-.024-.001-.032-.008-.017-.011-.03-.024-.033-.043a5.823 5.823 0 0 1-.175-1.078c0-.024.01-.045.027-.06-.026-.005-.043-.03-.043-.057-.001-.076-.005-.155-.008-.237-.012-.296-.026-.633.04-.865a.058.058 0 0 1 .025-.034.068.068 0 0 1-.04-.074c.018-.093.026-.177.036-.274.006-.056.009-.117.019-.185a.073.073 0 0 1 .03-.045c.008-.01.024-.014.038-.014h.013c.103.019.206.04.31.057a.395.395 0 0 1 .042-.08c-.103-.013-.211-.03-.316-.045a.066.066 0 0 1-.057-.07c.004-.12.032-.218.057-.31.009-.042.02-.08.029-.12a.067.067 0 0 1 .052-.05.067.067 0 0 1-.01-.047c.053-.285.187-.593.29-.84.028-.064.054-.126.076-.181a.072.072 0 0 1 .063-.045c-.003-.002-.003-.007-.006-.01a.064.064 0 0 1 .003-.052c.184-.378.315-.632.57-.95a.065.065 0 0 1 .052-.023h.007v-.027c.002-.01.004-.021.009-.03l-.002-.001c.057-.155.2-.304.33-.437l.097-.103c.02-.022.04-.053.065-.086.072-.096.147-.2.235-.2.023 0 .04.004.057.016-.003-.007-.008-.012-.014-.02a.06.06 0 0 1-.013-.05.067.067 0 0 1 .026-.045.316.316 0 0 0 .046-.052c.036-.044.079-.101.146-.11.119-.165.316-.302.507-.436a4.24 4.24 0 0 0 .153-.11.08.08 0 0 1 .06-.01c0-.018.01-.033.024-.045.098-.08.21-.16.35-.213l.015-.004c.022 0 .036.004.048.012a.065.065 0 0 1 .026.053v.01c.01.008.015.018.019.028a.32.32 0 0 0 .05.107.683.683 0 0 1 .099.22.17.17 0 0 1 .043.048.412.412 0 0 1 .063.15c.015.013.03.032.032.049v.006c.058.063.11.178.113.257.11.153.205.342.306.542.089.172.179.347.275.497a.065.065 0 0 1 .003.067.055.055 0 0 1-.025.027c.115.114.237.298.28.44.026.014.05.038.062.066v.007c.01.007.019.013.026.025.008.016.013.03.01.047.022.027.033.058.022.094.174.222.372.63.454.826a.125.125 0 0 1 .072.115.53.53 0 0 1 .127.247c.054.03.087.114.102.176a.09.09 0 0 1 .038.039c.01.019.017.04.017.064.044.034.072.093.08.106l.023.066a2.595 2.595 0 0 0 .435.753.066.066 0 0 1 .005.079.078.078 0 0 1-.046.03l-.002.01a.308.308 0 0 1 .119.059c.027.017.03.052.02.079a.069.069 0 0 1-.062.04s-.007 0-.01-.002l-.045.02c-.037.02-.086.049-.151.054h.004a.162.162 0 0 1 .079.08.15.15 0 0 1 0 .053.069.069 0 0 1 .06.058.071.071 0 0 1-.043.079c-.012.003-.023.007-.035.007a.231.231 0 0 1 .043.009c.026.008.047.027.048.053a.047.047 0 0 1-.001.03c.055.01.1.028.139.059.02.019.029.048.02.076l-.006.014c.037.008.06.034.074.075.012.005.02.014.029.026a.053.053 0 0 1 .007.028c.019.015.027.043.029.077a.067.067 0 0 1-.057.067c-.034.005-.056.009-.08.009l.01.005.01-.002c.069 0 .119.012.167.02l.039.009a.07.07 0 0 1 .056.064.14.14 0 0 0 .019.065l.01.038.013-.015a.1.1 0 0 1 .076-.035c.033 0 .062.016.084.029l.026.012c.02.002.04.016.052.035.003.003.005.008.007.012a.207.207 0 0 1 .218.079.09.09 0 0 1 .014.048c-.007.069-.011.129-.02.182.007-.02.013-.04.016-.058a.063.063 0 0 1 .042-.048c.008-.004.017-.004.017-.004h.019a7.53 7.53 0 0 1-.021-.096.071.071 0 0 1 .029-.065l.002-.002v-.03c.008-.047.044-.103.143-.121 0-.01.003-.014.005-.023.013-.032.036-.055.05-.075a.127.127 0 0 0 .034-.047.07.07 0 0 1 .038-.043c0-.008 0-.017.002-.027a.07.07 0 0 1 .029-.052c.013-.008.024-.017.039-.024-.005-.003-.006-.007-.01-.01-.012-.014-.017-.031-.022-.048a.063.063 0 0 1-.043-.035c-.01-.014-.014-.02-.021-.027a.17.17 0 0 1-.057-.102l-.001-.024a.097.097 0 0 1 .066-.081.139.139 0 0 1 .014-.096c.004-.007.004-.014.009-.022-.031-.002-.055-.012-.074-.02-.015-.006-.022-.01-.034-.01h-.007a.076.076 0 0 1-.054-.02.1.1 0 0 1-.022-.048h-.01c-.017 0-.036 0-.048-.004a.07.07 0 0 1-.057-.053.775.775 0 0 1 .015-.272.064.064 0 0 1 .016-.03c-.005-.014-.007-.03-.01-.043a.328.328 0 0 1-.093.087l-.004.002a.107.107 0 0 1-.055.1c-.008.007-.021.01-.021.01a.083.083 0 0 1-.056-.017c-.045-.038-.057-.093-.071-.141-.005-.028-.015-.062-.027-.072a.066.066 0 0 1-.024-.066.062.062 0 0 1 .048-.051s.003-.002.003-.004c-.017-.027-.03-.062-.048-.093a.086.086 0 0 1 0-.055l.004-.008c-.198-.167-.287-.394-.331-.664-.003.002-.01.002-.01.002-.03 0-.051-.012-.062-.033-.323-.548-.515-.933-.66-1.483-.008 0-.01.003-.01.003-.031 0-.053-.012-.067-.034a14.38 14.38 0 0 1-.478-.963 11.16 11.16 0 0 0-.488-.968.064.064 0 0 1-.007-.041.363.363 0 0 1-.05-.115.432.432 0 0 1-.02-.045c-.018-.003-.033-.017-.044-.034-.003-.012-.006-.024-.004-.034a.044.044 0 0 1-.01-.018c-.023-.072-.061-.137-.095-.203a2.213 2.213 0 0 1-.075-.135.08.08 0 0 1-.006-.037c.012-.101.135-.182.23-.182h.003c.01-.012.02-.024.032-.027a.056.056 0 0 1 .034-.01s.03.006.043.018c.02.018.034.04.04.064.042-.007.05-.017.054-.021l.01-.02a.087.087 0 0 1 .006-.02.07.07 0 0 1 .062-.035h.007v.034h.002v-.034c.034 0 .08-.045.122-.083l.054-.051c-.008-.014-.013-.038-.005-.073a.066.066 0 0 1 .064-.051h.014c.003-.014 0-.031 0-.047-.006-.037-.007-.077-.011-.111-.003 0-.003.003-.007.007a.187.187 0 0 1-.025.01c-.018 0-.023 0-.026-.002l-.012-.003a.075.075 0 0 1-.048.019h-.004c-.056-.007-.077-.05-.09-.066-.023-.013-.032-.04-.028-.067.005-.05.04-.074.073-.074.01-.008.025-.013.025-.013h.084s.032.007.043.017a.057.057 0 0 1 .027-.024c.263-.122.745-.181 1.105-.21h.006c.017 0 .033.007.044.017a.07.07 0 0 1 .052-.031 7.63 7.63 0 0 1 .559-.024c.177 0 .356.009.548.024a.072.072 0 0 1 .06.059.071.071 0 0 1 .02-.03.117.117 0 0 1 .028-.015c.017 0 .02 0 .024.002.363.044.745.098 1.08.204a.07.07 0 0 1 .045.048.11.11 0 0 1 .055-.022.13.13 0 0 1 .05.014h.019c.28.075.534.18.778.282l.167.069a.08.08 0 0 1 .038.037c.003.009.003.016.003.024.01-.005.025-.008.025-.008s.028 0 .039.007c.309.137.569.302.868.493l.093.057c.017.014.027.03.027.05a.01.01 0 0 1 0 .012h.007s.026.005.038.012c.37.249.64.479.85.734.01.01.013.02.017.034.01 0 .02.007.032.014.22.179.55.602.705.839a.063.063 0 0 1 .005.065c-.01.014-.015.028-.024.04l.038-.016.017-.007c.033 0 .057.014.069.038.063.127.132.237.2.344.103.172.212.35.307.598a.072.072 0 0 1 .004.045.064.064 0 0 1 .054.043l.05.129c.11.287.226.584.315.9.007.026-.004.052-.022.069a.062.062 0 0 1 .049.052l.028.13c.062.3.124.61.148.96 0 .02-.01.04-.024.055.013.01.02.024.022.039a4.42 4.42 0 0 1-.014 1.116zM27.03 7.392c-.07.07-.136.136-.188.198-.228.268-.457.548-.696.845-.49.602-.995 1.226-1.511 1.752-.371.478-.748.916-1.112 1.339-.334.389-.677.79-1.018 1.224-.01.01-.024.017-.036.024-.015.004-.03.004-.041.004a.114.114 0 0 1-.091-.042.169.169 0 0 0-.06.052c.027.01.073.04.068.114a.078.078 0 0 1-.012.034c-.23.309-.378.485-.622.777l-.158.19c-.007.008-.014.01-.017.016a.135.135 0 0 1-.066.017.114.114 0 0 1-.082-.04l-.002.004c-.02.019-.035.038-.053.054.02.015.039.03.058.05a.064.064 0 0 1 0 .089 3.88 3.88 0 0 0-.201.254c-.146.193-.3.39-.476.513-.198.32-.444.599-.703.897-.188.215-.38.435-.561.68-.017.018-.036.03-.057.03 0 0-.018-.004-.03-.01-.324-.165-.798-.265-1.265-.265h-.032a.067.067 0 0 1-.053-.108.417.417 0 0 1-.022-.147 1.196 1.196 0 0 0-.04-.268c-.024.004-.044.007-.067.014-.005.003-.012.003-.012.003a.094.094 0 0 1-.04-.007.07.07 0 0 1-.03-.037c-.026-.078-.052-.155-.074-.234a.072.072 0 0 1 .012-.062.067.067 0 0 1 .015-.03.105.105 0 0 1 .085-.035.25.25 0 0 0-.028-.062c-.005.003-.005.003-.008.007a.077.077 0 0 1-.042.013l-.012-.001c-.017-.005-.036-.016-.043-.03-.137-.22-.227-.55-.308-.842a4.476 4.476 0 0 0-.116-.38.066.066 0 0 1 .037-.086.145.145 0 0 0 .029-.02c.013-.005.026-.016.043-.023v-.005a.354.354 0 0 0-.017-.058.178.178 0 0 1-.068.019h-.005a.066.066 0 0 1-.062-.045c-.32-.855-.583-1.733-.838-2.58a41.676 41.676 0 0 0-.766-2.38c-.024-.053.015-.104.039-.137.014-.02.03-.04.029-.055-.003-.036.024-.067.062-.071.045-.003.086-.02.13-.037.06-.021.12-.045.19-.045.017 0 .033.003.052.007.17-.088.543-.207.857-.205.112 0 .209.016.286.047.01-.004.019-.004.032-.007.116-.023.148-.035.154-.086a.065.065 0 0 1 .05-.062c.032-.007.064-.012.094-.021a.06.06 0 0 1 .039-.046c.152-.067.33-.103.508-.138.086-.017.17-.034.254-.055l.01-.001c.035 0 .06.017.069.046v.002c.683-.158 1.35-.327 2.04-.5l.434-.11h.017a.088.088 0 0 1 .072.039.2.2 0 0 1 .105-.03l.033.002c.895-.302 1.868-.526 2.81-.74.466-.107.948-.217 1.42-.336.004-.003.009-.003.009-.003.02 0 .03.003.043.012a.08.08 0 0 1 .033.064.043.043 0 0 1 .005.01l.019-.002c.127-.003.158-.008.173-.055a.076.076 0 0 1 .046-.041 32.772 32.772 0 0 1 1.606-.363h.013c.022 0 .043.01.054.028.442.627-.041 1.114-.393 1.473zm-8.948 11.812c.179 0 .393.062.476.203.016.025.01.06-.012.082-.065.062-.177.093-.307.093-.19 0-.415-.07-.467-.222-.008-.026-.001-.057.02-.072a.45.45 0 0 1 .29-.084zm.526 1.024l.013.01v-.003c.014-.083.078-.131.188-.141h.007c.033 0 .062.024.067.057a.086.086 0 0 1-.02.074h-.001c-.018.079-.086.127-.13.158l-.03.024c-.008.027-.022.033-.048.036a2.719 2.719 0 0 1-.41.033c-.16 0-.374-.017-.504-.093-.217-.026-.421-.093-.49-.395a.079.079 0 0 1 .012-.056.063.063 0 0 1 .05-.025l.014-.002c.142 0 .163.106.166.172a.196.196 0 0 1 .104-.026c.06 0 .115.023.142.064a.15.15 0 0 1 .028.072.144.144 0 0 1 .08-.062l.019-.002h.002a.232.232 0 0 1 .076.019c.01.007.018.007.025.009a.067.067 0 0 1 .064.067c0 .008.002.017.005.024a.089.089 0 0 1 .035-.027c.005-.023.032-.045.056-.05.014 0 .026-.002.026-.002.103 0 .148.053.177.103.01-.031.028-.051.04-.072.014-.014.029-.026.048-.028l.03-.003a.15.15 0 0 1 .054.009c.01-.006.02-.006.02-.006s.037.004.049.01c.019.01.036.032.036.052zm-1.513.619a7.147 7.147 0 0 1-.966.059c-.308.006-.626.01-.94.054 0 .002-.006.002-.006.002-.023 0-.044-.008-.056-.026a.066.066 0 0 1-.01-.068c.065-.134.128-.263.192-.391.184-.37.357-.718.485-1.17a.07.07 0 0 1 .062-.05h.003c.03 0 .055.019.062.045.115.318.249.527.384.73.04.066.082.129.122.196.087.054.166.12.245.193.128.11.258.223.439.297.027.012.043.04.04.07a.069.069 0 0 1-.056.059zm-2.05-3.89a.066.066 0 0 1-.027.056.062.062 0 0 1-.025.014.151.151 0 0 1-.038-.003 1.017 1.017 0 0 0-.272-.045c-.144-.01-.29-.022-.397-.1-.001.004-.003.004-.005.007a.067.067 0 0 1-.052.028l-.024-.005a.49.49 0 0 0-.15-.03c-.123 0-.167.08-.242.23-.03.066-.07.142-.123.21a.06.06 0 0 1-.052.026l-.005-.001a81.753 81.753 0 0 1-2.876-.461c-.031-.007-.057-.033-.057-.065v-.01c-.04.004-.08.004-.12.004a2.22 2.22 0 0 1-.743-.12.065.065 0 0 1-.043-.048.056.056 0 0 1-.015-.036.065.065 0 0 1 .05-.072c.085-.021.186-.033.285-.033.08 0 .194.007.299.043.114-.021.243-.031.399-.031.114 0 .224.005.337.01.115.004.228.009.34.009l.069-.002h.002c.034 0 .062.024.067.059v.003a13.35 13.35 0 0 1 1.736-.086h.648c.275 0 .6 0 .935-.017h.004c.025 0 .048.014.062.038.037.084.034.197.034.309v.119zm-.2 1.456a.127.127 0 0 1-.065.038c.003.003.008.003.01.005a.064.064 0 0 1 .038.074.068.068 0 0 1-.043.05c.002.005.003.008.002.013-.016.248-.107.475-.202.693-.036.093-.073.186-.105.277a.07.07 0 0 1-.037.039c-.006.004-.012.004-.021.006a.054.054 0 0 1-.002.043 3.289 3.289 0 0 1-.543.969.074.074 0 0 1-.032.022c.004.013.006.03 0 .044-.018.058-.054.099-.083.133-.026.03-.05.059-.06.093a.068.068 0 0 1-.064.05s-.005 0-.008-.002a2.407 2.407 0 0 0-.277-.013c-.114 0-.224.007-.332.013a5.51 5.51 0 0 1-.308.01 1.44 1.44 0 0 1-.438-.058l-.002.004a.067.067 0 0 1-.062.046l-.02-.002a.575.575 0 0 0-.154-.017c-.041 0-.08.002-.123.004-.048.003-.098.003-.15.003-.077 0-.19-.003-.306-.034a.122.122 0 0 1-.053.013h-.002a.047.047 0 0 1-.018.014.298.298 0 0 1-.018.006c-.03 0-.05-.01-.061-.026l-.004-.005a.068.068 0 0 1-.043.015H11.186c-.051 0-.101.002-.15.003-.05 0-.1.004-.15.004-.091 0-.213-.005-.351-.043a.254.254 0 0 1-.14.039.345.345 0 0 1-.15-.037l-.004-.004a.066.066 0 0 1-.036.01H10.2c-.046-.003-.091-.003-.141-.003h-.124l-.13.002a1.65 1.65 0 0 1-.46-.05.359.359 0 0 1-.145.052c-.028 0-.057-.018-.066-.042l-.007-.017a.385.385 0 0 1-.141.028.936.936 0 0 1-.137-.014.679.679 0 0 0-.121-.014.245.245 0 0 0-.108.022c-.01.006-.02.007-.02.007-.026 0-.043-.005-.056-.017a.067.067 0 0 1-.017-.074c.004-.007.004-.008.004-.02-.004-.011-.004-.023-.004-.037a.074.074 0 0 1-.02-.036c-.02-.072.055-.13.144-.203 0-.003.007-.006.012-.01a.21.21 0 0 1-.007-.137.164.164 0 0 1 .072-.085c-.002-.015-.01-.022-.025-.04a.191.191 0 0 1-.064-.101.061.061 0 0 1 .007-.042.246.246 0 0 0 .016-.076.189.189 0 0 1-.114-.055.18.18 0 0 1-.053-.127c-.01-.007-.012-.011-.012-.011a.094.094 0 0 1-.05.016c-.02 0-.036-.005-.048-.02-.024-.027-.026-.065-.002-.09a.894.894 0 0 0 .082-.095c.038-.048.072-.091.157-.158a.075.075 0 0 1 .02-.01l-.001-.004a.066.066 0 0 1 .022-.072.08.08 0 0 1 .04-.014v-.003c.014-.03.036-.083.09-.083.13-.2.267-.591.264-.856 0-.03.019-.058.048-.065l.012-.004.027.006a.693.693 0 0 1-.056-.177s-.014-.004-.02-.01a.058.058 0 0 1-.025-.056.14.14 0 0 0-.027-.086c-.02-.031-.043-.065-.047-.12-.001-.034.02-.065.05-.072a.527.527 0 0 1 .093-.012c-.005-.047-.005-.122.04-.177.023-.028.065-.06.144-.06H9.3v-.006c0-.02.012-.04.028-.051a.972.972 0 0 1 .025-.014l.03.004a.86.86 0 0 1 .17.07l.012.003c.037.016.08.03.125.045.148.05.299.1.349.196a.46.46 0 0 0 .127.024c.064 0 .07-.024.074-.033l.009-.024c-.01-.027-.023-.056-.01-.103a.066.066 0 0 1 .065-.051c.215 0 .438.06.612.127a.067.067 0 0 1 .053-.028h.01c.307.049.638.093.989.138.908.117 1.84.237 2.496.45 0-.012.004-.024.01-.036a.072.072 0 0 1 .059-.033s.005 0 .008.002c.028.005.057.009.088.012.062.007.127.014.186.035.017.007.036.022.039.044a.067.067 0 0 1-.01.059zm-1.324 2.702c-.07.124-.161.22-.25.317a1.557 1.557 0 0 0-.116.127.079.079 0 0 1-.052.024l-.03-.007c-.004-.003-.01-.005-.011-.007l.005.017a.073.073 0 0 1-.011.059c-.04.044-.082.086-.124.127-.047.048-.1.096-.153.16a.052.052 0 0 1-.036.022.108.108 0 0 1-.02.004h-.006c-.097.13-.262.245-.408.347l-.062.045a.072.072 0 0 1-.036.01s-.015 0-.022-.002a.025.025 0 0 1 0 .017.063.063 0 0 1-.03.047 6.774 6.774 0 0 0-.164.11c-.243.165-.494.333-.8.443-.008.004-.017.004-.017.004s-.027 0-.034-.004a.09.09 0 0 1-.02.02c-.221.169-.515.266-.802.358-.072.025-.143.045-.211.069-.007.004-.014.004-.014.004a.085.085 0 0 1-.057-.02.077.077 0 0 1-.008.035.065.065 0 0 1-.045.029c-.076.014-.165.035-.263.055-.246.057-.552.127-.815.134h-.002a.07.07 0 0 1-.055-.027c-.002.007-.005.012-.008.017a.07.07 0 0 1-.05.024c-.131.004-.25.012-.361.017a5.04 5.04 0 0 1-.397.018c-.116 0-.222-.007-.322-.021a.059.059 0 0 1-.045-.031.067.067 0 0 1-.044.017h-.012a2.799 2.799 0 0 0-.24-.021c-.195-.015-.395-.027-.556-.1a.097.097 0 0 1-.05.01.396.396 0 0 1-.112-.023c-.037-.012-.084-.028-.11-.028-.02 0-.04-.006-.051-.02a.175.175 0 0 1-.018-.03c-.011.016-.03.023-.05.023 0 0-.008 0-.015-.002a7.239 7.239 0 0 1-1.033-.333.069.069 0 0 1-.043-.064.055.055 0 0 1-.034.01l-.016-.003c-.383-.144-.703-.347-.987-.526-.022-.014-.032-.043-.03-.07a.084.084 0 0 1-.018.007c-.017 0-.03-.002-.034-.007a4.09 4.09 0 0 1-.867-.69c-.02-.02-.022-.044-.013-.07 0 0-.007 0-.012-.002-.238-.113-.416-.347-.59-.571-.06-.075-.117-.154-.18-.223-.023-.028-.021-.065.003-.093l.008-.007-.007.002c-.008.005-.017.005-.017.005-.027 0-.046-.007-.06-.022a4.672 4.672 0 0 1-.586-.937.076.076 0 0 1 .002-.066.065.065 0 0 1-.06-.037 6.735 6.735 0 0 1-.394-1.004c-.005-.024 0-.047.015-.062a.103.103 0 0 1-.024-.031c-.132-.296-.184-.671-.231-1.035l-.006-.034a.06.06 0 0 1 .026-.062.075.075 0 0 1-.04-.055 5.2 5.2 0 0 1-.03-1.097.073.073 0 0 1 .025-.045.044.044 0 0 0 .016-.01.065.065 0 0 1-.026-.053c-.004-.39.086-.81.16-1.1.005-.02.022-.035.04-.044a.065.065 0 0 1-.011-.042c.007-.123.04-.222.074-.315.02-.067.043-.127.055-.2a.068.068 0 0 1 .033-.044c.01-.007.02-.01.02-.01l.035.003.144.05a.534.534 0 0 1-.158-.112.062.062 0 0 1-.007-.08.06.06 0 0 1 .057-.033s.007 0 .012.003a.062.062 0 0 1-.02-.064c.009-.051.03-.091.047-.125a.28.28 0 0 0 .038-.103.077.077 0 0 1 .03-.047.057.057 0 0 1 .032-.008.058.058 0 0 1 0-.041c.117-.348.315-.667.51-.968a.07.07 0 0 1 .057-.03h.006c.015 0 .029.004.044.007-.01-.007-.015-.013-.026-.022a.069.069 0 0 1-.003-.091c.067-.083.132-.165.194-.251.077-.103.157-.21.255-.327v-.007a.063.063 0 0 1 .03-.038c.052-.027.09-.08.128-.13.015-.017.027-.036.04-.053.01-.016.03-.024.049-.026h.005a.06.06 0 0 1 .045.02l.035.03c-.013-.014-.021-.03-.035-.043a.071.071 0 0 1-.01-.052.061.061 0 0 1 .026-.043c.039-.03.104-.094.178-.168.165-.165.385-.387.604-.49a.03.03 0 0 1 .007-.012.066.066 0 0 1 .058-.036l.019.003c.012.002.022.003.032.009a.066.066 0 0 1 .014-.06 1.61 1.61 0 0 1 .518-.341c.022 0 .034.004.046.014.019.014.033.036.029.062-.046.457.165.856.349 1.028l.01-.004c.042 0 .104.03.128.076.083.027.167.062.253.1.105.044.21.093.323.127.012.003.02.008.029.017a.727.727 0 0 1 .389.21v-.004a.067.067 0 0 1 .053-.024c.01 0 .017 0 .022.004.085.029.168.065.254.099a4 4 0 0 0 .35.13c.022.006.039.025.046.049v.012l.02-.003a.12.12 0 0 1 .082.029c.004-.003.013-.003.013-.003s.019 0 .026.003c.022.007.04.026.046.048.097.408.14.787.188 1.19a.066.066 0 0 1-.048.072l.019.079a.07.07 0 0 1-.042.077l-.005.002a.996.996 0 0 1 .017.408.054.054 0 0 1-.022.039l.134.145a.133.133 0 0 0-.01-.028.07.07 0 0 1 .005-.055.076.076 0 0 1 .046-.033l.02-.003c.056 0 .095.02.134.058.002.006.006.009.008.012l.01-.01.026-.015h.026c.099.02.253.094.2.397-.004.03-.03.05-.061.055h-.005c-.028 0-.054-.021-.064-.048-.01-.035-.033-.062-.055-.093l-.002.008c-.001.024-.015.043-.04.054a.195.195 0 0 1-.016.006c-.023 0-.038-.005-.048-.013-.012-.007-.021-.016-.03-.023 0 .004.004.007.004.012.014.049.03.105.03.176.006.003.01.008.017.014.013.02.017.046.008.068l.003.014.012.034V15.3c0-.02.009-.037.02-.05a.08.08 0 0 1 .046-.015h.012c.058.01.156.048.156.212a.074.074 0 0 1-.041.063l-.024.004a.072.072 0 0 1-.047-.018c.002.002-.008.005-.015.009l-.017.005-.017.004a.067.067 0 0 1-.047-.016c-.008-.005-.015-.012-.017-.021 0 .019 0 .037-.007.057a.065.065 0 0 1-.031.04c-.017.02-.044.037-.065.037 0 0-.026-.001-.038-.005.004.014.004.035.005.054.003.022-.007.056-.026.07a.216.216 0 0 1-.13.038c-.026 0-.055-.004-.084-.007a.254.254 0 0 1 .01.093.07.07 0 0 1-.022.046c-.047.036-.075.055-.107.055a.104.104 0 0 1-.054-.02c0 .005-.011.007-.047.019a.049.049 0 0 0-.014.007.084.084 0 0 1-.066-.028.15.15 0 0 1-.017.003c-.026 0-.04-.003-.055-.013a.103.103 0 0 1-.024-.036c-.003-.002-.01-.002-.01-.002a.784.784 0 0 0-.11-.028c-.097-.02-.202-.041-.267-.106-.012-.012-.027-.028-.043-.042a.103.103 0 0 1-.048.01c-.04 0-.075-.022-.106-.041a.03.03 0 0 1-.012-.01h-.005a.085.085 0 0 1-.057-.026c-.01-.005-.02-.008-.028-.015a.379.379 0 0 1-.033.093c.112.038.222.072.329.11.032.01.05.043.046.075-.001.01-.005.016-.008.023.077.026.15.056.218.093.014.008.026.02.033.036a.08.08 0 0 1 .058.027s.03.007.04.017c.019.018.024.042.019.064-.002.016.005.033.017.06.024.048.067.134-.04.224a.065.065 0 0 1-.045.017s-.005-.002-.006-.004a.416.416 0 0 1-.086-.013.044.044 0 0 1 .019.007.147.147 0 0 0 .043.018.066.066 0 0 1 .054.057c.02.117-.05.165-.092.196l-.015.01v.004c.015.01.027.02.04.027.023.01.038.03.038.055.004.028-.008.048-.03.062-.06.038-.114.074-.202.083h-.008l-.007.007a.851.851 0 0 1-.23.086.059.059 0 0 1 .017.055c0 .003 0 .007-.002.008a.235.235 0 0 1 .137-.044c.033 0 .064.005.097.018a.07.07 0 0 1 .04.05.063.063 0 0 1-.018.06l-.01.01c.003.01.003.02 0 .032l.003.003a.161.161 0 0 1 .102-.031l.02.002a.067.067 0 0 1 .059.04.06.06 0 0 1 .003.044h.004c.039.012.096.028.127.072.014.018.019.038.014.057l-.01.019c0 .003 0 .007.003.01 0 .024.003.069-.012.109.024 0 .054 0 .087.012a.07.07 0 0 1 .04.03c.026.052.046.12.027.19h.002c.003.003.009.005.014.01a.063.063 0 0 1 .063-.014c.11.035.107.162.105.255.009.007.014.015.02.024.01.02.01.04 0 .058-.013.035-.037.066-.057.096-.054.085-.086.138-.056.21a.064.064 0 0 1 .002.045.142.142 0 0 1 .035.014c.013.01.024.027.025.044a.275.275 0 0 1-.001.076s.005 0 .008-.002l.012-.001c.037 0 .065.017.078.048.006.007.01.013.013.02a.072.072 0 0 1 0 .054c.019.022.038.06.035.122 0 .02-.012.04-.031.053l-.024.01s-.03-.002-.038-.005c-.022-.01-.04-.024-.055-.036a.126.126 0 0 1-.022-.02s-.013.003-.02.008c-.013.007-.023.01-.023.01s-.024 0-.03-.003a.058.058 0 0 1-.005.014.074.074 0 0 1-.03.037.522.522 0 0 1-.271.079H6.62a.797.797 0 0 0 .173.042.08.08 0 0 1 .04.017.12.12 0 0 1 .014-.003h.029c.06 0 .093.013.125.025l.023.007c.058-.058.149-.077.23-.094.02-.004.04-.011.059-.014-.002-.007-.002-.017-.002-.023v-.022c0-.036.027-.065.062-.067h.012l.002-.014c.038-.101.156-.213.28-.213.06 0 .115.029.155.08a.07.07 0 0 1 .01.046.185.185 0 0 1 .086.063.065.065 0 0 1 .065-.063h.002a.556.556 0 0 1 .225.055l-.008-.007c-.014-.01-.032-.017-.05-.024a.156.156 0 0 1-.117-.127.062.062 0 0 1 .038-.08.334.334 0 0 1 .11-.024c.089 0 .153.045.178.123a.058.058 0 0 1-.01.063c-.015.02-.033.029-.044.034a.074.074 0 0 1-.035.042.062.062 0 0 1-.031.007s-.01 0-.016-.002c.035.012.073.029.124.045a.068.068 0 0 1 .047.062c0 .034-.006.06-.01.084-.006.024-.01.04-.006.065a.064.064 0 0 1-.02.06.265.265 0 0 1-.07.048c-.051.036-.07.05-.068.098a.066.066 0 0 1-.04.067c-.006.004-.013.006-.013.006a.161.161 0 0 0-.024.044c-.007.024-.031.04-.057.045h-.004l-.024-.007c-.06.103-.14.18-.216.258-.022.024-.047.046-.07.072-.001.007-.004.014-.008.017a.067.067 0 0 1-.036.03l-.041.049c-.01.018-.031.026-.053.026l-.011-.002c-.041.117-.077.23-.113.346.009.002.016.005.02.012.037.022.082.052.085.124a.097.097 0 0 1-.005.027c-.031.08-.095.129-.148.17a.074.074 0 0 1-.043.014s-.01 0-.015-.002c-.014.045-.026.092-.04.135.003.003.007.007.012.008.07.06.196.072.328.084.129.01.262.02.363.08a.102.102 0 0 1 .026-.007h.098c.015 0 .06 0 .079-.007a.138.138 0 0 1 .019-.006.08.08 0 0 1 .036.006c.01.007.019.014.027.022a.809.809 0 0 1 .176-.017c.079 0 .158.009.235.019.076.007.15.017.226.017a.697.697 0 0 0 .16-.017h.013c.016 0 .026.003.038.008l.007-.001a.057.057 0 0 1 .02-.007c.03 0 .052.01.066.03.029.025.19.025.28.026h.077c.07 0 .148-.001.225-.005.08-.005.159-.007.23-.007.09 0 .156.004.21.014h.004a.1.1 0 0 1 .026-.017c.019 0 .019.002.019.002l.125.013c.088.013.172.023.253.023.077 0 .143-.01.203-.033l.014-.005c.027 0 .046.01.06.028.018.022.036.025.055.025.025 0 .058-.008.09-.015a.389.389 0 0 1 .123-.024c.05 0 .09.017.127.048l.009.005c.007-.003.013-.007.024-.008a.142.142 0 0 0 .04-.014c.025-.012.052-.026.092-.03h.007c.017 0 .036.007.047.019.02.02.044.028.077.028a.367.367 0 0 0 .086-.01c.037-.004.073-.011.108-.011.053 0 .098.012.139.036a.522.522 0 0 1 .176-.031c.08 0 .159.019.232.05a.06.06 0 0 1 .058-.037h.952c.023 0 .045.012.057.032a.072.072 0 0 1 0 .067zM4.575 8.04c.105-.01.162-.014.275-.014h.048c.02 0 .038.009.05.022a.087.087 0 0 1 .019.054c-.014.076.007.213.028.357.044.305.096.647-.057.822a.322.322 0 0 1-.255.105h-.02a.067.067 0 0 1-.062-.064c-.012-.134-.02-.27-.03-.405-.014-.27-.035-.54-.057-.805a.065.065 0 0 1 .06-.072zm.782 3.52c.038.057.107.104.188.16.065.045.14.095.206.16.01-.003.019-.003.019-.003s.022 0 .028.002c.235.074.5.185.737.283l.119.052c.008.002.01.005.017.01l.01-.002s.033.006.045.013c.015.01.042.02.068.029.042.013.09.029.126.063a.08.08 0 0 1 .02.042c.018.158-.065.21-.116.228-.007.004-.013.004-.02.005-.034 0-.052-.01-.061-.017l-.005.002a.052.052 0 0 1-.05-.031l-.012.002s-.033-.004-.043-.012a.226.226 0 0 1-.075-.031c-.01-.007-.013-.016-.018-.023l-.04-.01c-.206-.062-.451-.132-.618-.278a.077.077 0 0 1-.034.008h-.006s-.192-.02-.264-.105a.926.926 0 0 1-.422-.173c-.146-.036-.303-.167-.323-.308-.105-.074-.112-.303-.124-.56a3.386 3.386 0 0 0-.02-.28c-.006-.018 0-.037.01-.051a.074.074 0 0 1 .046-.027c.04-.005.057-.017.083-.031.033-.021.07-.045.148-.055l.005-.002a.07.07 0 0 1 .056.026c.102.132.148.33.193.52.033.157.069.305.127.395zm-.108-1.04c.005-.022.016-.04.036-.05.22-.118.485-.214.81-.293l.008-.002c.019 0 .03.003.04.009l.003-.002c.054-.06.138-.08.214-.093a.596.596 0 0 0 .1-.026c.008-.001.014-.005.014-.005.02 0 .032.004.042.009a.065.065 0 0 1 .033.043c.1.423.163.837.225 1.275.034.224.067.45.11.69a.078.078 0 0 1-.024.063.072.072 0 0 1-.045.018s-.012 0-.02-.004l-.043-.014c-.045-.012-.085-.022-.148-.044a.076.076 0 0 1-.04-.048l-.002-.008h-.019c-.985-.216-1.404-.713-1.294-1.517zm1.442-.496A.074.074 0 0 1 6.74 10a.539.539 0 0 0 .122-.014c.043-.007.077-.014.123-.014h.004c.032 0 .062.024.064.055.047.275.097.526.142.767.09.474.179.92.238 1.489a.07.07 0 0 1-.045.07.241.241 0 0 1-.06.009.301.301 0 0 1-.14-.045c-.034-.015-.067-.031-.1-.033a.063.063 0 0 1-.063-.056 5.128 5.128 0 0 0-.05-.265 2.471 2.471 0 0 1-.07-.578c-.036-.051-.064-.19-.116-.548l-.012-.08-.032-.195c-.028-.186-.054-.334-.07-.487a.077.077 0 0 1 .016-.051zm.128-1.956c.01-.018.034-.028.053-.03.423-.01.904-.015 1.432-.015.523 0 1.076.007 1.556.015a.07.07 0 0 1 .065.064.096.096 0 0 1-.024.076 6.526 6.526 0 0 0-.15.563.065.065 0 0 1-.065.054l-.014-.002a7.677 7.677 0 0 0-1.538-.138c-.403 0-.8.023-1.152.066-.002.002-.005.002-.005.002-.035 0-.065-.023-.07-.056-.008-.054-.018-.108-.023-.16-.024-.14-.043-.27-.074-.381a.066.066 0 0 1 .009-.058zm3.483.288a.064.064 0 0 1 .06-.041h.005c.37.019.863.096 1.38.217a.067.067 0 0 1 .053.062.07.07 0 0 1-.044.067c-.042.015-.08.022-.114.029a.346.346 0 0 0-.101.027c.022.024.058.035.106.035.119 0 .227-.07.236-.11.008-.031.038-.055.065-.055a11.503 11.503 0 0 1 1.033.237c.16.04.326.086.497.127a.07.07 0 0 1 .052.05.062.062 0 0 1 .05-.024l.01.002c.075.017.148.034.218.048.172.038.346.075.492.144a.077.077 0 0 1 .038.047.065.065 0 0 1-.017.056 21.28 21.28 0 0 1-.554.643.083.083 0 0 1-.043.048 2.505 2.505 0 0 1-.165.186c-.055.058-.112.117-.156.174a.07.07 0 0 1-.054.025h-.01c-.021-.001-.041-.017-.052-.041-.027-.063-.108-.068-.134-.068a.286.286 0 0 0-.063.008l-.01.002c-.028 0-.05-.01-.063-.031-.015-.024-.015-.024-.04-.035l-.03-.013a.062.062 0 0 1-.038-.072.068.068 0 0 1 .057-.056c.026-.003.053-.037.077-.068l.02-.028a.203.203 0 0 1-.02-.058.066.066 0 0 1-.056-.033.063.063 0 0 1 .005-.074c.072-.103.167-.19.256-.273a2.71 2.71 0 0 0 .184-.188.135.135 0 0 1-.031-.085.184.184 0 0 1-.08.017c-.064 0-.106-.035-.137-.061l-.03-.024c-.13 0-.193.153-.27.372-.06.16-.112.31-.22.383-.013.007-.024.009-.024.009-.025 0-.037-.002-.047-.01a9.177 9.177 0 0 0-2.376-1.016.067.067 0 0 1-.05-.076c.035-.19.08-.344.135-.475zm-1.013 3.358a23.995 23.995 0 0 0-.561 2.147c-.008.039-.02.093-.073.099a.067.067 0 0 1-.028.044c-.01.008-.024.012-.024.012-.023 0-.033-.004-.041-.007-.102-.045-.083-.19-.066-.325a.808.808 0 0 0 .014-.14.064.064 0 0 1 .059-.067l.007-.001h.003c0-.3.084-.545.172-.801a3.68 3.68 0 0 0 .177-.64.062.062 0 0 1 .032-.048c.09-.414.2-.791.317-1.186.065-.23.132-.461.197-.708a.077.077 0 0 1 .042-.045c.008-.004.015-.004.015-.004s.033.004.045.01a1.245 1.245 0 0 0 .086.02.084.084 0 0 1 .043.039.066.066 0 0 1 0 .055.324.324 0 0 0-.026.093c-.001.027-.02.048-.044.058-.061.396-.226.929-.356 1.297.01.024.022.055.01.098zm-1.515 1.903a12.987 12.987 0 0 0-.23-1.415c-.111-.55-.223-1.112-.248-1.721a.06.06 0 0 1-.051-.045l.04-.013c-.004-.002-.007-.002-.007-.006l-.038.006c-.045-.126-.116-.334-.05-.458a.061.061 0 0 1 .058-.036s.01 0 .018.002c.02.005.037.02.044.039.01-.012.024-.018.037-.025.159-.041.343-.064.579-.064.13 0 .259.007.386.012.059.004.12.007.179.007.019.002.038.01.048.024.004-.003.005-.007.009-.008A.064.064 0 0 1 8.59 9.9l.01.002c.06.008.134.015.213.026.164.017.348.037.499.075a.068.068 0 0 1 .04.03.063.063 0 0 1 .006.053c-.103.419-.215.806-.33 1.217-.11.38-.221.78-.33 1.203a.07.07 0 0 1-.067.052h-.005l-.02-.004c-.02.335-.066.633-.157.856a.066.066 0 0 1-.063.042s-.016 0-.02-.004c-.056-.017-.063-.07-.061-.11h-.03c-.003.017-.003.038-.005.055-.003.046-.005.097-.024.136a.078.078 0 0 1-.051.038.383.383 0 0 1-.12-.004l-.028-.001c-.002.024-.002.058-.002.087 0 .088 0 .198-.091.243-.01.007-.02.007-.03.007 0 0-.023-.004-.034-.011-.021-.01-.031-.032-.031-.055v-.151c-.051-.007-.077-.028-.086-.065zm.98 1.602a.063.063 0 0 1-.05.02l-.013-.001a.068.068 0 0 1-.05-.043c0-.004 0-.005-.002-.007a.08.08 0 0 1-.041.01.18.18 0 0 1-.098-.036c-.01.005-.016.005-.016.005H8.46c-.015-.005-.036-.007-.055-.01a.423.423 0 0 1-.151-.041.068.068 0 0 1-.033-.076c.018-.055.014-.131.014-.196a.064.064 0 0 1 .052-.067l.03-.01c.128-.028.14-.031.119-.222a.07.07 0 0 1 .047-.07c.005-.002.013-.006.018-.01.025-.01.056-.023.102-.023l.022.002c.007 0 .017 0 .026.005a.175.175 0 0 1 .14-.064c.018 0 .036.007.049.019.004-.004.005-.01.009-.016a.067.067 0 0 1 .077-.03h.002c.008-.043.019-.085.032-.128a.06.06 0 0 1-.046-.024c-.043-.05-.053-.136-.04-.202-.027-.007-.047-.023-.05-.052-.011-.208.095-.631.164-.75.03-.218.1-.452.167-.68.029-.088.053-.177.077-.265a.068.068 0 0 1 .064-.05H9.3a19.3 19.3 0 0 1 .493-2.03.069.069 0 0 1 .054-.045l.01-.002.024.004.012-.004c.016 0 .02.002.029.004.377.117.673.22.9.32a.07.07 0 0 1 .039.048c.012-.007.024-.011.024-.011s.033.004.04.007l.172.083c.206.096.42.197.59.345a.065.065 0 0 1 .019.08.067.067 0 0 1-.06.037s-.01 0-.015-.002l-.021-.003c-.096 0-.208.065-.324.179.003.007.003.017.005.026a.064.064 0 0 1 .048.025c.01.018.019.042.009.062-.037.114.018.176.116.24a.06.06 0 0 1 .026.083l.002.002.036.023c.015.008.03.02.046.027a.091.091 0 0 1 .023-.021.062.062 0 0 1 .034-.01h.007l.017-.002c.055 0 .096.019.134.054.09.094.098.268.097.32a.072.072 0 0 1-.038.06c-.038.015-.067.053-.097.094-.038.048-.075.1-.141.134a.15.15 0 0 1-.025.059.264.264 0 0 1-.111.096.423.423 0 0 1-.165.186.939.939 0 0 1-.206.244c-.046.048-.12.12-.125.146-.007.026-.03.053-.06.057-.014.003-.045.048-.066.077-.043.06-.094.132-.171.168a5.112 5.112 0 0 1-.624.693c-.043.103-.1.14-.155.162a4.097 4.097 0 0 1-.667.756v.004a.1.1 0 0 1-.061.089.176.176 0 0 1-.07.076c-.015.044-.055.074-.076.092-.017.014-.04.03-.04.042a.07.07 0 0 1-.063.06h-.002a.128.128 0 0 1-.084-.026c-.034-.008-.062-.045-.056-.08.003-.023.008-.047.01-.068a1.861 1.861 0 0 1-.04.052zm.533.9a.06.06 0 0 1 .016-.037l-.007.003a.07.07 0 0 1-.02.005s-.033-.003-.044-.01a.064.064 0 0 1-.031-.057L9.2 16.02l-.016-.014a.158.158 0 0 1-.055-.082v-.031c.03-.128.112-.141.144-.141 0 0 .023 0 .033.003 0-.008.007-.017.014-.024a.082.082 0 0 1 .038-.024v-.003c0-.002 0-.006-.002-.007a.064.064 0 0 1-.034-.038.07.07 0 0 1 .005-.064l.017-.022.002-.004c.375-.532.875-1.065 1.354-1.581.119-.127.237-.251.349-.375a27.581 27.581 0 0 1 1.518-1.715.254.254 0 0 1 .176-.18h.015c.022 0 .045.01.055.03a.078.078 0 0 1 .046.033.075.075 0 0 1-.001.07c-.014.016-.025.033-.035.048a.452.452 0 0 1 .03-.031.066.066 0 0 1 .049-.022c.018.002.036.01.049.022.047.054.097.105.144.157.199.213.405.43.57.69a.065.065 0 0 1 .009.042c.017.002.036.01.045.024.235.306.395.568.57.935a.072.072 0 0 1-.003.064.072.072 0 0 1 .042.03c.159.264.314.654.412 1.044a.06.06 0 0 1-.007.052h-.002c.026.003.049.024.052.048l.027.107c.08.316.15.588.18.97a.081.081 0 0 1-.02.05c.016.01.026.025.029.042.016.06.023.13.018.22a.066.066 0 0 1-.062.064c-.263.019-.658.043-1.047.043-.177 0-.342-.004-.49-.014a.068.068 0 0 1-.06-.052c-.703.078-1.381.093-2.03.093-.273 0-.545-.003-.82-.007-.267-.003-.538-.003-.806-.003h-.03a.061.061 0 0 1-.041-.017h-.003s-.012 0-.02-.002l-.032-.012c-.024-.007-.052-.017-.071-.017-.011.01-.031.017-.031.017l-.03-.004a.072.072 0 0 1-.051-.036l-.001-.001c-.012.007-.022.013-.038.02-.008.004-.02.007-.02.007-.021 0-.035-.003-.047-.012a.07.07 0 0 1-.03-.058v-.026c0-.041 0-.09.035-.124.002-.002.004-.003.006-.007a.153.153 0 0 1-.011-.075zm5.695-7c.013-.006.026-.013.04-.013 0 0 .015.002.024.005a.063.063 0 0 1 .039.046c.18.705.398 1.396.609 2.063.199.635.392 1.233.547 1.845.173.385.404 1.119.502 1.605.103.154.23.594.282.868.044.025.056.093.07.162.007.028.016.065.023.079a.07.07 0 0 1-.016.076.066.066 0 0 1-.046.019.047.047 0 0 1-.031-.01.119.119 0 0 1-.036-.025h-.004l-.01-.001c-.018-.004-.04-.011-.048-.024h-.002c-.057.087-.055.216-.017.27a.064.064 0 0 1 .003.077.07.07 0 0 1-.057.03l-.013-.001a.157.157 0 0 0-.076.026.232.232 0 0 1-.091.034v.004c-.004.03-.015.117-.101.123l-.006.002a.068.068 0 0 1-.068-.06c-.272-2.328-1.176-4.11-2.85-5.61a.08.08 0 0 1-.021-.054.061.061 0 0 1 .033-.052 1.04 1.04 0 0 0 .115-.091l.018-.017c.014-.011.03-.017.03-.017.025 0 .036.003.046.006.02.01.035.025.047.035.003.003.007.003.007.007a.227.227 0 0 0 .048-.064c-.03-.026-.06-.057-.055-.112a.069.069 0 0 1 .014-.034l.178-.236c.255-.342.52-.696.873-.96zm25.535 4.924a3.938 3.938 0 0 1-.233-.583c-.005-.005-.012-.008-.018-.015a.5.5 0 0 1-.082-.203 1.53 1.53 0 0 1-.241-.485c-.048-.045-.084-.112-.12-.175-.026-.055-.058-.117-.088-.134a.088.088 0 0 1-.031-.05c-.027-.04-.06-.078-.087-.115a2.097 2.097 0 0 1-.227-.32c-.002-.007-.005-.01-.01-.017-.064-.06-.157-.152-.16-.226a2.092 2.092 0 0 1-.386-.436c-.024-.002-.056-.012-.084-.064a.226.226 0 0 1-.024-.063 3.063 3.063 0 0 1-.38-.332c-.13-.122-.261-.25-.43-.373-.01-.002-.024-.005-.032-.016-.428-.362-.99-.653-1.532-.938-.151-.08-.302-.157-.448-.236-.15-.04-.324-.091-.5-.142-.422-.124-.86-.253-1.27-.327h-.015c-.428-.024-.658-.052-.758-.095a.717.717 0 0 1-.21.028.594.594 0 0 1-.23-.04.062.062 0 0 1-.034-.041.067.067 0 0 1 .008-.055c.007-.015.017-.024.022-.031a4.296 4.296 0 0 0-.305-.01c-.5 0-.975.069-1.396.13l-.114.014-.002.004a.062.062 0 0 1-.044.024c-.198.027-.368.079-.533.125-.076.02-.15.043-.224.06-.005.004-.012.004-.012.004a.073.073 0 0 1-.067-.041c-.046-.114-.103-.222-.156-.327-.05-.101-.1-.201-.146-.308a.083.083 0 0 1 0-.056.258.258 0 0 1 .03-.04l-.001-.002a.07.07 0 0 1-.033-.048.094.094 0 0 1-.03-.027.058.058 0 0 1-.014-.05l-.004.005-.017.014c-.012.008-.028.013-.028.013s-.027 0-.036-.003c-.02-.007-.038-.024-.041-.045a.446.446 0 0 0-.034-.074c-.007-.012-.012-.022-.02-.032-.048.005-.073.027-.087.065l.019.017c.014.014.02.03.02.05a.071.071 0 0 1-.02.05c-.021.02-.024.034.038.127.043.059.089.13.08.206a.716.716 0 0 1 .13.275.073.073 0 0 1-.014.066.061.061 0 0 1-.048.02h-.016s-.026.02-.026.062c0 .024.005.047.016.06.014.016.024.02.04.02h.01c.03 0 .06.013.072.037.012.028.014.059-.011.078-.061.056-.15.087-.227.115-.037.013-.073.024-.104.04-.01.004-.02.008-.031.008l-.024-.007c-.074-.031-.11-.093-.14-.144a.284.284 0 0 0-.06-.08.06.06 0 0 1-.027-.068.067.067 0 0 1 .053-.052c.01-.001.019-.014.005-.093a.1.1 0 0 0-.043-.01s-.02.004-.03.01c-.011.007-.024.01-.024.01-.025 0-.037-.003-.05-.011-.117-.078-.123-.243-.131-.373a.63.63 0 0 0-.02-.158.066.066 0 0 1 0-.061.052.052 0 0 1 .02-.026c-.177-.302-.293-.704-.368-.997-.041-.065-.163-.294-.124-.41a.116.116 0 0 1 .042-.054c.044-.163.177-.378.286-.467.004-.014.007-.028.013-.042-.043.062-.095.12-.142.176a.965.965 0 0 0-.137.185.07.07 0 0 1-.057.045h-.007c-.024 0-.046-.01-.056-.034a.849.849 0 0 1-.112-.347c-.075-.147-.127-.303-.182-.468l-.03-.091a.062.062 0 0 1 .004-.05l.012-.021-.005.004c-.021 0-.033-.007-.047-.014-.103-.077-.146-.323-.153-.382a2.71 2.71 0 0 1-.235-.966.187.187 0 0 1-.052.007s-.022 0-.034-.003l-.022-.007c-.055-.031-.074-.084-.092-.128-.01-.027-.02-.051-.034-.058a.068.068 0 0 1-.033-.086c.02-.051 0-.106-.03-.137a.13.13 0 0 1-.062.013s-.021 0-.034-.003c-.028-.005-.047-.028-.052-.058-.007-.07-.04-.155-.07-.238a.898.898 0 0 1-.075-.271c-.06-.11-.323-.638-.177-.963a.396.396 0 0 1 .24-.213.196.196 0 0 1 .138-.12c.026-.021.052-.042.08-.062.082-.07.17-.145.283-.172.024-.035.064-.042.088-.047l.014-.003c.03 0 .056.008.068.027a.09.09 0 0 1 .018.04c.01.007.022.017.026.024.03.069.09.12.182.155.077-.07.16-.121.24-.172.07-.045.138-.084.193-.133a.025.025 0 0 1 .01-.008.075.075 0 0 1 .04-.033c.043-.015.072-.044.108-.077.012-.014.03-.028.044-.041a.073.073 0 0 1 .045-.018s.019.004.03.009a.747.747 0 0 0 .333.072c.153 0 .31-.036.478-.07.127-.03.258-.06.39-.071a17.258 17.258 0 0 0-.2-.022.066.066 0 0 1-.046-.024.193.193 0 0 1-.026-.048c-.025-.014-.034-.047-.028-.076a.077.077 0 0 1 .07-.065.2.2 0 0 0 .024.003c.069-.012.146-.017.23-.017.454 0 1.014.172 1.506.344.033.01.05.045.043.077-.003.03-.033.053-.065.053h-.005a3.556 3.556 0 0 1-.27-.031c.103.025.2.049.28.056.03.003.057.023.06.053l.024-.011.029.002c.186.048.308.143.358.282a.36.36 0 0 1 .02.083.647.647 0 0 0-.027-.152.066.066 0 0 1 .024-.07c.012-.01.028-.016.028-.016h.015c-.032-.01-.067-.017-.101-.024a.07.07 0 0 1-.038-.024c-.05-.058-.114-.106-.181-.158a1.413 1.413 0 0 1-.161-.141.058.058 0 0 1-.02-.038l-.003-.031h-.001a.064.064 0 0 1-.043.017s-.017 0-.024-.003a5.635 5.635 0 0 0-1.414-.357.075.075 0 0 1-.058-.052.079.079 0 0 0-.041-.058c-.006.003-.012.003-.02.006-.016.002-.038.006-.061.006l-.036-.002A.083.083 0 0 1 29.84.88a.215.215 0 0 1-.026-.053C29.81.82 29.808.81 29.806.809c-.031-.01-.043-.034-.043-.061.002-.031.027-.055.057-.062a1.5 1.5 0 0 1 .275-.041l-.01-.004c-.007-.003-.02-.007-.03-.014C30.035.62 30.02.614 30 .614h-.024c-.003.003-.008.003-.008.003a.071.071 0 0 1-.056-.026c-.175-.22-.527-.345-.964-.345-.184 0-.375.022-.554.067h-.01a.067.067 0 0 1-.031-.004c-.43-.177-1.188-.197-1.92-.214-.241-.01-.481-.014-.708-.025a.089.089 0 0 1-.046-.02c-.234.103-.487.405-.39.743a.454.454 0 0 0 .209.053c.014 0 .033 0 .048-.002h.007c.02 0 .04.01.053.027a.07.07 0 0 1 .009.067c-.038.085-.067.198-.041.288.096.019.213.029.352.029.16 0 .339-.012.51-.022.18-.013.367-.025.54-.025.095 0 .179.004.253.01.028.002.048.02.058.045a.06.06 0 0 1-.015.069l-.062.062c-.237.234-.46.452-.555.805a.069.069 0 0 1-.041.044.478.478 0 0 0-.045.014c-.033.009-.065.017-.083.03.025.464.16.847.305 1.254.04.122.084.24.123.363a.08.08 0 0 1-.01.064.078.078 0 0 1-.053.025l-.01-.001s-.013 0-.025.015l-.015.01c.004.057.026.097.05.145.04.065.08.144.065.275a.066.066 0 0 1-.048.058l-.02.005-.025.006c.095.125.236.313.194.464a.195.195 0 0 1-.072.103l-.001.02a.071.071 0 0 1-.05.052c-.818.196-1.657.406-2.5.615-2.073.513-4.213 1.042-6.17 1.448-.393.137-1.122.275-1.825.409l-.124.022a2.098 2.098 0 0 0-.28.083c-.163.057-.332.112-.464.112a.367.367 0 0 1-.077-.007c-.228-.055-.25-.292-.27-.5-.01-.088-.016-.174-.038-.24 0 0-.004 0-.004.004l-.02.002c-.018 0-.031-.01-.045-.02l-.01.015a.257.257 0 0 0-.021.024c.007.027.014.044.014.099a.076.076 0 0 1-.026.055.062.062 0 0 1-.026.014h-.02a.146.146 0 0 1-.06.014h-.018c-.015-.003-.031-.01-.038-.022a.05.05 0 0 1-.017.029.19.19 0 0 1-.151.067.358.358 0 0 1-.048-.004l-.026-.001a.167.167 0 0 0-.07.01c-.007.005-.018.007-.018.007s-.027 0-.032-.004a.07.07 0 0 1-.04-.037.113.113 0 0 1 .002-.097c.03-.056.1-.07.17-.082.026-.007.062-.014.072-.021l.02-.007a.073.073 0 0 1-.01-.027.082.082 0 0 1-.056-.078.064.064 0 0 1 .056-.068c.028-.004.057-.012.09-.02a.758.758 0 0 1 .155-.027.105.105 0 0 0 .005-.051c-.122-.354-.25-.777-.375-1.183a34.637 34.637 0 0 0-.366-1.162.558.558 0 0 1-.175-.09c-.061-.041-.116-.077-.186-.077 0 0-.024 0-.036.002-.002.002-.01.002-.01.002-.032 0-.06-.02-.066-.05a.127.127 0 0 1-.017-.09.07.07 0 0 1 .067-.051H13.839c.145 0 .365-.07.508-.114.058-.02.104-.032.139-.041.453-.444 1.349-.75 1.973-.811.09-.042.198-.06.309-.076.16-.024.324-.048.416-.141.039-.113.01-.29-.011-.385a.654.654 0 0 1-.078-.12.827.827 0 0 0-.096-.16c-.016-.002-.033-.01-.04-.023-.046-.061-.151-.103-.244-.14-.05-.021-.1-.038-.141-.062-.228.003-.474.015-.735.027-.41.015-.836.033-1.254.033-.608 0-1.085-.04-1.452-.121a.053.053 0 0 1-.033-.017l-.234-.012a13.754 13.754 0 0 0-.765-.027c-.15 0-.276.003-.387.013 0 .004-.001.007-.005.01a.068.068 0 0 1-.048.02h-.008c-.016-.002-.028-.002-.043-.002a.757.757 0 0 0-.22.045c-.078.024-.16.05-.243.05-.02 0-.036-.002-.036-.002-.18.088-.306.313-.328.57-.024.24.046.446.182.545.07.037.146.11.225.188.062.065.126.127.19.172.025.014.033.043.03.068a.075.075 0 0 1-.055.055c-.04.004-.07.03-.094.076a.438.438 0 0 0-.01.316c.226.14.625.16.912.16.164 0 .332-.007.495-.012.155-.007.306-.01.444-.01.036 0 .067.027.067.065a.26.26 0 0 1-.02.14c.029.046.05.09.075.135.077.155.124.248.302.248.023 0 .043-.003.069-.005a.146.146 0 0 1 .117-.091c.003-.004.007-.004.007-.004.034 0 .06.019.067.045.282.797.538 1.635.726 2.358a.068.068 0 0 1-.018.06.06.06 0 0 1-.048.023h-.01c-.012-.003-.024-.003-.024-.003-.093 0-.145.053-.153.106-.01.045.017.086.069.11a.282.282 0 0 1 .142-.048c.042 0 .062.017.072.03a.072.072 0 0 1 .014.042l.029.079c.04.114.098.282.098.396 0 .018-.005.036-.021.048h.015c.026 0 .047.014.06.034.259.499.056.822-.162 1.007-.01.01-.022.014-.038.016-.014.002-.027.002-.043.002-.087 0-.17-.021-.25-.038a1.028 1.028 0 0 0-.181-.036.066.066 0 0 1-.04-.02h-.003c-.042 0-.085-.015-.124-.026a.331.331 0 0 0-.11-.028h-.003c-.021 0-.04-.003-.052-.014-.014-.014-.031-.03-.031-.048v-.024c0 .003-.002.003-.002.007a.064.064 0 0 1-.06.038h-.01a77.547 77.547 0 0 1-1.621-.38c-.03-.005-.048-.03-.05-.06-.012-.176.134-.386.277-.587.106-.153.23-.328.213-.41a.125.125 0 0 0-.097-.054l-.02.002c-.057.015-.117.149-.167.247a.791.791 0 0 1-.141.23.072.072 0 0 1-.043.016c-.804.012-1.726.019-2.738.019-1.668 0-3.486-.017-4.994-.048-.003.004-.023.004-.043.004-.093 0-.217-.031-.361-.068-.155-.04-.33-.084-.468-.084-.15 0-.2.053-.22.115.214.178.445.246.867.258a.08.08 0 0 1 .048.026.07.07 0 0 1 .015.048 1.562 1.562 0 0 1-.024.169c-.02.122-.038.24-.01.345.039-.005.079-.013.115-.022a1.33 1.33 0 0 1 .224-.031h.003c.017 0 .035.007.046.02.014.01.02.028.02.047.003.129.013.256.023.378.009.132.019.27.02.415a.07.07 0 0 1-.042.065c-.065.022-.15.069-.232.115-.122.067-.203.112-.261.119-.08.05-.162.106-.246.16a5.263 5.263 0 0 1-.631.39l-.304.275c-.41.367-.765.684-1.1 1.065-.001.006-.006.01-.01.016a9.823 9.823 0 0 0-1.244 2.034c-.01.019-.025.034-.044.037l-.013.004c-.02 0-.032-.007-.044-.014l-.002-.003c-.025.039-.041.11-.033.13.016.02.016.049 0 .073a.065.065 0 0 1-.056.029s-.004 0-.005-.002H.229s-.02.004-.036.022l-.003.002c0 .016.009.024.019.043l.014.019a.063.063 0 0 1 .01.055.074.074 0 0 1-.038.043c-.031.012-.045.053-.057.117.033.019.072.05.067.117-.002.007-.003.015-.006.022-.047.09-.112.37-.162.574l-.022.095a.128.128 0 0 1 .065-.021c.017 0 .044.009.055.017a.068.068 0 0 1 .026.069c-.38 1.73-.062 4.12.71 5.328.113.173.257.457.345.625l.02.042c.162.28.45.599.73.907.182.2.37.409.529.61.038.007.078.035.084.078.002.002.002.005.002.01.157.095.325.238.475.366.147.129.29.25.383.289.005.002.01.005.014.009.355.282.916.553 1.46.82.113.057.228.11.334.163.172.014.4.096.624.174l.215.074c.03.01.049.04.045.072-.002.032-.031.055-.062.058-.2.007-.412.009-.62.012.142.062.287.122.429.188a77.205 77.205 0 0 0 4.71-.004c.026-.024.04-.058.076-.076.04-.04.084-.072.125-.106a15.386 15.386 0 0 1-.603-.027.072.072 0 0 1-.064-.062.072.072 0 0 1 .054-.073c.69-.147 1.334-.471 1.85-.732.144-.076.28-.144.402-.2.244-.164.543-.408.834-.646.21-.175.412-.342.584-.466a.07.07 0 0 1 .023-.073c.24-.21.476-.52.684-.791a4.93 4.93 0 0 1 .357-.44c0-.057.02-.11.06-.16a.31.31 0 0 1 .23-.102c.054 0 .106.014.15.042.105-.031.215-.045.323-.045.093 0 .18.01.26.034a2.29 2.29 0 0 1 .54-.056c.11 0 .227.005.36.015a.119.119 0 0 0 .037-.017.32.32 0 0 1 .103-.04c.059 0 .09.018.115.029a.117.117 0 0 0 .035.013.28.28 0 0 1 .15-.036.46.46 0 0 1 .166.03.126.126 0 0 1 .086-.037s.017 0 .024.003c.246.065.493.096.73.096 1.199 0 2.01-.815 2.29-1.636a7.347 7.347 0 0 1-.347-.06 4.425 4.425 0 0 1-.146-.023l-.002.004a.535.535 0 0 1-.103.158l-.034.04a.066.066 0 0 1-.052.025s-.017 0-.024-.003c-.101-.042-.13-.117-.117-.176a.185.185 0 0 1 .048-.09c-.065-.008-.13-.013-.201-.02h-.01c-.012.023-.027.038-.034.049a.055.055 0 0 0-.014.018.063.063 0 0 1-.037.057.049.049 0 0 1-.011.014.126.126 0 0 1-.093.043c-.083 0-.145-.077-.165-.157a.068.068 0 0 1 .03-.075.1.1 0 0 1 .027-.01v-.001a.064.064 0 0 1 .043-.012s.013 0 .02.002a.142.142 0 0 1 .014.007c-.126-.09-.392-.148-.662-.148a1.67 1.67 0 0 0-.204.012l-.01.002a.068.068 0 0 1-.054-.031l-.003-.003c-.011.017-.033.034-.076.034h-.043c-.05-.004-.29-.022-.356-.144-.001-.004-.005-.004-.007-.007-.095-.097-.14-.282-.048-.403.012-.02.03-.027.054-.027 0 0 .015 0 .023.003a.075.075 0 0 1 .045.067.664.664 0 0 0 .024.243c.028.012.04.037.057.062 0 .003 0 .005.003.007.05.013.122.029.179.04.083.018.129.027.146.054a.12.12 0 0 1 .059-.05.074.074 0 0 1 .044-.044c-.012-.1.053-.186.136-.231.01-.005.022-.007.022-.007.03 0 .047.006.06.019.002.004.019.005.028.007.019.002.05.003.077.022h.017a.23.23 0 0 1 .07.014c.008.004.02.007.03.01.02.004.038.018.048.035.006.007.007.017.007.024.014-.003.025-.005.033-.01.007-.005.019-.007.019-.007.026 0 .036.003.048.012.009-.005.015-.01.024-.012 0 0 .03.005.049.01.009-.007.024-.01.024-.01h.015c.03.003.05.024.062.048.003.008.003.015.005.024a.057.057 0 0 1 .033-.033l.022-.005c.026 0 .039.004.05.014l.007.007.015-.007c.026 0 .045.008.057.022a.068.068 0 0 1 .019.043h.002s.017 0 .03.004a.07.07 0 0 1 .03-.016l.026.004c.008-.02.027-.03.05-.033.06 0 .085.024.097.038a.123.123 0 0 1 .016.096.367.367 0 0 0 .067.019c0-.005.003-.01.005-.012a.193.193 0 0 1 0-.048.08.08 0 0 1 .026-.052.085.085 0 0 1 .04-.012s.012 0 .016.002a.482.482 0 0 0 .1.01c.108.009.227.017.287.103a.192.192 0 0 1 .029.155c.234.065.456.126.72.175.025.007.044.023.05.043a.1.1 0 0 1-.001.064.202.202 0 0 1 .046.014.07.07 0 0 1 .043.04.07.07 0 0 1-.008.059c-.024.038-.021.107-.021.179 0 .052.002.107-.007.162l.02.017c.018.017.03.03.046.038a.218.218 0 0 1 .113-.028c.105 0 .206.054.292.095l.01.005c.114-.031.244-.038.34-.038.224 0 .537.04.73.152a.532.532 0 0 1 .203-.037l.06.002.05.002a.354.354 0 0 0 .115-.016c.029-.135.084-.233.134-.32.076-.13.136-.237.084-.441-.024-.01-.041-.026-.057-.038-.013-.012-.02-.015-.027-.02a.587.587 0 0 1-.153.022c-.072 0-.13-.012-.19-.024a.68.68 0 0 0-.171-.024.5.5 0 0 0-.15.024c-.006 0-.013.003-.013.003-.03 0-.052-.014-.062-.033a.545.545 0 0 0-.195-.184.071.071 0 0 1-.043.014c-.416 0-.416-.08-.418-.105 0-.008.002-.015.006-.022 0-.007 0-.01.005-.017a.555.555 0 0 0-.082-.007c0 .034-.03.065-.068.065h-.135c-.251 0-.86-.01-1.161-.117h-.008c-.103 0-.221-.025-.334-.051a1.103 1.103 0 0 0-.226-.041c-.018 0-.028.003-.028.003-.012.003-.021.003-.021.003H19.805a1.258 1.258 0 0 1-.157.01c-.225 0-.39-.054-.566-.111l-.098-.031a.056.056 0 0 1-.034-.026h-.012a.536.536 0 0 1-.201-.055c-.055-.02-.11-.043-.155-.044a.07.07 0 0 1-.062-.062.01.01 0 0 1 0-.011h-.006s-.013-.001-.018-.003a.342.342 0 0 0-.239 0 .132.132 0 0 1-.013.003.077.077 0 0 1-.064-.034.074.074 0 0 1-.003-.06.1.1 0 0 1 .03-.095.084.084 0 0 1 .047-.017s.015 0 .019.004c.024.006.058.01.09.01.075.01.162.017.207.086a.074.074 0 0 1 .012.045c.01-.004.024-.004.024-.004a.56.56 0 0 1 .203.048.458.458 0 0 0 .143.04c.017 0 .025-.002.034-.005.01-.006.023-.01.023-.01.018 0 .03.004.037.008.007-.002.01-.002.014-.005a.069.069 0 0 1 .052-.045.349.349 0 0 1 .05-.003c.072 0 .144.02.214.039a.983.983 0 0 0 .116.029.136.136 0 0 1 .065-.063l-.005-.002c-.01.004-.017.004-.017.004-.024 0-.043-.004-.056-.014a.17.17 0 0 1-.06-.11c-.005-.073.049-.131.088-.174a.776.776 0 0 1 .02-.026.067.067 0 0 1 .05-.026h.002c.02 0 .038.007.048.019.088.085.102.222.114.356l.007.074a.038.038 0 0 1-.002.02c.059.014.12.025.184.039-.004-.086.053-.128.087-.15L20 18.32c-.046-.031-.103-.072-.106-.141 0-.07.06-.117.079-.132a.06.06 0 0 1 .04-.016s.022.004.03.007c.162.076.169.392.167.492.108.02.213.04.31.072a.14.14 0 0 1 .055-.01c.032 0 .065.01.09.03l.019-.003a2.767 2.767 0 0 0-.24-1.054l-.038-.056c-.175-.265-.191-.303-.184-.341.007-.044.042-.08.153-.175.022-.021.043-.038.05-.048.034-.042.08-.103.14-.177.286-.366.82-1.051 1.065-1.257a75.798 75.798 0 0 1 3.007-3.641c.16-.287.519-.722.75-.911.292-.45.728-.952 1.15-1.437l.278-.32a.067.067 0 0 1 .05-.022h.013a.072.072 0 0 1 .052.046h.002c.106-.122.2-.254.292-.385.179-.247.363-.507.632-.691.013-.07.12-.14.19-.14 0 0 .037.009.05.02a.26.26 0 0 1 .053.144v.019c.026.012.04.039.037.064-.013.13.054.213.133.306.07.086.15.185.17.33a.065.065 0 0 1-.014.048.061.061 0 0 1-.046.025c-.02.013-.04.026-.067.03-.02.04-.054.069-.081.093-.038.027-.06.048-.065.079.026.03.045.034.082.034.026 0 .06-.002.1-.007l.01-.002c.018 0 .036.009.048.023.006-.004.009-.005.01-.007l.02-.021a.093.093 0 0 1 .036-.008s.029.005.039.012c.024.019.06.072.056.12.09.124.07.168.06.184a.076.076 0 0 1-.05.04c-.006.007-.007.012-.014.017 0 .003 0 .007-.002.01a.07.07 0 0 1-.06.038h-.015a.913.913 0 0 0-.062.055c-.078.065-.17.143-.284.158a.582.582 0 0 1-.144.187.073.073 0 0 1-.035.05c-1.562 1.052-2.762 2.847-3.288 4.922a.069.069 0 0 1-.055.05h-.01s-.016-.002-.021-.004c0 .002-.002.002-.002.002-.012.022-.035.083-.003.132.01.02.01.047 0 .066a.069.069 0 0 1-.061.034c-.003.004-.008.012-.015.017a.212.212 0 0 0 .024.035c.017.027.05.075.017.122a.068.068 0 0 1-.053.029.7.7 0 0 0-.007.076l.009-.002a.1.1 0 0 1 .067.033.074.074 0 0 1 .007.065c-.085.832-.026 2.07.135 2.78a.114.114 0 0 1 .019.019c.022-.01.03-.02.033-.023a.075.075 0 0 1 .053-.026s.01 0 .017.002a.07.07 0 0 1 .05.053c.175 1.04.789 2.216 1.044 2.675 1.284 1.867 2.767 2.952 4.806 3.514.034.007.057.047.045.083a.068.068 0 0 1-.064.048s-.012 0-.017-.002h-.003a.33.33 0 0 0-.076.009c-.024.003-.044.007-.058.007a.083.083 0 0 1-.052-.021c-.131.01-.271.009-.404.017.394.055.784.124 1.165.22.635.01 1.28.017 1.932.017a67.8 67.8 0 0 0 2.103-.03.493.493 0 0 1 .065-.197 58.814 58.814 0 0 0-.558-.006c-.034 0-.064-.021-.067-.055-.003-.035.015-.066.048-.073a8.658 8.658 0 0 0 4.294-2.747c.255-.29.54-.763.77-1.145.096-.16.188-.307.262-.423l.034-.09c.315-.805.638-1.635.72-2.66a.071.071 0 0 1 .035-.052c.068-1.258-.092-2.552-.434-3.48z" mask="url(#f)"/>
        </g>
        <path fill="#696D70" d="M23.02 19.687a.106.106 0 0 1-.013.1c-.031.04-.088.062-.167.062a.423.423 0 0 1-.227-.06c-.027-.021-.034-.061-.015-.088a.061.061 0 0 1 .055-.033s.022.002.03.009a.047.047 0 0 0 .016.003s.042-.012.062-.026c.035-.02.074-.046.124-.046.04 0 .079.017.117.048a.09.09 0 0 1 .019.03M22.506 19.322a.744.744 0 0 0 .04-.1.074.074 0 0 1 .04-.039c.007-.004.017-.006.017-.006.016 0 .025.002.037.007.011.007.047.007.072.007.038 0 .084.004.122.017.008-.003.015-.003.029-.003 0 0 .017 0 .034.003.035.007.06.04.053.076-.015.114-.128.19-.276.19a.542.542 0 0 1-.14-.02.073.073 0 0 1-.043-.036.06.06 0 0 1-.002-.055l.017-.04zM21.506 19.556a.116.116 0 0 1 .016-.003c.022 0 .036.003.047.013l.002.004a.236.236 0 0 0 .043-.028c.045-.027.109-.069.198-.069a.32.32 0 0 1 .079.011c.019.003.033.017.043.034.009.017.01.036.002.055a.35.35 0 0 0-.011.117.056.056 0 0 1-.017.048.064.064 0 0 1-.048.021h-.077c-.155 0-.256-.01-.299-.067a.095.095 0 0 1-.019-.088c.003-.022.022-.039.041-.048M8.651 19.138a.074.074 0 0 1-.05-.029c-.021-.005-.034-.019-.045-.038-.05-.117.053-.175.105-.203.017-.01.049-.027.055-.038a.065.065 0 0 1 .059-.039h.005a.073.073 0 0 1 .062.045.244.244 0 0 1-.023.18.223.223 0 0 1-.141.12l-.01.004s-.016 0-.017-.002M8.652 19.228a.071.071 0 0 1-.013.064c-.01.01-.015.02-.024.03-.031.038-.066.083-.136.104-.006 0-.013.003-.013.003a.071.071 0 0 1-.07-.048c-.019-.062.018-.117.05-.158.013-.021.034-.045.037-.064a.065.065 0 0 1 .066-.053s.004 0 .006.002c.045.005.07.036.08.087.01.01.017.02.018.033M8.166 15.112a.05.05 0 0 1-.005.022h.003c.012.017.02.035.016.054-.004.015-.005.031-.014.043v.036a.066.066 0 0 1-.005.025c-.007.012-.014.025-.022.035.011.021.017.046.006.07-.029.064-.072.098-.124.098-.042 0-.075-.024-.103-.048a.073.073 0 0 1-.036-.03.165.165 0 0 0-.039-.032l-.017.007a.06.06 0 0 1-.042-.014c-.055-.04-.036-.103-.029-.134.003-.017.01-.034.005-.043a.063.063 0 0 1 0-.043c-.002-.003-.002-.01-.002-.013a.308.308 0 0 1 .01-.112c.004-.026.01-.046.004-.074a.077.077 0 0 1 .021-.059.064.064 0 0 1 .045-.018l.007.001.003-.012c.005-.015.008-.036.021-.053a.064.064 0 0 1 .037-.034c.06-.014.136-.038.212-.045h.008c.018 0 .037.007.05.02.014.011.02.031.02.052-.003.021 0 .041 0 .066.003.058.006.123-.027.168 0 .003-.003.003-.005.007v.008c.002.014.004.033.002.052M7.117 12.797c-.017-.127-.036-.246-.05-.346a.063.063 0 0 1 .05-.073.124.124 0 0 1 .022-.006c.062 0 .112.028.162.054a.426.426 0 0 0 .08.038.06.06 0 0 1 .044.04.066.066 0 0 1 .058.042c.102.242.145.574.181.89.012.104.026.209.04.308a.064.064 0 0 1-.052.074.397.397 0 0 1-.084.014l-.006.082c-.01.227-.01.262-.086.262a.076.076 0 0 1-.027-.005.08.08 0 0 0-.005.027c-.004.033-.03.055-.066.055a.071.071 0 0 1-.067-.058l-.008-.06a1.097 1.097 0 0 1-.016-.27l-.005-.007a.217.217 0 0 1-.005-.152c-.056-.19-.112-.57-.16-.91M11.174 8.12c.065-.01.148-.013.24-.013.138 0 .276.01.362.028a.07.07 0 0 1 .051.06.069.069 0 0 1-.04.069.53.53 0 0 1-.202.032c-.09 0-.189-.013-.286-.027-.039-.004-.08-.011-.124-.014a.07.07 0 0 1-.056-.067c0-.033.024-.064.055-.067M10.148 7.989l.012.002c.03.007.052.03.053.06.016.167-.073.51-.16.713a.077.077 0 0 1-.046.036.38.38 0 0 1-.027.006c-.037 0-.052-.011-.064-.018h-.002a.065.065 0 0 1-.05-.022.068.068 0 0 1-.01-.062c.057-.222.122-.476.234-.68.014-.021.034-.035.06-.035M6.437 7.976l.05-.001c.053 0 .105.005.155.016.025.007.046.024.049.048.047.16.086.357.119.601a.069.069 0 0 1-.055.075c-.017.002-.038.008-.06.01-.048.011-.103.026-.15.026a.146.146 0 0 1-.051-.01c-.026-.008-.047-.03-.047-.059-.008-.09-.022-.177-.034-.258-.017-.12-.036-.242-.038-.378a.065.065 0 0 1 .062-.07M5.079 7.999a.063.063 0 0 1 .05-.022h.401c.084-.002.164-.004.243-.004.172 0 .3.005.415.018.034.003.058.03.06.065.007.144.026.24.048.35.017.086.036.186.055.322a.07.07 0 0 1-.053.072c-.368.095-.823.21-1.04.313-.01.005-.02.007-.02.007a.102.102 0 0 1-.035-.005.077.077 0 0 1-.038-.043c-.05-.164-.062-.404-.074-.638a7.089 7.089 0 0 0-.028-.383.074.074 0 0 1 .016-.052M8.312 20.271a.272.272 0 0 1-.077-.223.061.061 0 0 1 .05-.059c.003-.003.008-.003.008-.003.03 0 .05.01.064.03.005.008.012.014.018.021a.197.197 0 0 1 .061.107.056.056 0 0 1 .017.024.08.08 0 0 1-.014.076.07.07 0 0 1-.03.053.066.066 0 0 1-.038.01.065.065 0 0 1-.052-.026l.033-.024c-.002-.002-.006-.002-.007-.003l-.033.017zM8.139 20.567c0 .019-.007.04-.021.053a.075.075 0 0 1-.048.019s-.005 0-.007-.002a.19.19 0 0 1-.125-.056l-.014-.014c-.03-.005-.048-.019-.057-.038a.08.08 0 0 1-.041-.04.036.036 0 0 1-.01-.022v-.007a.146.146 0 0 1-.04-.072.061.061 0 0 1 .015-.062.064.064 0 0 1 .047-.024.118.118 0 0 1 .093-.01.12.12 0 0 1 .05.041c.026 0 .044.009.058.028l.004.007c.018.01.03.022.044.041a.058.058 0 0 1 .007.021c.024.017.034.049.024.079a.122.122 0 0 1 .02.058M14.176 16.977a.07.07 0 0 1 .029-.052.236.236 0 0 1 .026-.01s.028 0 .034.005c.016.004.036.005.057.01.03.005.062.009.089.02a.062.062 0 0 1 .043.049c.009.048-.008.075-.017.09a.061.061 0 0 1-.06.078s-.022-.004-.033-.008c-.003-.002-.017-.005-.03-.006-.033-.008-.086-.017-.116-.066a.086.086 0 0 1-.008-.035c-.015-.023-.015-.052-.014-.075M18.712 19.6c.023.01.038.032.04.056.024.02.037.055.044.074a.07.07 0 0 1-.014.06.059.059 0 0 1-.05.027l-.026.009a.173.173 0 0 1-.072.019h-.005l-.023.017-.002.004a.073.073 0 0 1-.05.037 1.382 1.382 0 0 1-.267.026c-.145 0-.293-.022-.468-.07a.056.056 0 0 1-.038-.028.785.785 0 0 1-.364-.19c-.015-.013-.022-.026-.022-.044-.008-.084.064-.128.099-.15a.076.076 0 0 1 .023-.016l.03-.01c.03 0 .055.012.066.025a.113.113 0 0 1 .026.079.15.15 0 0 1 .072-.02c.082 0 .132.067.173.122.003.005.006.012.014.015a.2.2 0 0 1 .02-.027.074.074 0 0 1 .035-.018c.02-.003.038-.006.053-.006.093 0 .14.053.165.11a.277.277 0 0 1 .157-.062c.046 0 .088.017.131.048.003-.007.003-.014.008-.021a.06.06 0 0 1 .01-.017l.003-.01a.069.069 0 0 1 .035-.038.282.282 0 0 1 .1-.02c.036 0 .07.008.098.02M18.563 17.297c-.09 0-.177-.079-.2-.186a.066.066 0 0 1 .035-.075.17.17 0 0 1 .061-.012c.033 0 .07.008.105.018.037.007.073.018.104.018.025 0 .044.01.058.03.012.016.02.04.01.06-.049.133-.139.147-.173.147M19.051 16.843c-.007.008-.01.015-.018.021-.024.031-.06.087-.144.087a.069.069 0 0 1-.065-.053.095.095 0 0 0-.01-.023.166.166 0 0 1-.019-.052.156.156 0 0 1-.116.047.196.196 0 0 1-.15-.073c-.009-.012-.018-.024-.023-.037a.225.225 0 0 0-.026.031l-.017.018a.066.066 0 0 1-.052.024h-.005l-.02-.002c-.038-.002-.136-.008-.143-.104 0-.015.003-.032.014-.041a.098.098 0 0 1 .008-.063.066.066 0 0 1 .06-.038h.16c.017 0 .035.005.046.017.008-.003.018-.003.018-.003h.022l.102.02.113.026a.066.066 0 0 1 .05.044l.015-.006h.068c.018 0 .036.01.05.023.044.003.077.024.096.06a.07.07 0 0 1-.014.078M29.317 10.9l-.002-.001s.005 0 .005.002a.085.085 0 0 0 .014-.005c.01-.004.01-.004.01-.012-.017.007-.029.015-.044.022l.017-.005M33.017 16.037c.001.003.005.005.007.008.012-.006.014-.024.025-.034-.01.007-.018.02-.032.026M30.337 12.82l.012.01a.757.757 0 0 0-.041-.078c.01.024.02.045.029.069M32.144 16.197l.012-.009.015.002c-.015-.014-.04-.02-.06-.029.012.01.02.022.033.036M27.795 1.702l-.03.007c.016.003.03.003.045.01l-.015-.017zM26.85 4.38c.002-.01-.002-.017-.002-.027-.002.01 0 .017-.004.03.002-.003.004-.003.007-.003M14.927 7.14c-.002-.001-.009-.002-.016-.006-.005.012-.006.024.011.045.003-.017.008-.034.005-.038M13.055 4.251c.015.004.03.002.048.005V4.25h-.002l-.046.002M14.315 7.433h.003c-.003-.002-.003-.004-.003-.004v.004zM14.128 8.152a3.694 3.694 0 0 0-.349.454.319.319 0 0 1 .077-.055c.002-.011.003-.023.011-.035l.054-.072c.071-.094.16-.213.277-.313a.156.156 0 0 1-.07.02M26.85 3.875a.438.438 0 0 1-.021-.064c0 .023.006.042.006.064h.016zM27.215 1.245c.005-.003.005-.005.009-.01h-.036a.197.197 0 0 0 .027.01M14.944 7.043h-.002l.031.012v-.007c-.01-.003-.019-.003-.029-.005M15.13 6.897l.019.02c-.005-.006-.005-.024-.009-.03-.003.006-.008.006-.01.01M2.394 22.55c.01.022.034.046.044.068l.004-.001s.009 0 .01.003c-.02-.022-.041-.047-.058-.07M13.861 22.56a.748.748 0 0 1 .082-.04l-.016-.01c-.02.013-.044.033-.066.05M11.333 3.593l.01-.007a.175.175 0 0 1-.032-.03.174.174 0 0 0 .022.037"/>
        <g transform="translate(34 23.95)">
            <mask id="h" fill="#fff">
                <use xlink:href="#g"/>
            </mask>
            <path fill="#696D70" d="M.855.7c.192 0 .41.005.626.008C1.29.698 1.108.687.938.675.907.684.882.694.855.7" mask="url(#h)"/>
        </g>
        <g transform="translate(40 12.95)">
            <mask id="j" fill="#fff">
                <use xlink:href="#i"/>
            </mask>
            <path fill="#696D70" d="M.375.522C.37.486.363.448.363.417.36.42.35.42.35.42c0 .03.012.065.024.1" mask="url(#j)"/>
        </g>
        <path fill="#696D70" d="M1.639 11.525c.07-.08.143-.155.215-.23-.098.087-.188.17-.255.226l.019-.003s.014.003.02.007M29.108 8.174c.007-.019.01-.036.021-.055 0-.002-.002-.002-.002-.005-.009.007-.024.007-.028.013.005.014.007.031.009.047M32.216 1.777c.106.057.248.135.36.224a1.299 1.299 0 0 0-.455-.276c.024.014.057.034.095.052M31.65 2.917c-.306.442-.619.861-1.084 1.171a.087.087 0 0 1-.033.014.184.184 0 0 1-.05.036c-.009.005-.017.007-.017.007a.082.082 0 0 1-.062-.023.08.08 0 0 1-.016-.053.828.828 0 0 1-.446.41l-.031.035c.011 0 .027.005.037.014a.066.066 0 0 1 .026.045c.081-.104.176-.202.241-.24.022-.068.074-.077.106-.077.021 0 .045.01.057.026.009.012.021.026.024.046.208-.22.435-.433.667-.649.21-.196.427-.4.64-.616.006-.05.025-.124.086-.137.049-.126.1-.224.173-.31.048-.182.093-.385.086-.588 0 .311-.259.681-.395.875l-.009.014zM31.332 1.379c.048.02.093.04.134.062.026.003.058.01.084.01l-.218-.072M32.627 2.054l.002.01a.2.2 0 0 1 .06.035c-.024-.026-.053-.043-.077-.067.005.006.012.013.015.022M32.56 2.075c-.002-.002.002-.002.002-.002-.007-.007-.014-.01-.021-.017.005.007.014.012.019.019M32.897 4.15c-.007.01-.014.02-.026.026a1.101 1.101 0 0 1-.072.194c.064-.12.122-.246.175-.378.016-.041.019-.086.028-.131a1.984 1.984 0 0 1-.105.289M27.842 1.69h.003c0-.004.004-.005.004-.01-.004.003-.007.008-.007.01M29.89 4.616c.003-.01.014-.026.019-.035-.033.026-.06.042-.09.064l.07-.03M28.587 6.409l-.024.024.003.009c.002-.01.016-.023.021-.033M31.442 1.062a.454.454 0 0 1 .072.18l.025.007a.485.485 0 0 0-.097-.187M29.348 8.848v.002c0 .003 0 .007.003.01a.035.035 0 0 0-.003-.012M30.514 7.292c-.015.024-.043.055-.067.083.029-.023.06-.052.093-.069l-.026-.014M31.028 8.561c.009.003.016.014.026.024.017-.003.037-.007.058-.008l-.084-.016zM27.294 2.072a.055.055 0 0 1-.01-.016c-.009.002-.017.007-.026.01.014.002.022.002.036.006M27.798 4.047l-.002.01h.002zM27.423 1.967l-.014-.031s-.022.004-.036.01c.017.004.034.005.05.02M38.91 11.208c-.005-.017-.014-.034-.016-.052-.001.004-.008.01-.011.014.006.014.02.024.027.038M33.247 15.788s-.007 0-.01.002v.01a.063.063 0 0 1 .01-.012M33.51 16.483l-.009-.008v.002c0 .002.004.002.01.006M32.94 16.082l.014.002v-.021c-.007.007-.005.016-.014.019M29.358 10.926c-.012 0-.024 0-.032-.005l-.015.01.047-.005zM26.677 13.78v.004l.018.006a.06.06 0 0 1-.018-.01M32.969 16.084h.003l-.002-.002zM17.444 13.864h-.002c.002.002.002 0 .002.002v-.002zM31.02 10.132c.003.024.001.03.001.03-.014 0-.026-.016-.036-.016 0 0-.009.005-.009.017.026.012.022.053.057.057.01-.016.021-.023.021-.023.02 0 .032.005.05.007.006-.033-.024-.029-.013-.072h-.072zM17.738 8.083c-.021.007-.043.01-.06.017l.07-.015-.01-.002zM30.707 10.808v-.003.003M34.812 10.203l.016-.03c-.006-.006-.013-.01-.018-.013 0 .017 0 .038.002.043M37.62 21.667h.002a.327.327 0 0 0-.001 0M39.702 17.459c-.026-.004-.05-.004-.072-.005.022 0 .046.003.072.005M31.587 15.886h-.008c.01.012.023.014.034.024-.005-.01-.012-.012-.017-.022l-.01-.002zM31.958 16.496l.027.003c-.003-.007-.008-.01-.013-.017l-.014.014M31.599 16.474l-.007.009.02.003-.013-.012M31.556 15.982l.024.005c-.015-.03-.04-.048-.064-.074a.428.428 0 0 1 .04.07M31.872 16.32c.02 0 .032.004.046.008l.005-.002c-.008-.002-.013-.005-.02-.01-.014-.007-.026-.017-.04-.028a.065.065 0 0 1-.052.026.584.584 0 0 1-.297-.065.052.052 0 0 1-.036.02c.11.028.21.059.292.097.016-.024.048-.045.102-.045M31.81 16.247a.244.244 0 0 0-.065-.098.281.281 0 0 1 .043.096l.017.002h.005zM31.848 16.512c.007-.002.014-.002.02-.005a.572.572 0 0 0-.135-.083.546.546 0 0 1 .115.088"/>
    </g>
</svg>
