<svg xmlns="http://www.w3.org/2000/svg" xmlns:xlink="http://www.w3.org/1999/xlink" width="65" height="86" viewBox="0 0 65 86">
    <defs>
        <path id="a" d="M0 .258h64.525V93H0z"/>
    </defs>
    <g fill="none" fill-rule="evenodd">
        <path fill="#7D776A" d="M43.486 56.409a7.63 7.63 0 0 1-1.867.837c-.666.198-1.348.349-2.028.45-.459.06-.98.126-1.461.002-.425-.093-.83-.396-1.141-.852-.269-.385-.478-.88-.626-1.47a6.516 6.516 0 0 1-.18-1.24c.47-.069.895-.162 1.296-.282.768-.222 1.387-.518 1.896-.907.544-.426.906-.921 1.035-1.413.037.029.075.057.112.088.321.245.603.417.885.54a3.947 3.947 0 0 0 2.094.29c.752-.098 1.405-.47 1.89-.784l.153-.102c.402-.265.815-.538 1.197-.848a9.01 9.01 0 0 1-.535 2.598c-.621 1.292-1.587 2.39-2.72 3.093m-14.104-5.832c.139.008.275.016.411.018l.94.015c.192-.001.393-.026.556-.074l.126.042c.132.045.264.094.397.143.45.165.913.336 1.42.373.335.012.651-.106.929-.215l.032-.013c.268-.105.55-.2.862-.29a7.133 7.133 0 0 1 1.73-.272c.207.036.415.059.625.082.205.023.412.046.617.082a4.818 4.818 0 0 1 2.096.855c-.23.388-.604.72-1.17 1.035-.556.304-1.187.486-1.73.623-1.313.314-2.664.42-3.813.484-1.588.09-2.788.048-3.888-.135-.745-.133-1.326-.309-1.83-.553a3.092 3.092 0 0 1-.768-.513 1.576 1.576 0 0 1-.392-.554c.494-.558.932-.878 1.419-1.038.457-.147.953-.12 1.431-.095m5.584-.286a9.46 9.46 0 0 0-.918.317c-.272.11-.533.211-.797.199-.455-.03-.903-.191-1.336-.348l-.244-.087c.094-.053.182-.115.265-.184.323-.263.54-.58.693-.83a8.62 8.62 0 0 0 .243-.434.693.693 0 0 1 .214-.247.877.877 0 0 1 .692-.132.91.91 0 0 1 .338.155l.37.3c.253.198.507.394.769.587.054.037.108.077.161.115.182.133.37.268.582.37-.352.046-.698.12-1.032.219M28.7 57.524c-.314.183-.656.31-1.02.377-.266.058-.545.068-.84.078l-.302.013c-.758.02-1.564.027-2.352-.118a8.876 8.876 0 0 1-1.11-.268l-.04.114.038-.115-.101-.033h-.001-.001a7.226 7.226 0 0 1-1.01-.411 4.993 4.993 0 0 1-1.757-1.438c-.82-1.099-1.127-2.597-.849-4.133l.112.055c.472.23.963.458 1.49.693.69.318 1.28.541 1.852.7.617.17 1.354.308 2.143.049.16-.063.38-.177.51-.3.147-.114.272-.225.379-.336.171-.164.33-.337.492-.517.08.179.201.358.366.535.218.229.494.436.817.616.523.29 1.129.51 1.903.691.394.093.823.173 1.34.248a7.638 7.638 0 0 1-.635 1.876c-.405.773-.87 1.305-1.424 1.624m15.389-.356a6.747 6.747 0 0 0 1.494-1.74c.364-.588.645-1.253.858-2.03 0-.003.002-.005.003-.008.166-.448.3-.934.4-1.444a8.066 8.066 0 0 0 .155-1.5v-.07l-.002-.002.001-.202-.142.126-.001-.001-.069.058c-.537.473-1.052.797-1.574.99-.514.19-1.104.32-1.806.393a3.832 3.832 0 0 1-1.726-.19 4.526 4.526 0 0 1-.797-.393 6.826 6.826 0 0 0-.879-.48 5.41 5.41 0 0 0-1.315-.4 6.239 6.239 0 0 0-1.766-.267c-.08 0-.16.002-.239.006l-.063.003a2.345 2.345 0 0 1-.422-.142c-.243-.102-.442-.272-.655-.451l-.089-.076c-.246-.208-.48-.422-.693-.636l-.342-.34a1.373 1.373 0 0 0-.499-.296 1.456 1.456 0 0 0-1.172.108c-.174.094-.328.23-.458.405l-.02.026a4.224 4.224 0 0 1-.261.325c-.21.234-.42.413-.624.53-.124.07-.222.113-.312.132a.97.97 0 0 1-.311.024l-.127-.002a5.101 5.101 0 0 0-.895.032c-.71.084-1.396.399-1.945.65-.663.293-1.246.714-1.68 1.045l-.282.215c-.16.121-.317.24-.475.354l-.382.267a1.4 1.4 0 0 1-.32.176c-.502.182-1.15.13-1.715.068-1.15-.152-2.3-.494-3.346-.992l-.257-.127-.017-.009-.148-.077v.003l-.034.156c-.351 1.65-.038 3.284.86 4.48a5.275 5.275 0 0 0 1.845 1.509c.315.16.657.298 1.046.425l.042-.113-.04.113.105.035c.352.11.735.207 1.137.285.77.155 1.575.259 2.397.309l.611.027c.249-.002.45-.018.637-.046.438-.07.855-.225 1.206-.447.86-.532 1.325-1.315 1.561-1.878a6.22 6.22 0 0 0 .495-2.02c.744.098 1.522.163 2.377.197.618.017 1.53.025 2.46-.085-.024.41-.017.837.02 1.272.068.677.22 1.245.464 1.734a3.26 3.26 0 0 0 1.364 1.422c.46.26 1.021.396 1.615.396.142 0 .285-.008.43-.023.874-.111 1.625-.304 2.297-.59.785-.337 1.464-.747 2.02-1.219M29.18 24.734c.341-.283.766-.635 1.178-.797a2.83 2.83 0 0 0 .166-.104c.101-.066.196-.128.3-.162.198-.066.4-.098.602-.098.74 0 1.488.43 2.113 1.226.417.86-.644 1.706-1.58 2.455-.505.403-.981.784-1.221 1.151-.355.544-.464 1.225-.57 1.883-.202 1.273-.377 2.372-2.136 2.377-.626-.13-1.075-.47-1.334-1.007-.675-1.395.044-3.789.741-4.967a6.984 6.984 0 0 1 1.616-1.854l.125-.103zm-1.202 8.259l.07.007.002-.002h.006c1.131 0 1.941-.455 2.34-1.318.198-.424.203-.86.21-1.282.004-.352.008-.685.114-1.011.296-.919 1.039-1.582 1.796-2.16 1.084-.828 1.925-1.624 1.232-2.983-.347-.679-.902-1.11-1.562-1.214-2.285-.364-4.92 2.643-5.593 4.4-.266.694-1.066 3.068-.203 4.513.33.55.86.904 1.588 1.05zM40.284 14.528c.798.247 1.52.454 2.28.472h.006c.801-.032 1.549-.29 2.277-.538.4-.155.752-.31 1.077-.479.384-.202.724-.394 1-.702L47 13.18l-.162-.18-.085.082c-.262.254-.595.42-.915.582l-.037.017c-.318.152-.666.292-1.06.43-.365.132-.73.248-1.085.341l-.09.023c-.33.085-.67.174-.999.177-.725-.007-1.429-.199-2.205-.43a22.713 22.713 0 0 1-2.16-.789l-.11-.034-.092.24.112.05c.715.316 1.445.6 2.172.839"/>
        <g transform="translate(0 -7)">
            <mask id="b" fill="#fff">
                <use xlink:href="#a"/>
            </mask>
            <path fill="#7D776A" d="M19.45 4.315c.2.436.461.815.735 1.2.488.65 1.17 1.444 2.113 1.819.695.342 1.34.934 1.913 1.76.454.657.871 1.43 1.275 2.367.462 1.079.73 2.248.987 3.378.105.464.212.929.338 1.416l.013.048c.033.129.066.259.103.387.146.513.294.929.466 1.307.198.453.443.858.726 1.202.356.439.717.737 1.107.912.432.187.903.185 1.286 0l.022.053c.06.14.118.283.187.427l.2.479.054.136.005.014a3.083 3.083 0 0 1-.1.167l-.596.072.506.06a4.153 4.153 0 0 1-.704.766.639.639 0 0 0-.159-.155c-.1-.074-.199-.142-.297-.21-.12-.083-.239-.165-.358-.256-.219-.16-.42-.332-.634-.514a11.496 11.496 0 0 0-.615-.502 2.887 2.887 0 0 0-.76-.4 1.503 1.503 0 0 0-.909-.02 2.22 2.22 0 0 0-.42.174 1.794 1.794 0 0 1-1.007.21 3.302 3.302 0 0 0-1.057-.247 1.942 1.942 0 0 0-.593.057 1.43 1.43 0 0 0-.286.118l-.084.045a1.231 1.231 0 0 1-.136.068c-.263.12-.572.167-.92.144a5.782 5.782 0 0 1-.502-.058l-.046-.007c-.16-.025-.36-.058-.562-.008-.327.082-.579.254-.822.42a5.514 5.514 0 0 1-.169.114 7.35 7.35 0 0 1-.868.53c-.518.243-1.212.246-1.904.01l-.827-.281.643.583c.116.106.231.215.344.324.146.14.294.282.45.418-2.277.163-4.283.436-6.117.835-.04-1.094-.063-1.943-.074-2.737a91.28 91.28 0 0 1-.002-4.858l.01-.23c.055-1.514.114-3.08.407-4.565.083-.416.191-.777.33-1.103.132-.317.294-.658.51-1.071a14.8 14.8 0 0 1 1.304-1.983c1.033-1.323 2.19-2.436 3.435-3.307.566-.396 1.18-.754 1.831-1.068l.01.04-.13.032.032.176c.075.427.154.868.315 1.312zM35.903 92.37c-.886.133-1.754.227-2.579.282-.933.06-1.779.069-2.586.022-.71-.041-1.64-.124-2.53-.403a3.667 3.667 0 0 1-.57-.234 7.814 7.814 0 0 1-.54-.34l-1.082-.732c-.896-.584-1.61-.97-2.32-1.248a8.441 8.441 0 0 0-2.567-.61c-.742-.095-1.486-.471-2.21-1.117-1.135-1.04-2.049-2.492-2.717-4.315a11.044 11.044 0 0 1-.429-1.568c-.064-.313-.13-.637-.243-.948a3.356 3.356 0 0 0-.714-1.141l-.213-.221a7.97 7.97 0 0 1-.653-.732c-.45-.604-.809-1.333-1.128-2.291-.164-.49-.304-.997-.44-1.488-.093-.337-.186-.675-.287-1.01a93.508 93.508 0 0 0-.413-1.368c-.363-1.184-.738-2.408-.984-3.64a11.349 11.349 0 0 1 .078-5.094c.073-.268.153-.536.233-.804.167-.558.34-1.136.453-1.72a14.73 14.73 0 0 0 .308-2.62l.008-.326c.017-.75.035-1.523.174-2.243.081-.41.211-.78.387-1.101.025-.045.051-.088.078-.131.023-.038.046-.075.067-.113.064-.11.128-.221.18-.336.107-.225.187-.476.236-.746.095-.52.048-1.03-.005-1.466-.046-.363-.11-.711-.173-1.045l-.048-.26c-.126-.717-.24-1.568-.138-2.442a8.07 8.07 0 0 1 .073-.476l.024-.142c.04-.21.067-.437.084-.694a9.354 9.354 0 0 0-.023-1.355 15.635 15.635 0 0 0-.175-1.315 26.474 26.474 0 0 0-.239-1.295l-.536-2.556c-.21-.895-.388-1.704-.443-2.535-.02-.45-.027-.853.126-1.241.033-.193.024-.364.016-.53l-.008-.167-.044-.65a16.398 16.398 0 0 0-.055-.664c-.062-.651-.12-1.265.04-1.893.061-.365.083-.9-.15-1.358-.143-.361-.124-.764-.088-1.216.014-.181.038-.36.062-.54l.003-.023.035-.01-.015-.141c.027-.214.046-.401.05-.61-.04-.425.127-.845.278-1.162l.046-.097-.066-.092a.88.88 0 0 1-.154-.392c1.648.065 3.304-.007 4.735-.08.431-.025.864-.054 1.295-.083-.148.054-.29.107-.429.16l-.11.046c-.14.057-.277.113-.427.19l-.055.034a.417.417 0 0 0-.082.098.324.324 0 0 0-.026.07l-.012.034a.244.244 0 0 1-.03.038.637.637 0 0 1-.162.106c-.167.079-.352.14-.549.206-.16.053-.324.107-.485.173a2.31 2.31 0 0 0-.55.302c-.204.152-.352.37-.409.6-.073.316-.2.622-.398.96-.263.435-.4.795-.434 1.127-.022.135-.047.272-.072.41-.04.232-.084.465-.113.7a5.613 5.613 0 0 0-.036 1.17c.013.204.046.4.08.583.03.17.062.346.07.526.033.398-.067.795-.174 1.215-.076.302-.156.616-.186.94-.047.366-.122.735-.195 1.082-.025.124-.054.249-.083.374-.055.239-.112.485-.146.738a7.04 7.04 0 0 0-.073 1.156c.007.392.075.782.144 1.148.628 3.306 1.33 6.16 2.141 8.727.425 1.299.944 2.8 1.727 4.173.224.38.434.682.662.948.226.256.54.57.974.72.214.07.447.082.653.033.201-.042.376-.144.531-.234l.028-.016a1.69 1.69 0 0 1 .47-.19c.073-.018.148-.012.192.016a.065.065 0 0 1 .027.033c.007.364.061.726.161 1.078.05.166.117.358.232.523.14.21.353.33.56.318.403-.025.691-.307.945-.556l.028-.027.136-.151.087-.098-.185-.168-.042.046-.19.204c-.24.23-.488.469-.793.484a.4.4 0 0 1-.315-.201 1.403 1.403 0 0 1-.17-.45c-.072-.337-.082-.69-.084-1.047a.453.453 0 0 0-.29-.358.706.706 0 0 0-.377-.018 2.075 2.075 0 0 0-.578.226l-.028.016c-.15.086-.28.16-.428.192a.83.83 0 0 1-.446-.025c-.267-.093-.52-.286-.798-.61a5.97 5.97 0 0 1-.614-.888c-.758-1.342-1.26-2.822-1.672-4.102-.795-2.553-1.478-5.393-2.087-8.686a5.847 5.847 0 0 1-.057-2.148c.032-.23.085-.455.142-.693.03-.128.06-.257.087-.386.076-.354.155-.732.208-1.123.041-.35.126-.69.226-1.063.12-.45.168-.836.146-1.18a4.255 4.255 0 0 0-.074-.59 4.411 4.411 0 0 1-.07-.53 5.003 5.003 0 0 1 .04-1.065c.027-.22.068-.44.11-.663.026-.143.053-.287.077-.44.037-.322.171-.597.375-.938.22-.366.378-.747.46-1.098.05-.207.261-.382.648-.534.133-.055.271-.1.411-.146.214-.07.435-.142.66-.254.092-.048.198-.11.298-.21a.737.737 0 0 0 .142-.218c.115-.057.248-.114.375-.17l.274-.116c.506-.216 1.03-.44 1.546-.645l.346-.026h.002l-.06.055c-.504.444-.99.77-1.46 1.085-.893.599-1.735 1.164-2.359 2.392-.859 2.373-1 4.277-.448 5.995.3.928.867 1.715 1.417 2.476.4.553.814 1.126 1.12 1.749.29.59.438 1.563.595 2.593.28 1.837.597 3.92 1.842 4.592l.067.014.087-.01.031-.036c.481-.551.39-1.444.308-2.231-.012-.124-.025-.246-.035-.363.163-1.355.047-2.846-.09-4.127-.01-.258-.024-.497-.036-.722.616.316 1.533.518 2.248.638.606 4.112 2.951 7.882 6.3 10.136a1.91 1.91 0 0 0-.651.07c-.394.117-.732.315-1.012.495-.31.203-.609.423-.898.637-.273.2-.555.409-.84.596-.274.182-.57.372-.88.529-.322.162-.66.342-.945.6-.268.233-.454.518-.635.794l-.054.084c-.159.242-.37.56-.604.864a6.948 6.948 0 0 1-.279.338l.187.165.13-.144.17-.19c.221-.248.443-.521.691-.848.213-.277.414-.538.668-.735.258-.208.575-.353.876-.482.323-.137.64-.317.965-.553.257-.183.505-.376.75-.57.308-.238.625-.487.95-.704.346-.233.62-.374.884-.457.161-.05.315-.07.45-.068.163.01.347.048.488.08.312.073.616.183.83.263 1.577.894 3.845 1.879 5.678 1.487.987-.21 1.718-.723 2.292-1.612.365.107.82.252 1.261.447.283.128.606.294.85.535.252.285.525.53.808.729l.155.114c.508.372 1.032.757 1.43 1.245.212.254.404.54.568.848l.06.12c.057.12.115.24.193.372.1.154.251.387.568.429.325.012.5-.207.625-.357.114-.147.21-.312.293-.505.095-.225.165-.456.232-.681.036-.116.071-.232.11-.348a1.37 1.37 0 0 1 .04-.113l.01.013c.113.15.2.28.26.434a.485.485 0 0 0 .338.25.856.856 0 0 0 .362-.007c.196-.041.391-.134.582-.276.557-.431.793-1.045 1.02-1.64.038-.1.076-.198.118-.302.245-.72.48-1.375.715-2.005.442-1.19.933-2.607 1.222-4.1.29-1.447.423-2.894.523-4.242.103-1.39.153-2.751.203-4.26l.035-1.252c.008-.294.017-.6-.03-.902-.035-.265-.156-.486-.274-.7-.057-.103-.114-.206-.159-.315-.166-.38-.246-.677-.259-.968-.019-.261-.002-.521.016-.797l.017-.292c.012-.347.026-.778-.287-1.088a1.18 1.18 0 0 0-.239-.161c-.075-.042-.14-.077-.19-.137a1.399 1.399 0 0 1-.26-.396c-.047-.097-.089-.198-.132-.3a3.64 3.64 0 0 0-.346-.68 1.532 1.532 0 0 0-.417-.414c-.128-.091-.277-.147-.408-.197l-.109-.042c-.265-.1-.502-.312-.705-.63l-.029-.043c-.185-.284-.394-.606-.72-.793-.19-.124-.395-.19-.592-.252-.146-.047-.283-.09-.412-.157-.419-.196-.82-.46-1.208-.713-.197-.128-.394-.257-.593-.378a20.798 20.798 0 0 0-1.1-.641l2.112-.006 2.014.008c.494.006 1.001.033 1.491.059l3.876.224c-.014.17-.032.34-.05.512-.058.515-.117 1.047-.027 1.59.022.13.066.247.11.359.028.069.055.137.074.209.053.174.076.36.094.534.03.319.03.65.03.97l.001.169c.002.356.007.77.06 1.173.022.206.07.404.115.595.044.185.085.36.107.544.076.49.015.976-.049 1.492-.03.252-.063.512-.078.795.043.945-.122 1.912-.28 2.848-.046.262-.09.525-.13.785l-.082.492a203.92 203.92 0 0 0-.955 5.686 8.708 8.708 0 0 0-.032.233l-.142.896c-.205 1.12-.227 2.345-.068 3.743.064.559.158 1.162.288 1.842.037.207.08.414.122.62.08.392.161.795.206 1.165-.036.493.054.989.141 1.469.025.134.05.267.071.402.104.584.211 1.205.265 1.814.04.533.09 1.198-.143 1.74-.049.115-.12.195-.22.305l-.027.03c-.105.133-.18.297-.223.489-.075.34-.043.674.003.985.068.432.182.853.293 1.262.05.184.1.368.145.554.078.315.147.599.184.885.035.263.057.566-.042.813-.142.368-.108.742-.079 1.072l.004.046c.038.353.1.69.165 1.035l.127.64c.091.45.183.916.26 1.373.188 1.115.373 2.574.124 3.97a30.06 30.06 0 0 0-.317 2.056l-.044.364c-.068.569-.132 1.105-.245 1.627a5.633 5.633 0 0 1-.67 1.747 7.692 7.692 0 0 1-1.2 1.48l-.745.713c-.262.253-.5.513-.744.78a25.957 25.957 0 0 0-1.336 1.64c-.31.408-.61.825-.899 1.229-.506.705-.984 1.37-1.498 1.968-.49.56-.883.903-1.27 1.11a1.914 1.914 0 0 1-.687.212c-.384.026-.829.077-1.219.249a2.81 2.81 0 0 0-1.023.752c-.223.248-.388.509-.547.76l-.09.142c-.329.535-.706 1.095-1.226 1.567-.638.426-1.435.715-2.369.86zm-25.23-47.005c.017.08.024.16.031.24.006.063.015.127.025.19-.082-.447-.17-.892-.28-1.362-.016-.068-.038-.131-.055-.198.116.407.218.782.278 1.13zm.286-6.895l.001.002c.003.054.016.108.02.162a4.157 4.157 0 0 0-.222-.927c-.099-.25-.268-.608-.598-.824-.337-.203-.69-.284-1.022-.237a.757.757 0 0 0-.503.308c-.103.138-.157.31-.172.543-.017.342.053.66.14 1.009.158.63.357 1.25.557 1.877l.59 1.79c.118.363.226.708.337 1.058-.035-.1-.068-.204-.1-.3a54.665 54.665 0 0 0-.708-1.824c-.124-.31-.247-.615-.363-.915-.329-.854-.635-1.685-.774-2.468-.075-.43-.08-.783-.014-1.08a.946.946 0 0 1 .5-.625.648.648 0 0 1 .263-.051c.132 0 .285.03.46.09.22.084.435.193.661.332a8.52 8.52 0 0 1 1.062.806c-.138.4-.134.815-.115 1.274zm.595 12.803a1.717 1.717 0 0 1-.307-.487 2.657 2.657 0 0 1-.19-.736c-.025-.193-.017-.39-.009-.6l.006-.187c.031-.951-.059-1.988-.282-3.261-.008-.042-.019-.085-.026-.126a.904.904 0 0 0 .08.225.172.172 0 0 0 .143.075h.004a.188.188 0 0 0 .144-.07.461.461 0 0 0 .064-.084c.031-.051.056-.103.081-.154l.042-.091c.03-.062.057-.124.1-.2l.01-.021.015.049.026.087c.022.074.046.158.097.216a.16.16 0 0 0 .163.073.162.162 0 0 0 .123-.088.29.29 0 0 0 .032-.075.94.94 0 0 0 .031-.127c.038-.242.047-.443.053-.59l.01-.322-.016-.126-.25-.005-.015.439c-.005.092-.01.205-.023.333a.471.471 0 0 0-.108-.162.2.2 0 0 0-.15-.04.255.255 0 0 0-.162.1.864.864 0 0 0-.094.147 4.18 4.18 0 0 0-.099.2l-.037.08c0 .004-.003.007-.004.009a2.25 2.25 0 0 1-.02-.174c-.009-.09-.018-.181-.035-.267-.08-.473-.217-.96-.389-1.547a68.527 68.527 0 0 0-.53-1.685L9.45 40.28c-.19-.602-.387-1.224-.54-1.848-.078-.314-.146-.62-.128-.925 0-.238.14-.51.408-.543.246-.033.536.036.795.193.244.16.378.442.466.668.217.589.245 1.205.245 1.675-.005.49-.048.997-.133 1.549-.08.56-.105.995-.077 1.366.027.412.123.779.275 1.06.133.252.32.453.512.549.163.087.274.085.296.086l.1-.024.044-.191-.094-.043s-.066-.031-.169-.105a1.361 1.361 0 0 1-.377-.44c-.129-.234-.213-.56-.239-.917-.027-.348-.005-.76.07-1.292.085-.567.127-1.09.13-1.597a7.191 7.191 0 0 0-.046-.817c.066.783.222 1.547.414 2.379.2.972.348 1.784.468 2.554.146 1.013.207 1.826.192 2.56a8.474 8.474 0 0 1-.103 1.246 5.33 5.33 0 0 1-.133.595l-.038.14a9.697 9.697 0 0 0-.13.515c-.174.792-.209 1.689-.103 2.6zm33.277-41.46c.484.01.96.247 1.495.743.382.346.668.656.884.96a2.16 2.16 0 0 0-.916.129c-.203.077-.404.2-.618.379a3.563 3.563 0 0 0-.458.52 4.522 4.522 0 0 1-.402.468c-.068.063-.14.129-.22.177-.035.023-.075.042-.117.063a1.564 1.564 0 0 0-.169.09c-.17.108-.292.254-.4.383l-.102.118a3.55 3.55 0 0 1-.456.408l-.027.02c-.333.25-.71.536-.969.936-.166.304-.439.527-.885.724-.385.172-.805.279-1.202.373-.092.022-.183.04-.274.06-.12.027-.242.054-.368.086a5.265 5.265 0 0 0-.644.223c-.372.155-.763.346-1.195.583-.193.107-.383.219-.572.335a8.071 8.071 0 0 0-.286.185.403.403 0 0 1-.2.083c-.337.045-.714.004-1.077-.037l-.479-.056c-.323-.04-.656-.081-.99-.104a4.392 4.392 0 0 0-.683-.006c-.099.006-.187.027-.276.048l.002-.001a57.517 57.517 0 0 1 3.216-2.1 29.304 29.304 0 0 1 1.666-.943c.51-.263 1.11-.56 1.74-.73.675-.188 1.268-.593 1.746-.92.173-.121.345-.245.516-.368.341-.247.695-.502 1.055-.732.441-.286 1.031-.632 1.687-.774a2.753 2.753 0 0 1 1.781.214l.116.044.11-.22-.108-.057a2.903 2.903 0 0 0-1.964-.29c-.71.14-1.34.494-1.812.787-.368.235-.726.493-1.07.743-.17.123-.34.246-.513.366-.554.387-1.059.722-1.63.888-.663.184-1.277.493-1.8.769-.555.295-1.119.62-1.678.966a59.533 59.533 0 0 0-3.209 2.144l-.095.08.117.166a1.69 1.69 0 0 0-.309.148l-.165.106c.294-.33.595-.702.85-1.11a5.98 5.98 0 0 0 .441-.85 3.68 3.68 0 0 0 .135-.361c.06-.171.113-.333.202-.474.26-.433.704-.797 1.324-1.083.135-.063.274-.12.411-.17.154-.05.348-.127.47-.275.138-.153.234-.322.326-.485.062-.11.122-.212.191-.307a.815.815 0 0 1 .273-.26c.093-.048.208-.084.32-.118l.087-.028c.268-.082.603-.185.895-.37.283-.174.524-.424.7-.727.138-.27.27-.522.48-.724.253-.254.593-.39.932-.39.197 0 .394.046.574.14.287.124.623.253.984.218.348-.03.661-.157.948-.293.506-.247 1.08-.534 1.664-.51zm7.105 19.207c-.08-.484-.028-.972.03-1.488.018-.178.037-.356.051-.534l2.324.152c.642.034 1.283 0 1.903-.033l.137-.008c.273-.016.544-.033.816-.051 1.048-.066 2.133-.136 3.197-.136.71.006 1.347.017 1.99.096.356.037.671.093.962.17.137.038.297.085.447.154.113.056.228.116.295.2-.06.21-.189.31-.36.428l-.002.002a5.309 5.309 0 0 1-.608.353c-.119.076-.26.132-.412.192a3.661 3.661 0 0 0-.252.105l-.747.23a25.293 25.293 0 0 1-3.164.549c-.995.12-2.056.219-3.247.298-.576.055-1.164.088-1.732.12-.45.025-.915.05-1.376.088a2.331 2.331 0 0 0-.162-.602c-.038-.1-.075-.192-.09-.285zM29.38 16.878c.102.21.153.435.207.67.037.164.076.333.133.498.034.11.08.216.124.322.036.084.072.167.102.254l.171.485a.57.57 0 0 1-.229.158c-.163.085-.379.069-.64-.043-.229-.102-.412-.303-.577-.497a3.785 3.785 0 0 1-.452-.668c-.093-.172-.18-.415-.063-.603.046-.082.12-.168.226-.271a4.68 4.68 0 0 1 .1-.09c.071-.063.146-.13.223-.21.234-.256.373-.56.468-.796.02-.047.037-.095.055-.144.017.099.036.196.055.289l.065.326a.58.58 0 0 1 .022.24l-.007.042.017.038zM19.23 23.62c.137.002.271-.015.39-.033l.138-.018c.137-.014.273-.03.411-.034.368-.021 1.063.02 1.562.535.136.133.28.237.432.31.148.07.315.103.526.107l.034-.001c.32-.01.623-.02.96-.088.328-.11.648-.181.951-.21.381-.031.654.003.851.109-.393.105-.787.205-1.178.304-.458.116-.91.232-1.35.35-.602.165-1.07.344-1.47.565l-7.53.086c-.238.004-.475.006-.714.008-.554.005-1.126.01-1.694.047l-.066-1.69.587-.056c2.03-.194 4.13-.395 6.2-.568.31.178.642.273.96.277zm12.827-1.127c.036.099.072.2.116.314l.02.052c.122.333.22.615.294.906.056.209.128.417.196.617.133.386.26.75.294 1.16l.004.054c.003.044.006.089.006.134v.032l.016.029c.053.096.058.209.063.328.002.044.004.088.007.122v.064l-.002.06c0 .09-.002.18-.005.27l-.003.118a5.195 5.195 0 0 1-.008.216c-.004.1-.009.199-.008.295l.002.206c.002.073.004.146.002.219V27.774c-.003.028-.009.055-.014.083l-.007.042c-.02.123-.049.235-.089.339a1.32 1.32 0 0 1-.137.266 6.306 6.306 0 0 0-.108.189.917.917 0 0 1-.093.146l-.007-.003a.786.786 0 0 1-.167-.11c.204-.212.353-.481.443-.804.024-.086.043-.173.06-.26.021-.126.038-.251.048-.375a4.387 4.387 0 0 0-.009-.652c-.008-.094-.016-.19-.028-.283a6.643 6.643 0 0 0-.153-.768l-.026-.082-.126.012.12-.033a14.407 14.407 0 0 0-.356-1.097l-.023-.062-.007-.007a4.08 4.08 0 0 0-.454-1.561l-.014-.03-.084-.144.237-.086zm10.476 13.074c.155.027.29.043.418.052.12.009.24.015.358.02.17.008.34.016.507.036.257.03.521.095.806.199.55.216 1.015.633 1.358.972.3.3.585.623.853.966a28.12 28.12 0 0 0-4.073-1.142 8.77 8.77 0 0 0-.227-1.103zm-.099 5.093c.14-.462.246-.945.317-1.437.73.157 1.281.32 1.777.529.07.027.133.062.198.095l.122.07a.647.647 0 0 1 .041.025.54.54 0 0 1-.09.088 2.01 2.01 0 0 1-.24.163c-.355.207-.754.363-1.142.515-.345.127-.706.244-1.076.35.033-.13.064-.263.093-.398zm-17.54-8.514c1.763-2.074 5.26-3.996 7.46-4.127a1.523 1.523 0 0 1-.257.406l-.034-.031-.008.074a.702.702 0 0 1-.082.068l-.254.177.285.23-.014.135.095-.07c.1.08.207.159.35.217a.448.448 0 0 0 .244.027.385.385 0 0 0 .224-.14c.063-.077.1-.153.132-.221l.023-.048c.022-.05.05-.1.075-.15.056-.107.114-.218.15-.343.026-.088.048-.177.07-.277 2.338.346 5.077 1.979 7.011 4.188a8.605 8.605 0 0 1 1.75 3.113l.014.043a9.157 9.157 0 0 1 .35 3.495l-.026.249c-.052.466-.134.927-.245 1.37l-.027.109h.001c-.042.172-.087.34-.135.508l-.029.063a4.42 4.42 0 0 1-.054.174l-.08.285c-.669 2.05-1.705 3.73-2.467 4.966-.467.757-.836 1.355-.95 1.77a5.494 5.494 0 0 1-.215.642l-.009.045c0 .038-.002.075-.005.112l-.004.082a3.391 3.391 0 0 1-.855 2.538l.093.084-.124-.052c-.177.188-.35.339-.526.459-1.5 1.017-3.457.757-4.49.514a10.686 10.686 0 0 1-.32-.081.154.154 0 0 1-.059-.034l-.047-.044-.11.023a8.222 8.222 0 0 1-1.303-.585c-1.867-1.011-4.006-2.79-4.977-4.134-3.42-4.746-3.673-11.26-.622-15.83zm1.253-6.324l.071-.046 6.184-.081c.041.183.075.368.101.55l-.307.002c-2.316.028-4.584.063-6.844.17.277-.216.54-.412.797-.593l-.002-.002zm-3.719 9.055l-.043.01c-.618.22-1.175.346-1.705.385l-.266.018c-.13.008-.263.016-.395.029a10.277 10.277 0 0 1 1.221-4.178c.821-1.545 1.93-2.9 3.388-4.142 2.474-.138 4.994-.18 7.433-.221l.49-.006c.006.18.003.334-.01.48a1.88 1.88 0 0 1-.032.232c-.252-.02-.482-.026-.693-.02-.032-.002-.076-.001-.087-.001l-.223.009a2.916 2.916 0 0 0-.363.059c-.219.054-.318.075-.427.099l-.15.033c-.368.07-3.668.786-6.005 4.276a12.886 12.886 0 0 0-1.437 2.887l-.696.05zm.115 1.39l-.262.029c-.162.018-.322.035-.479.06a24.251 24.251 0 0 0-1.813.326c-.007-.38-.005-.69.007-.977.143-.015.288-.021.44-.03.09-.003.181-.007.27-.013.673-.034 1.306-.232 1.784-.402l.501-.04a13.2 13.2 0 0 0-.279 1.03c-.055.005-.112.01-.168.017zm9.08-11.722l-.089.059.168.009.13.105.113.09.171-.112.042.13c.064.2.12.388.167.566l-5.608.064c.828-.528 2.445-1.547 3.613-2.208.228.087.437.269.583.514.19.276.422.533.71.783zm-.332-1.155a3.223 3.223 0 0 0-.455-.42l.102-.052.05-.027c.215-.11.351-.168.436-.2l.014.04.078.238c.04.125.08.249.123.373l.078.197c.06.15.122.307.174.465a6.008 6.008 0 0 1-.6-.614zM20.218 38.217l-.15.037a30.548 30.548 0 0 1-.066-1.138l.103-.021c.1-.023.202-.045.304-.064.418-.082.846-.15 1.26-.213l.197-.031a8.17 8.17 0 0 1 .463-.064c.09-.011.177-.021.265-.033l.026-.004c-.067.344-.12.689-.16 1.028-.783.146-1.556.335-2.242.503zm.065.293a42.974 42.974 0 0 1 2.143-.485c-.019.212-.034.43-.045.664-.717.145-1.63.36-2.228.61-.023-.25-.044-.497-.063-.742l.193-.047zm11.89-16.767l-.033-.094c.056.017.111.032.167.046l-.134.048zm.065.193l.206-.206a19.187 19.187 0 0 0 1.99.366c.187.027.382.044.572.06l.248.023c.234.024.482.089.736.19.203.083.408.188.612.314l-4.108-.02c-.033-.095-.069-.19-.105-.283l-.009-.023a.136.136 0 0 0-.003-.07l-.139-.351zM20.06 41.563c.052 1.183.06 2.387.068 3.55l.001.18c.001.119.01.247.02.38a7.919 7.919 0 0 1-.099.648l-.084.412c-.055.27-.103.512-.142.623a4.509 4.509 0 0 1-.234-.336 23.124 23.124 0 0 0-.243-.364c-.493-.716-.615-1.685-.734-2.621-.07-.552-.136-1.074-.274-1.541-.3-1.016-.734-1.803-1.383-2.818-2.077-3.247-2.385-5.43-1.227-8.631.545-1.07 1.428-1.686 2.364-2.337.462-.321.94-.654 1.39-1.052l.411-.36c.13-.114.26-.225.383-.33.471-.4.99-.814 1.595-1.146l.14-.073c.617-.32 1.317-.56 2.202-.755a43.126 43.126 0 0 0 1.811-.43c.542.182 1.13.154 1.64-.09a15.014 15.014 0 0 1 1.722-1.063l.087-.044c-.407.26-.79.515-1.056.69-.176.118-.302.2-.348.23-.635.379-1.249.77-1.876 1.198l-.224.15a7.65 7.65 0 0 0-.175.119l.003.003a24.76 24.76 0 0 0-1.022.712 14.912 14.912 0 0 0-.898.718l-.129-.101-.078.095a8.6 8.6 0 0 1-1.075 1.073 8.528 8.528 0 0 1-1.259.843c-.52.294-.956.477-1.368.577a3.263 3.263 0 0 1-1.465-.008l-.116-.017-.075.23.122.038a3.501 3.501 0 0 0 1.601.102c.473-.077.965-.26 1.507-.561a5.19 5.19 0 0 0 .641-.446c-1.22 1.644-1.924 3.162-2.265 4.74l-.033-.006-.03.112c-.11.409-.24.825-.398 1.272-.083.233-.178.459-.273.686-.077.183-.153.366-.222.549-.052.128-.098.26-.145.39-.099.279-.202.566-.349.819-.13.214-.25.372-.384.498-.11.108-.288.239-.504.25l-.12.017.006.252.13-.01c.541-.034.924-.48 1.165-.812.264-.361.533-.756.71-1.2.077-.181.137-.37.19-.557-.034 1.013.018 2.076.14 3.244.037.377.083.773.13 1.179.043.369.087.747.128 1.13zm2.421-.393a14.606 14.606 0 0 1-.96-.274c-.056-.018-.129-.04-.212-.063-.285-.083-.715-.208-1.059-.381a24.282 24.282 0 0 0-.05-.636l-.016-.167c.422-.233 1.174-.461 2.186-.662-.017.728.02 1.46.111 2.183zm27.37-5.268c.05.12.112.235.175.348.107.194.21.378.234.586.044.274.036.554.027.85l-.033 1.245c-.049 1.508-.098 2.868-.199 4.246-.098 1.339-.229 2.775-.515 4.205-.284 1.47-.768 2.873-1.204 4.05l-.182.492c-.182.493-.37 1-.594 1.477-.295.627-.773 1.164-1.194 1.613a2.017 2.017 0 0 1-.343.289c-.057.033-.194.102-.242.053-.073-.11-.158-.21-.24-.308l-.102-.122a1.802 1.802 0 0 0-.088-.094c-.044-.057-.122-.111-.202-.085a.15.15 0 0 0-.109.116l-.102.23c-.133.289-.292.593-.488.929l-.02.036c-.082.138-.158.268-.244.385-.102.136-.197.187-.237.189-.044-.002-.133-.07-.222-.212l-.265-.462a5.447 5.447 0 0 0-.675-.872c-.438-.453-.95-.815-1.446-1.167l-.242-.17a4.493 4.493 0 0 1-.765-.705c-.276-.28-.623-.461-.927-.604-.35-.158-.732-.3-1.222-.45.102-.178.201-.37.3-.582.332-.714.364-1.816.36-2.593.298-.834.77-1.683 1.27-2.581.723-1.302 1.542-2.776 2.074-4.615.496-.13.967-.283 1.401-.457a6.743 6.743 0 0 0 1.197-.6c.115-.075.204-.143.29-.22l.03-.03a.569.569 0 0 0 .203-.372c.01-.14-.088-.258-.18-.308l-.232-.122a2.131 2.131 0 0 0-.24-.1 12.83 12.83 0 0 0-1.869-.487 8.91 8.91 0 0 0 .036-.428c.055.007.11.015.162.026l.665.115c.268.047.505.098.704.142.105.022.2.043.282.059l.494.099.06-.237-.495-.128c-.08-.018-.17-.042-.273-.07-.196-.052-.44-.118-.717-.168l-.662-.125a4.074 4.074 0 0 0-.203-.036 8.885 8.885 0 0 0-.047-1.207c.63.127 1.154.247 1.64.376a28.96 28.96 0 0 1 2.681.849l.08.1.04-.055.292.109-.182-.262.036-.053-.103-.046a10.037 10.037 0 0 0-1.096-1.341c-.383-.385-.856-.81-1.453-1.051a3.848 3.848 0 0 0-.878-.222 7.997 7.997 0 0 0-.534-.042c-.114-.006-.228-.012-.342-.022a4.708 4.708 0 0 1-.545-.08 9.552 9.552 0 0 0-1.628-3.005c-.562-.711-2.242-2.244-2.957-2.747-1.733-1.22-3.136-1.621-4.39-1.854.025-.106.048-.215.06-.326a3.02 3.02 0 0 0-.002-.53c2.616-.034 4.763-.054 6.747-.065l1.204-.003a22.66 22.66 0 0 1 1.634.924h.002c.198.12.392.248.588.376.395.258.804.526 1.245.733.152.077.31.127.462.175.184.059.36.115.512.216.264.15.435.413.616.692l.028.043c.166.259.45.602.871.758.36.113.613.286.776.53.13.186.218.397.312.62.044.104.09.21.138.313.1.21.202.365.32.482a.972.972 0 0 0 .28.203c.062.035.122.068.162.107.21.202.196.56.183.877l-.015.244c-.017.273-.035.555-.015.836.015.327.106.67.286 1.078zM26.852 21.917a9.758 9.758 0 0 0-1.437.035c-.489.053-.976.17-1.404.275-.81.184-1.772.377-2.76.414-1 .059-2.01-.09-2.775-.225l-.12-.011-.052.237.118.029c.568.138 1.158.233 1.77.283.41-.014.821-.027 1.232-.037l.45-.006.366-.005a16.804 16.804 0 0 0 1.85-.357c.44-.111.894-.227 1.36-.283a9.363 9.363 0 0 1 1.388-.048 11.64 11.64 0 0 1 2.751.444l.12.024.06-.187c.03.033.063.06.092.108l.047.084c.04.059.077.105.115.145a1.177 1.177 0 0 0-.294.04c-.153.039-.282.106-.408.17l-.096.05c-.296.156-.598.328-.895.51a6.83 6.83 0 0 0-.407.263c-.154.104-.3.203-.433.276a1.851 1.851 0 0 1-1.13.083 2.007 2.007 0 0 1-.255-.076 2.144 2.144 0 0 1-.398-.19 1.576 1.576 0 0 0-.763-.171 3.28 3.28 0 0 0-.35.02 4.558 4.558 0 0 0-1.022.244c-.242.05-.553.096-.839.028l-.06-.014a4.071 4.071 0 0 1-.362-.09c-.124-.035-.252-.077-.333-.156-.429-.462-1.092-.73-1.812-.733-.184-.012-.368.008-.546.027a3.892 3.892 0 0 1-.382.026 1.855 1.855 0 0 1-.503-.082 2.264 2.264 0 0 1-.304-.108c-.066-.028-.127-.064-.188-.1l-.048-.03a3.754 3.754 0 0 1-.665-.505c.551.093 1.071.043 1.525-.152.33-.152.624-.345.934-.546l.146-.096c.241-.16.47-.308.705-.361.112-.025.231-.005.381.02l.055.009c.213.036.386.057.546.065a2.37 2.37 0 0 0 1.155-.206c.438-.32 1.034-.328 1.833-.021l.047.01c.296.024.591-.008.876-.097.147-.044.274-.108.397-.17.116-.06.225-.113.342-.145.373-.123.818-.007 1.32.345.2.145.39.303.591.47a10.98 10.98 0 0 0 1.043.79c.095.064.188.126.28.192l-.043-.013a11.965 11.965 0 0 0-2.81-.495zm25.42 3.52c2.494-.204 4.423-.33 6.24-.411a48.362 48.362 0 0 1 1.59-.04c.513-.003 1.053-.001 1.57.065.556.073 1.037.234 1.434.479.452.273.778.676.896 1.114.04.129.074.275.102.44a.526.526 0 0 1 .012.1c-.062-.046-.125-.084-.18-.118a2.608 2.608 0 0 0-.49-.21 6.127 6.127 0 0 0-1.013-.23 14.73 14.73 0 0 0-2.037-.131h-.093c-1.048 0-2.106.064-3.13.126l-.816.048-.107.005c-.62.033-1.262.064-1.88.028l-2.012-.141-4.026-.25-.492-.027c-.5-.03-1.016-.06-1.532-.067l-6.049-.02c-2.03.004-4.196.017-6.81.043a.112.112 0 0 0-.003-.02c-.004-.06-.014-.12-.024-.18-.017-.107-.034-.208-.012-.308l.007-.03-.006-.02 18.595-.244.015.134.113-.112.14.102-.003-.125zm-.356-2.234l.004.092c-.009.29-.008.592.005.897.012.35.03.67.055.975l-18.643.214-.09-.395c-.102-.447-.207-.91-.383-1.351a11.91 11.91 0 0 1-.269-.692l4.431.03c.093.07.184.145.272.22.417.517.878.966 1.373 1.336.664.487 1.244.724 1.83.747.368-.003.69-.041.98-.116.174-.041.337-.106.493-.17.138-.055.268-.108.4-.141.238-.06.506-.064.871-.012.094.013.187.03.282.048.22.04.447.084.684.07.606-.021 1.22-.271 1.824-.744a5.6 5.6 0 0 0 1.084-1.151l1.044.016c1.223.017 2.487.035 3.727.12l-.002.007h.028zm-21.676-8.934c-.065.1-.14.215-.184.355-.159.566-.169 1.18-.03 1.937.122.68.32 1.33.477 1.82l.081.258c.015.06.04.099.068.14a.57.57 0 0 0 .152.134.72.72 0 0 0 .48.082.645.645 0 0 1-.1.045l-.023-.01-.005.002-.019-.006c-.105-.026-.235.034-.276.128a.316.316 0 0 0-.035.134c0 .133.026.229.051.32l.02.068c.128.43.291.835.46 1.244l.05.124.135.009c.193.014.37.039.531.077.086.019.172.05.262.083.088.033.178.065.27.089.361.1.741.166 1.163.2.413.033.81.03 1.18-.008.41-.043.808-.154 1.153-.256.606-.191 1.398-.466 2.144-.902l.03-.024c.402-.44 1.012-.422 1.88.063l.038.014c.308.07.774.155 1.26.063.265-.056.48-.175.62-.344.115-.135.238-.274.381-.362a.649.649 0 0 1 .435-.087c.088.01.177.026.267.047.138.032.255.043.353.03.28-.021.503-.162.642-.276a1.7 1.7 0 0 0 .321-.353c.037.008.13.047.285.245.097.123.19.267.3.467.118.222.28.396.464.504.192.116.422.17.672.162a2.031 2.031 0 0 0 .922-.281c.112-.057.207-.161.266-.226.147-.15.297-.295.45-.44-.068.479-.14.912-.223 1.315-.129.593-.262 1.206-.595 1.71a3.799 3.799 0 0 1-.133.199l-.067.097a5.244 5.244 0 0 1-1.002 1.067c-.535.42-1.093.654-1.615.673-.199.014-.393-.024-.602-.062a6.994 6.994 0 0 0-.3-.05c-.28-.038-.648-.07-1.007.017-.162.04-.31.099-.455.156a2.972 2.972 0 0 1-.438.148 3.615 3.615 0 0 1-.884.099c-.494-.021-1.02-.246-1.609-.686a7.273 7.273 0 0 1-1.299-1.291l-.026-.027c-.042-.038-.086-.073-.129-.108l-.1-.081a4.925 4.925 0 0 0-1.21-.715 3.156 3.156 0 0 0-.845-.215l-.256-.022a9.466 9.466 0 0 1-.552-.056 19.756 19.756 0 0 1-1.597-.271 9.26 9.26 0 0 1-.776-.194 2.41 2.41 0 0 1-.084-.03l.003-.007-.093-.04-.05-.03-.013.014c-.068-.004-.154.019-.18.078a.224.224 0 0 0-.034.184l.32.893-.205.206-.024-.038-.077-.15-.038.013a.156.156 0 0 0-.037-.017c-.109-.04-.305-.022-.98.353l-.11.064-.053-.036-.07-.034a.4.4 0 0 1-.14-.122c.055-.045.11-.092.162-.14l.043-.04c.128-.106.533-.421.577-.45l-.048-.08.064.069.001-.001c.09-.081.235-.085.437-.01l.3.023-.216-.327c-.028-.042-.05-.075-.073-.113l.02-.118-.078-.01-.186-.42c-.068-.15-.136-.312-.21-.484-.065-.134-.123-.274-.18-.414l-.1-.235-.086-.2-.179.128c-.299.21-.742.238-1.128.069-.336-.152-.655-.417-.975-.812l-.028-.035.022.025c.188.217.42.413.683.582.26.177.674.259 1.021.035.031-.027.064-.052.096-.077l.057-.045.096.27.037-.393a.888.888 0 0 0 .094-.122l.027-.076-.023-.06a5.034 5.034 0 0 1-.063-.171l.016-.22-.06.085a9.565 9.565 0 0 1-.044-.127l-.046-.14c-.033-.095-.056-.194-.079-.292-.025-.101-.049-.201-.08-.295a5.892 5.892 0 0 0-.132-.38c-.098-.257-.19-.5-.193-.76v-.042l-.026-.033c-.044-.057-.058-.126-.069-.23a3.609 3.609 0 0 1-.03-.29l-.02-.603c.003-.196-.029-.391-.06-.58-.027-.164-.053-.321-.055-.477l.017.004-.017-.033c.001-.04.003-.08.007-.118l-.008-.085c.05-.267.118-.577.234-.846.03-.066.06-.116.077-.15a1.111 1.111 0 0 1 .482.008c.05.013.166.055.191.155.027.095-.008.228-.042.332a1.877 1.877 0 0 1-.233.476zm-9.16-9.54c.118-.007.221-.016.336-.005.276.016.56.105.843.264a2.725 2.725 0 0 1 .957.964c.032.048.058.102.085.156.043.09.093.19.17.283.231.287.544.466.85.616.272.13.58.245.941.352.16.047.321.089.49.127.16.028.28.069.407.142.234.124.44.333.611.62.134.225.23.489.311.855.042.217.062.43.082.658.01.096.017.193.028.289.056.64.242 1.294.553 1.94a7.434 7.434 0 0 0 1.081 1.65l.363.726a8.028 8.028 0 0 1-.435 1.549 2.454 2.454 0 0 1-.39.66c-.05.056-.11.11-.174.169-.15.135-.319.29-.424.502a.852.852 0 0 0-.084.535 9.023 9.023 0 0 1-.417-1.187 21.436 21.436 0 0 1-.188-.715c.033-.44.124-.895.27-1.35.11-.321.213-.576.325-.81.08-.188.174-.367.273-.557.04-.075.08-.15.117-.225l.041-.104-.187-.128-.072.092a4.493 4.493 0 0 0-.49.775 4.95 4.95 0 0 0-.323.857 6.35 6.35 0 0 0-.148.63l-.06-.267c-.243-1.055-.493-2.144-.899-3.176a3.09 3.09 0 0 0 .087-.83 6.616 6.616 0 0 0-.078-.897 7.385 7.385 0 0 0-.18-.887 7.357 7.357 0 0 0-.299-.85l-.056-.103-.215.076.025.108c.05.22.103.438.156.656.084.344.171.7.241 1.054.054.279.09.566.105.852.005.1.01.207.006.316-.312-.7-.696-1.49-1.198-2.227-.603-.888-1.29-1.53-2.052-1.911-.834-.338-1.452-1.053-1.945-1.705-.288-.397-.515-.735-.678-1.076.17.186.35.324.542.419.178.085.36.122.564.127l.131-.008zM3.342 24.212c.45.053.917.147 1.368.239l3.454.76 3.124.713.008.153.127-.11.148.128-.009-.113h.001l-.002-.037c.565.022 1.136.013 1.69.004.235-.004.472-.008.71-.01l7.011-.092c-.32.239-.604.51-.939.83l-.092.09-.044.003c-1.25.093-2.545.19-3.817.263-2.86.15-5.437.238-7.977-.237-.78-.133-1.562-.341-2.318-.541a38.104 38.104 0 0 0-1.59-.4 9.145 9.145 0 0 0-1.92-.215h-.14c-.299.013-.688.044-1.059.18a1.66 1.66 0 0 0-.5.287 1.206 1.206 0 0 0-.118.124 2.258 2.258 0 0 1-.047-.387c-.013-.301.033-.51.13-.628.39-.387.924-.636 1.301-.776.571-.201 1.063-.274 1.5-.228zm7.587 5.213a5.306 5.306 0 0 1-.037.516c-.287.02-.865.05-1.636.05h-.09c-1.557 0-2.874-.107-4.024-.326a10.678 10.678 0 0 1-2.076-.6l-.458-.206c-.055-.031-.11-.06-.163-.088a4.464 4.464 0 0 1-.961-.672 2.99 2.99 0 0 1-.479-.538c-.025-.04-.05-.078-.076-.116-.034-.05-.066-.097-.09-.14l-.123-.243a1.225 1.225 0 0 1-.093-.233c-.012-.037-.023-.071-.032-.094l.014-.003-.04-.074a.594.594 0 0 1 .24-.254c.12-.077.253-.132.403-.166.326-.084.674-.104.938-.111a8.657 8.657 0 0 1 1.942.214c.52.118 1.048.26 1.56.4.767.208 1.561.423 2.361.565.924.176 1.902.29 2.987.347.028.203.091.383.19.535-.143.32-.306.776-.257 1.237zm41.153 11.369c.02.196.046.39.074.586.032.23.065.47.082.705.025.356.036.818-.098 1.243-.083.248-.288.692-.728.877l-.089.06.043.22.122-.022c.23-.042.45-.191.616-.421.131-.182.227-.398.282-.64.11-.396.145-.833.11-1.334-.016-.245-.049-.49-.08-.725a12.343 12.343 0 0 1-.068-.575 8.614 8.614 0 0 1-.038-1.283c.022-.472.095-.877.221-1.238.114-.321.334-.728.738-.853.204-.075.391-.101.563-.074a.432.432 0 0 1 .347.28c.118.334.026.72-.064 1.095l-.019.082c-.27.995-.608 1.992-.936 2.956-.22.654-.45 1.33-.658 2.002-.126.408-.257.829-.366 1.262a7.642 7.642 0 0 0-.146.655 2.515 2.515 0 0 0-.022.148l-.002-.004a1.14 1.14 0 0 0-.103-.163c-.024-.028-.06-.072-.114-.102-.097-.071-.27-.05-.35.042-.005.004-.008.008-.01.012a11.234 11.234 0 0 1-.03-.257l-.026-.214-.035-.111-.188.004c.101-.572.205-1.16.286-1.74L52 39.61c.016-.11.036-.221.054-.331-.005.066-.017.124-.02.192-.018.392-.002.812.05 1.322zm-1.35 9.764c-.27-1.76.023-3.536.328-5.261-.008.17-.015.34-.012.51.006.109.013.22.04.343a.48.48 0 0 0 .062.153.245.245 0 0 0 .056.057c.025.016.081.057.163.04a.253.253 0 0 0 .17-.104.68.68 0 0 0 .085-.17l.092.197a.899.899 0 0 0 .126.2l-.052.29.158-.216a.426.426 0 0 0 .134.025c.102-.011.152-.064.18-.092l.024-.031c.014-.022.023-.041.033-.062-.05.359-.089.708-.116 1.05l-.038.494c-.04.55-.082 1.118-.19 1.627-.086.298-.245.604-.41.912a4.282 4.282 0 0 0-.192.369c-.09.19-.176.372-.297.515-.098.112-.136.128-.146.125a.448.448 0 0 1-.082-.131 20.7 20.7 0 0 1-.116-.84zm4.006-14.343c.237.282.292.642.295.893.01.687-.19 1.365-.417 2.056-.219.652-.479 1.304-.73 1.935l-.136.343-.29.739c.347-1.078.705-2.191.99-3.32l.027-.122c.084-.388.18-.827.02-1.258a.755.755 0 0 0-.62-.485 1.472 1.472 0 0 0-.72.103 1.27 1.27 0 0 0-.585.432c-.125.167-.228.37-.316.622-.032.098-.05.205-.075.306.066-.398.135-.8.178-1.205.22-.265.457-.507.708-.72.258-.215.544-.428.86-.531.208-.042.591-.071.811.212zm9.652-8.73c.037-.136.073-.288.056-.444a2.708 2.708 0 0 0-.09-.496c-.145-.524-.522-.993-1.062-1.321-.439-.268-.969-.444-1.576-.521-.543-.066-1.076-.067-1.619-.06-.579.006-1.16.029-1.602.049-1.873.086-3.858.236-6.235.472.007-.355.007-.676 0-.98a12.045 12.045 0 0 0-.054-.977l.15-.002-.17-.17-.11-2.597c-.057-1.8-.126-3.394-.21-4.873l-.002-.04c-.093-1.584-.189-3.222-.383-4.83l-.014-.095a3.677 3.677 0 0 0-.1-.526 5.079 5.079 0 0 0-.148-.377c-.027-.065-.055-.13-.08-.194-.115-.296-.254-.584-.387-.864l-.123-.258c-.424-.813-.805-1.48-1.286-2.09-.933-1.25-2.23-2.335-3.749-3.142-1.523-.816-3.159-1.354-4.558-1.773C38.254.555 35.18.207 31.352.264c-3.58.084-6.74.512-9.664 1.31l-.033.01.05.116-.012.004a.164.164 0 0 1 .011-.003l.05.115C24.656 1.024 27.8.6 31.357.518c3.796-.058 6.85.292 9.607 1.105 1.386.415 3.005.949 4.51 1.755 1.485.79 2.751 1.85 3.662 3.07.471.599.845 1.254 1.26 2.049l.121.255c.131.275.266.56.378.847.027.068.055.135.084.202.05.118.1.236.138.35.045.158.07.328.092.493l.012.086c.191 1.59.286 3.22.38 4.796l.002.053c.082 1.472.15 3.064.207 4.868l.096 2.48c-.25-.018-.499-.041-.748-.065l-.365-.034c-.06-.003-.123-.01-.185-.015a1.8 1.8 0 0 0-.457-.008l-2.825-.047c.37-.557.511-1.204.65-1.831.12-.584.22-1.2.305-1.88l.066-.526-.459.434c-.263.248-.524.495-.79.764-.099.127-.228.188-.41.267a1.531 1.531 0 0 1-.512.112.807.807 0 0 1-.775-.465 3.832 3.832 0 0 0-.333-.522 1.522 1.522 0 0 0-.235-.248.595.595 0 0 0-.408-.152.367.367 0 0 0-.27.16 1.219 1.219 0 0 1-.254.28.785.785 0 0 1-.43.188.842.842 0 0 1-.273-.033c-.086-.02-.176-.04-.262-.045a1.025 1.025 0 0 0-.696.143c-.19.118-.328.27-.477.444-.104.125-.272.18-.393.206-.296.057-.64.039-1.054-.058-.397-.223-.749-.351-1.11-.405a1.299 1.299 0 0 0-.663.06 1.214 1.214 0 0 0-.296.182c-.055.044-.116.082-.177.12l-.038.024c-.715.417-1.516.689-2.054.857-.323.095-.699.199-1.075.236a5.908 5.908 0 0 1-1.099.006 5.788 5.788 0 0 1-1.085-.19c-.077-.02-.153-.047-.23-.075a2.208 2.208 0 0 0-.319-.101 3.406 3.406 0 0 0-.462-.075c-.14-.346-.284-.713-.393-1.08l-.024-.091a.69.69 0 0 0 .125-.045c.197-.095.353-.217.504-.334l.276-.218c.277-.221.538-.43.83-.608.275-.194.64-.177 1.028-.157l.1.004c.32.023.65.065.968.105l.523.062c.367.042.747.086 1.156.032a.948.948 0 0 0 .196-.051.786.786 0 0 0 .192-.106c.087-.06.176-.115.265-.17.182-.112.368-.22.554-.322.42-.23.794-.412 1.15-.56.235-.094.415-.157.585-.201.113-.03.231-.054.351-.08.093-.02.187-.04.28-.062.413-.096.855-.211 1.284-.403.247-.112.44-.224.607-.352.222-.162.393-.416.474-.55.212-.33.531-.572.887-.843.147-.116.34-.272.512-.463.04-.045.077-.09.114-.134.1-.12.187-.223.296-.292.035-.023.075-.043.118-.064.053-.026.11-.055.164-.09.113-.068.204-.152.291-.234.174-.172.322-.36.445-.52.133-.18.252-.326.395-.456.175-.146.331-.244.49-.305.351-.138.772-.15 1.128-.033l.501.164-.238-.457c-.326-.626-.809-1.09-1.235-1.475-.607-.556-1.185-.83-1.766-.838-.674-.006-1.294.29-1.845.56-.238.117-.52.238-.81.263-.278.029-.548-.075-.798-.18a1.66 1.66 0 0 0-1.015-.142 1.763 1.763 0 0 0-.9.477c-.25.238-.412.559-.54.81a1.693 1.693 0 0 1-.573.604c-.245.157-.534.252-.81.336l-.094.03c-.119.037-.243.075-.37.139a1.154 1.154 0 0 0-.396.365c-.082.113-.15.23-.215.345a2.31 2.31 0 0 1-.278.417c-.078.089-.184.13-.328.178-.147.056-.296.11-.44.174-.697.3-1.21.703-1.525 1.2a2.492 2.492 0 0 0-.218.458 5.471 5.471 0 0 1-.589 1.199c-.34.53-.774.999-1.154 1.387-.228.234-.425.405-.647.482-.098.034-.194.037-.269-.007l-.086-.265a13.603 13.603 0 0 1-.483-1.758c-.132-.661-.132-1.244 0-1.731.024-.083.073-.161.13-.251l.07-.112c.08-.134.146-.287.204-.467.052-.176.1-.365.041-.567-.064-.25-.298-.388-.477-.43a1.448 1.448 0 0 0-.532-.026 1.04 1.04 0 0 0-.14.023.384.384 0 0 0-.194.125c-.07.083-.112.168-.149.25a3.061 3.061 0 0 0-.139.426l-.142-.268-.023-.032c-.8-.886-1.326-2.1-1.482-3.415l-.01-.09a6.585 6.585 0 0 0-.14-.902 3.53 3.53 0 0 0-.396-.953c-.21-.334-.462-.584-.746-.742a1.505 1.505 0 0 0-.508-.18 7.983 7.983 0 0 1-.46-.123 5.958 5.958 0 0 1-.885-.335c-.252-.125-.535-.284-.724-.522-.046-.054-.082-.128-.12-.206a3.118 3.118 0 0 0-.401-.619 2.952 2.952 0 0 0-.789-.674 2.334 2.334 0 0 0-1.405-.313l-.1.007a.892.892 0 0 1-.383-.09c-.425-.225-.768-.69-1.05-1.424l-.04-.103-.205.05-.023-.04c.206-.1.415-.193.627-.283l-.095-.231c-.884.358-1.757.782-2.596 1.26-1.539.92-2.804 2-3.76 3.215a13.97 13.97 0 0 0-1.364 2.09c-.222.433-.39.792-.528 1.13a6.332 6.332 0 0 0-.359 1.23c-.164.832-.238 1.674-.293 2.46a37.933 37.933 0 0 0-.08 2.453c-.01 2.958.14 6.02.457 9.365l.018.193a97.825 97.825 0 0 0-3-.836c-.989-.26-2.11-.553-3.218-.793l-.249-.054c-.45-.096-.918-.196-1.4-.257-.553-.061-1.139.023-1.743.249-.287.108-.55.24-.786.392-.273.177-.494.346-.693.6-.166.25-.216.562-.153.959.048.242.112.504.256.775l.042.152c.008.026.015.056.023.09.02.079.043.179.09.284.07.175.15.365.28.558.147.23.32.442.51.624.18.186.412.366.75.585.298.186.611.347.933.478a11.04 11.04 0 0 0 2.164.6c1.543.277 3.113.306 4.157.285a26.225 26.225 0 0 0 1.63-.098 9.95 9.95 0 0 0-.05.488c-.032.466-.048.92.122 1.369.162.32.202.707.123 1.179l-.027.17c-.064.382-.13.775-.073 1.162l.104 1.297c.005.1.013.204.02.307.015.208.03.42.031.624l-.017-.017a6.244 6.244 0 0 0-.85-.75 3.57 3.57 0 0 0-.726-.423c-.309-.12-.678-.224-1.078-.081a.93.93 0 0 0-.503.432 2.343 2.343 0 0 0-.22.574c-.078.356-.073.75.016 1.245.148.82.453 1.636.807 2.542.118.3.242.603.367.91.238.586.485 1.19.712 1.816.156.429.331.938.46 1.458.126.527.235 1.047.325 1.544.225 1.247.32 2.26.293 3.187l-.005.187a4.19 4.19 0 0 0 .013.65c.036.294.11.574.223.835.104.229.258.516.524.716a.648.648 0 0 0 .16.086l.046.339c.088.637.171 1.238.08 1.776a3.552 3.552 0 0 1-.12.52 2.236 2.236 0 0 1-.08.22l-.012.028a2.912 2.912 0 0 0-.134.353c-.136.414-.19.887-.165 1.445.017.312.046.617.074.92.053.58.103 1.127.078 1.693a14.42 14.42 0 0 1-.276 2.556c-.106.57-.27 1.14-.428 1.692-.078.27-.156.543-.229.82a11.675 11.675 0 0 0-.033 5.238c.255 1.195.62 2.378.974 3.522a84.033 84.033 0 0 1 .732 2.47c.375 1.348.763 2.742 1.626 3.899.206.273.445.519.676.757l.21.218c.298.312.521.666.661 1.052.108.294.173.609.236.914.022.112.046.223.07.335.093.405.213.819.37 1.265.67 1.869 1.597 3.363 2.758 4.442.771.695 1.566 1.103 2.37 1.213.851.074 1.683.28 2.473.614.69.283 1.387.66 2.262 1.219l1.083.723c.212.14.391.253.571.353.213.107.425.193.63.254.924.283 1.878.362 2.607.4.307.014.62.022.94.022.535 0 1.092-.021 1.683-.064a31.632 31.632 0 0 0 2.6-.301c.972-.158 1.802-.467 2.467-.917.64-.3 1.192-.795 1.692-1.286.5-.486.95-.894 1.44-.963.248-.055.483-.035.811.002.415.042.87-.016 1.32-.172.89-.305 1.527-.892 1.985-1.37.904-.967 1.573-2.016 2.22-3.032l.256-.403c.325-.515.705-1.112 1.103-1.672.197-.272.391-.535.597-.782.065-.083.134-.16.202-.238l.467-.538c.416-.501.89-1.108 1.245-1.803a6.764 6.764 0 0 0 .68-2.115c.091-.582.125-1.157.16-1.713l.023-.38c.037-.624.098-1.267.195-2.024.138-1.228.037-2.562-.318-4.197a44.606 44.606 0 0 0-.324-1.374 82.658 82.658 0 0 1-.154-.632 12.36 12.36 0 0 1-.203-.986c-.039-.285-.089-.638.007-.914.127-.351.09-.708.045-1.017a8.637 8.637 0 0 0-.213-.924l-.097-.338c-.135-.47-.274-.955-.352-1.437-.04-.263-.073-.571-.01-.855a.841.841 0 0 1 .168-.358c.093-.103.222-.244.284-.4.266-.62.224-1.272.182-1.912a21.16 21.16 0 0 0-.262-1.847c-.023-.144-.049-.287-.074-.43-.085-.466-.166-.907-.134-1.395-.05-.416-.133-.825-.214-1.22a30.477 30.477 0 0 1-.197-1.041.304.304 0 0 0 .158-.016.893.893 0 0 0 .321-.18c.585-.49.945-1.18 1.073-2.081-.223-2.61.318-5.346 1.656-8.373l.044-.108a38.16 38.16 0 0 0 .745-1.923c.251-.748.458-1.428.455-2.17-.002-.438-.134-.838-.37-1.124a.958.958 0 0 0-.55-.346c-.242-.062-.466.029-.63.096-.586.235-1.04.647-1.446 1.083.022-.323.026-.62.013-.9.014-.243.045-.494.076-.738.064-.516.13-1.05.047-1.586-.023-.202-.07-.396-.115-.584-.045-.188-.088-.367-.108-.551a9.355 9.355 0 0 1-.057-1.132v-.171c-.002-.307-.003-.625-.028-.944.43.03.891.059 1.442.086a20.93 20.93 0 0 0 1.65.054c1.024.02 2.107-.008 3.311-.088l.305-.027c.443-.04.901-.078 1.347-.15.515-.056 1.031-.17 1.53-.28l.964-.274.4-.161a2.49 2.49 0 0 0 .415-.195c.324-.173.574-.394.738-.652.123-.17.174-.381.197-.544.002-.21-.04-.371-.134-.488z" mask="url(#b)"/>
        </g>
    </g>
</svg>
