<svg xmlns="http://www.w3.org/2000/svg" width="14" height="18" viewBox="0 0 14 18">
    <path fill="none" fill-rule="evenodd" stroke="#636363" stroke-linecap="round" stroke-linejoin="round" stroke-width=".5" d="M13.643 7.081c-.035.28-.06.561-.105.838-.212 1.296-.678 2.481-1.57 3.466-.897.992-2.014 1.495-3.363 1.474a2.971 2.971 0 0 1-1.684-.544c-.218-.15-.44-.297-.66-.445-.028-.018-.06-.03-.104-.055-.055.272-.102.531-.16.788-.201.904-.411 1.805-.785 2.658-.334.762-.77 1.45-1.432 1.974a1.379 1.379 0 0 1-.073.054c-.01.008-.022.011-.056.027-.027-.275-.058-.54-.077-.806-.11-1.5.112-2.964.477-4.413.24-.947.487-1.893.729-2.84.042-.164.077-.33.109-.496a.236.236 0 0 0-.012-.137c-.383-.769-.391-1.565-.167-2.375.147-.533.39-1.013.838-1.364a1.443 1.443 0 0 1 1.91.145c.224.238.278.538.28.846.003.461-.116.903-.242 1.342-.2.697-.413 1.391-.59 2.093a2.56 2.56 0 0 0-.048.801c.038.523.362.875.87 1.014 1.004.276 1.803-.057 2.447-.827.573-.684.874-1.495 1.052-2.357.189-.913.205-1.827-.005-2.74-.3-1.308-1.141-2.116-2.38-2.517-1.26-.407-2.467-.192-3.611.427a4.758 4.758 0 0 0-1.846 1.743 4.172 4.172 0 0 0-.593 2.698c.04.36.172.68.356.984.1.167.2.337.278.515.205.477.07.92-.17 1.343-.012.021-.066.035-.094.028-1.035-.244-1.75-.855-2.021-1.89-.455-1.744-.21-3.388.85-4.867.796-1.11 1.868-1.866 3.162-2.305 1.196-.406 2.42-.445 3.657-.24 1.085.18 2.085.566 2.952 1.258 1.083.864 1.679 1.994 1.829 3.365.016.15.035.3.052.45v.887z"/>
</svg>
