<svg xmlns="http://www.w3.org/2000/svg" xmlns:xlink="http://www.w3.org/1999/xlink" width="29" height="25" viewBox="0 0 29 25">
    <defs>
        <path id="a" d="M0 .051h29.013V25H0z"/>
    </defs>
    <g fill="none" fill-rule="evenodd">
        <path fill="#696D70" d="M20.061 7.851c.277.065.053.297.073.513-.163-.03-.03-.362-.073-.513M22.628 8.364c.284-.043.107.485-.073.442 0-.174.127-.217.073-.442M23.875 8.952c.26.04.038.347-.146.368-.01-.182.116-.227.146-.368M20.28 18.859c.022-.112.099-.132.22-.294.107.04.38-.082.368.072.177-.058-.231-.302 0-.44.332.06.534.25.513.662-.37-.117-.405-.17-.513.218-.107-.037-.38.088-.367-.072-.152.019-.02.323-.147.366-.383.016-.383-.35-.514-.586.102-.206.366-.117.44.074"/>
        <g transform="translate(0 -.05)">
            <mask id="b" fill="#fff">
                <use xlink:href="#a"/>
            </mask>
            <path fill="#696D70" d="M3.11 21.331c.229-.326.643-.498.882-.735.08-.08.366-.204.145-.293-.017.081-.12.175-.145.072.02-.148.197-.14.218-.291-.413.003-.3.53-.587.66-.156-.15.02-.29.073-.44-.17-.048-.307-.132-.291-.368-.312-.066-.415.076-.515.221.117-.288-.317-.026-.293-.221.26-.117.62.027.952-.146-.176-.143-.588-.046-.88-.072-.835.314-1.513.785-1.686 1.76-.023.168.21.08.22.218-.171.21.084.46 0 .807.045.105.282.012.29.148-.363.1.137.465.297.515-.081.017-.177.119-.074.145 0-.038.058-.081.074 0-.086.012-.081.117-.074.22.149.043.268.3.515.366.089.027.203-.024.29 0 .026.01.11.144.149.148.467.074 1.082.033 1.246-.366-.131.01-.171-.073-.145-.22.152.224.518.049.512-.293.17.133.393-.151.44-.367-.055-.017-.143-.002-.146-.075.335.066.298-.24.367-.439-.088-.008-.173-.021-.147-.148.187.177.212-.215.22-.44-.086-.01-.208.012-.22-.073.296.033.123-.498 0-.512 0 .072-.127.09-.146 0 .006-.115.187-.06.146-.22-.104-.017-.125-.122-.22-.148-.453.598-.848 1.255-1.541 1.614-.155-.16-.453-.183-.44-.512.093-.151.116-.373.368-.369-.04-.273-.125-.183.146-.146zm1.834-1.91c.25.223.539-.26.22-.366.035.23-.197.194-.22.367zm3.302-5.354v1.906c.003.077.095.059.074-.07v-.369c.168-.495.084-1.237.22-1.76-.07-.88.232-1.773.147-2.423v.295c-.338.615-.307 1.6-.441 2.42zm17.318-3.965c-1.46-1.498-3.501-2.417-6.457-2.42-.047.39-.583.161-.733.147.227 1.557.759 2.81 1.1 4.256.097.073.222.121.294.221a.33.33 0 0 0 .072.219c-.03.09-.094.15-.22.147.05.335.252.906.367 1.32.088.322.027.55.22.294.07.414.204.173.44.369.175.14.26.22.367.365.155.209.085.199.148.367.127.345.144.74-.294 1.1-.04.107.085.382-.075.369-.01-.089.015-.21-.073-.22-.047.097-.157.134-.293.146.07.588.149 1.17.22 1.762-.126-.008-.227.012-.293.072a11.765 11.765 0 0 1-.22-1.613c-.274-.145-.6-.235-.955-.293-.096-.27-.351-.384-.366-.737-.302-.09-.137.031-.073-.146.026-.072-.088-.114-.075-.22.014-.096.147-.237.075-.366.016-.13.302-.216.293-.294 0-.003-.123-.011-.073-.074.074-.091.275-.077.294-.293-.132-.383-.174-.607-.294-1.1-.256-.014-.37-.17-.44-.37a.642.642 0 0 0 .293-.291c-.121-.075-.08-.31-.148-.44-.028-.528-.202-.811-.291-1.248-.048-.23-.026-.453-.074-.66-.092-.393-.292-.877-.368-1.175-.087-.345-.02-.71-.292-.954-.104.211.199.374 0 .44.002-.223-.158-.286-.221-.44.11-.085.327-.066.293-.296-.234.024-.581.08-.293.223-.141.017-.162-.084-.293-.072.012.28-.06.025-.22.072-.108.21-.502.181-.441.367-.001-.073-.13-.09-.147 0 .039 0 .084.059 0 .075-.271-.024-.36.37-.806.365-.016.098-.106.151-.15.22-.067.116-.035.207-.218.075-.07.213-.111.27-.147.367-.11.01-.27-.027-.294.072.12.125-.215.416-.44.44-.13.261.049.18.074.44-.045-.04-.35-.171-.367 0 .099.104-.141.12-.221.22-.052.07-.08.194-.146.294-.054.085-.182.194-.146.294-.022.128.345.228.146.293-.01-.135-.248-.046-.293-.145-.265.296-.346.777-.515 1.172.068.08.27.024.22.22-.098-.024-.14-.106-.294-.074-.047.393-.308.573-.291 1.028.006.188.286.105.29.294-.231.042-.226-.136-.365 0-.001.4-.223.995.075 1.248-.288-.034-.146.4-.148.44-.006.244-.09.692.148.881-.182.402.094.983.29 1.247.004-.096.206-.091.224 0-.1.023-.142.104-.295.072.188.448.222 1.053.735 1.175-.091.01-.174.023-.148.146.165.302.345.585.513.88.036-.13.079.034.149.075.029-.091.094-.15.218-.146-.022.15-.197.144-.218.292.26.006.282.354.366.442.023.023.12-.026.147 0 .022.021-.026.128 0 .145.064.052.163.024.22.073.116.1.158.34.292.221-.138-.006.046-.287.147-.294-.11.235-.11.599.22.588.225-.044.144-.395.367-.44.179.23-.132.465-.145.733.214.073.27.11.367.148.206.096.183-.389.292-.148-.038.11-.11.186-.145.294.796.462 1.775.96 3.007 1.101.283.032.439.063.587.073 1.58.1 2.707-.381 3.816-.733.354-.282.765-.506 1.174-.735.15-.215.325-.407.587-.512.166-.348.559-.468.66-.88.2.05.149-.149.294-.149a.993.993 0 0 1 .367-.587c.07-.137-.22-.244 0-.293.016.058.002.145.072.146.15-.42.579-.844.44-1.322.074 0 .089.063.149.077.059-.424.424-.878.22-1.325.19.026.19-.289.22-.438.045-.262-.042-.554.073-.733-.01-.138-.243-.052-.221-.22h.22c.045-.435-.126-.654-.072-1.101-.008-.14-.243-.052-.22-.222.109-.007.147-.019.147-.147 0-.26-.235-.718-.221-1.026-.11-.012-.27.026-.294-.074a.514.514 0 0 0 .22-.147 17.73 17.73 0 0 1-.438-.953c-.162-.367-.341-.905-.588-1.1-.157-.123-.05-.188-.074-.22-.022-.028-.117-.04-.146-.071-.036-.042-.042-.107-.074-.149-.218-.286-.298-.332-.441-.367.057-.018.086-.063.074-.149zM1.863 25c-.042-.178-.475.035-.44-.22.129 0 .427.197.512 0-.94-.482-1.746-1.146-1.907-2.277-.09-.614.055-1.148.147-1.465.039-.137.022-.332.073-.442.025-.049.174-.148.22-.22.209-.32.35-.627.587-.809.062-.044.156-.021.22-.072.126-.096.165-.207.293-.292.066-.044.165-.04.222-.075.52-.308 1.226-.337 2.053-.293.312.034.592.4.808.293.042-.11.492-.183.22-.364.017-.081.12-.177.147-.076.116-.005.056-.186.22-.144.23.008.075.165.147.44.39-.149.584-.495.808-.81-.233-.005-.58.248-.662.15.16-.235.536-.25.88-.295.357-.45.798-.817 1.029-1.393-.133-2.59.093-4.752.806-6.31.147-.325.397-.606.44-.956.319-.36.522-.784.808-1.172.288-.394.645-.733.954-1.103.154-.311.586-.342.66-.733-.062-.354-.148-.684-.365-.88-.038.085-.526-.038-.59.22-.241.003-.372.5-.66.22 0-.12.204-.042.22-.147-.163-.032-.232-.16-.365-.22.159.013.233-.063.22-.221.129-.044.304.215.368 0-.046-.127-.35.006-.368-.146.049-.056.436-.191.368.073.243.022-.222.348.144.293.024-.171.349-.045.295-.293-.128-.242-.61-.123-.735-.367-.097.106-.326.192-.44.074-.26-.008.156-.247-.072-.22-.05.098-.158.135-.294.146.206-.296-.507-.197-.441-.588.125-.144.085-.453.22-.587.562-.286 1.412-.117 2.203-.073.689.04 1.34.014 1.833.147.296.08.67.06.66.44-.104.386-.597.39-.954.514-.183.067-.348.17-.514.22-.186.056-.4.012-.512.147-.117.284.15.567.22.88.429-.046.732-.39 1.1-.587 1.187-.631 2.535-.902 3.963-1.245.036-.324-.095-.707-.073-.736.042-.063.227.051.219-.075 0 .01-.206-.018-.22-.074-.02-.072.077-.115.074-.218-.011-.284-.278-.565-.22-.881-.002-.12-.203-.04-.221-.144.199-.308-.152-.746.147-.88.165.03-.01.402.22.364.175-.218.434-.35.66-.512-.06-.235-.29-.296-.292-.589.159-.11.169-.365.44-.365.357-.017.382.3.733.293.046-.127.347.004.368-.147.15.042.509-.122.44.147-.32.21-.674.138-.881.44-.105.15.078.301-.147.368-.055.163.338.234.073.365-.316.095-.09-.35-.367-.292-.162.082-.165.323-.22.512-.434-.046-.322.462-.66.514.086-.194-.14-.433 0-.44.22-.219.49-.39.734-.587.144-.033.322-.323.074-.148-.166-.24-.104.104-.074.077-.022.019-.112-.038-.073-.077-.11.104-.246.169-.147.292-.287-.153-.55.26-.66.516.074.412.245.731.293 1.174-.064.151.373.146.147.218h-.147c.005-.11-.213-.05-.074 0 .137.145.269.026.44 0 .014.406.102.73.148 1.103.378.114.639-.47 1.028-.587.317-.93.61-1.886.733-3.008.274.925-.42 1.865-.367 2.567.304-.433.675-1.063.66-1.76-.005-.254-.116-.48-.146-.733-.134-.16-.355-.234-.514-.37.385-.095.66.35.734.664.217.94-.416 2.19-.954 2.492-.038.376-.228.698-.293 1.028-.017.082.099.41-.148.367-.021-.436.153-.68.22-1.027-.076-.14-.291.19-.367.293-.24.027-.324.213-.513.295.09.183.29.603 0 .732.333-.013.24.396.367.588.34-.043.149-.784.588-.514.036.232-.365.029-.295.295.433.123.146.322.295.66.134.178.402.14.146.367.8-.144 1.727-.14 2.642 0 .789.117 1.53.369 2.054.585.212.09.493.048.588.295.672.107.972.592 1.539.806.058.213.268.272.368.442.116-.181.169.31.44.22.063.32.384.428.587.662.054.055.023.153.075.22.018.024.123-.024.144 0 .027.024-.021.117 0 .143.143.194.355.368.442.516.093.162.146.26.22.364.04.058.113.159.147.223.23.42.443.902.587 1.32.028.08.059.184.073.221.035.104-.021.16 0 .218.01.034.122.088.146.146.038.094.059.239.075.296.045.16.11.346.147.514.04.184-.008.56 0 .585 0 .002.06.032.07.074.029.09-.007.121 0 .22.04.393.159.825.148 1.175-.016.585-.197 1.122-.292 1.69-.007.042.02.183 0 .291-.028.149-.034.31-.073.44-.006.018-.135.05-.148.073-.122.244.075.602-.22.587-.002.328-.19.712-.293.88-.08.132-.171.225-.22.297-.042.058-.042.166-.074.218-.105.18-.223.267-.293.366-.048.07-.032.162-.074.222-.147.2-.405.31-.44.585-.372.375-.827.81-1.174 1.101a8.37 8.37 0 0 1-1.101.808c-.234.14-.576.268-.734.364-.094.063-.27.21-.293.223-.18.085-.246.018-.367.073-.301.14-.653.151-.88.367-.184-.01-.23-.14-.294.073.303.136.57-.047.88.147-1.418.038-3.32.166-4.916.073-.16-.006-.58-.117-.733-.146-.055-.011-.084.073-.084.073-.344-.026-.65-.012-.944-.146.589-.047 1.369.098 1.834-.073-1.164-.214-2.07-.598-2.862-1.1-.27-.172-.503-.509-.88-.512-.034-.18-.161-.224-.221-.297-.054-.067-.08-.017-.146-.073-.136-.116-.242-.25-.367-.366-.156-.15-.352-.33-.44-.44-.034-.043-.121-.041-.147-.075-.081-.102.003-.124-.072-.22-.14-.172-.294-.349-.368-.514-.01-.024-.13-.044-.146-.072-.023-.033.016-.11 0-.147-.01-.024-.13-.046-.148-.072-.113-.18-.212-.506-.293-.588-.063-.066-.024-.055-.074-.148a8.944 8.944 0 0 1-1.028-3.448c-.027-.383-.003-.698 0-.954.003-.122-.077-.269-.071-.368.02-.502.216-1.107.292-1.468.039-.175.032-.36.074-.514.162-.592.61-1.135.514-1.757.184.181.23-.141.367-.223.083-.277.27-.49.44-.734.149-.216.302-.478.44-.586.067-.056.017-.084.073-.146.359-.409.808-.855 1.248-1.175.88-.644 1.9-1.215 3.082-1.542-.04-.793-.304-1.356-.44-2.053-.595.016-1.008.215-1.394.439-.381-.011-.694.175-1.028.295-.34.12-.706.213-1.027.364-.592.282-1.178.654-1.616 1.104-.35.079-.547.516-.733.66-.051.037-.174.027-.221.072-.04.042-.04.179-.071.22-.035.042-.107.1-.148.146-.425.483-.891 1.098-1.174 1.616-.177.323-.227.57-.294.734-.12.3-.238.623-.293.88-.161.76-.167 1.517-.22 2.349-.083 1.3-.268 2.6-.661 3.74-.86.537-1.472 1.319-2.054 2.13-.253-.058-.31.082-.441.146.279.535.586.925.662 1.54.18 1.5-.582 2.453-1.322 3.01-.106.078-.27.157-.367.22-.058.04-.314.058-.221.22.035-.122.555-.122.588 0-.288.005-.552.035-.734.146H1.863z" mask="url(#b)"/>
        </g>
        <path fill="#696D70" d="M16.465 8.66c.103.027.006.129-.073.146-.01.132.09.153.073.292.062.06.042.202.147.221-.019.285.157.38.22.588-.015.084-.075.041-.075 0-.085-.11-.09-.303-.219-.37.03-.15-.05-.194-.073-.292-.067-.13-.177-.214-.22-.365-.09.081-.152.064-.147-.075.131-.043.305-.037.367-.146M19.62 11.08c.119-.2.15-.485.148-.804.056-.138.078.043.072.144-.033.285-.054.58-.147.808.153.268-.02.402-.073.66-.128.303-.01-.107 0-.22.043-.52-.207-1.124-.293-1.468.056-.134.079.045.073.146.145.174.175.464.22.734M18.888 8.364c.209.426.266 1.004.439 1.47.02.13-.07.153-.073.074-.09-.547-.31-.963-.366-1.544M16.832 10.052c.238.279.306.722.514 1.028.02.13-.071.15-.073.074-.114-.4-.344-.684-.441-1.102M20.061 12.548c.051-.141.113.079 0 .074-.053.223.073.266.073.438-.063.014-.07-.027-.073-.072-.087.012-.062.134-.074.22-.24.155.174-.507-.074-.586.026-.115.13.062.148-.074M2.522 19.959c-.057.065-.078.167-.074.294-.089-.031-.149-.093-.146-.22-.084.11-.304.086-.293.292-.305-.12.207-.402.513-.366M2.009 20.545c-.295-.258-.355.19-.586.22.032.065.064.131.145.148-.108.11-.327.112-.292.368-.244-.227.355-.616.218-.736.016-.083.077-.038.074 0 .129-.094.419-.407.44 0"/>
    </g>
</svg>
