<svg xmlns="http://www.w3.org/2000/svg" xmlns:xlink="http://www.w3.org/1999/xlink" width="12" height="12" viewBox="0 0 12 12">
    <defs>
        <path id="a" d="M.279.832h5.105v2.933H.279z"/>
    </defs>
    <g fill="none" fill-rule="evenodd">
        <path fill="#767676" d="M.157 6.315c.07 1.535.126 3.069.154 4.604l-.154-.154c1.892-.076 3.783-.074 5.675-.095 1.891.02 3.783.026 5.674.103l-.146.146c.027-1.535.082-3.07.146-4.604.064 1.535.12 3.069.147 4.604l.002.14-.149.006c-1.89.078-3.783.082-5.674.103-1.892-.021-3.783-.018-5.675-.095L0 11.067l.002-.148c.028-1.535.085-3.07.155-4.604"/>
        <path fill="#767676" d="M5.832 9.117c-.195-1.457-.24-2.913-.25-4.369.009-1.456.054-2.912.25-4.368.196 1.456.24 2.912.25 4.368-.01 1.456-.055 2.912-.25 4.37"/>
        <g transform="translate(3 -.832)">
            <mask id="b" fill="#fff">
                <use xlink:href="#a"/>
            </mask>
            <path fill="#767676" d="M.279 3.765l2.376-2.73.177-.203.176.204 2.376 2.729-2.729-2.376h.353z" mask="url(#b)"/>
        </g>
    </g>
</svg>
