<svg xmlns="http://www.w3.org/2000/svg" xmlns:xlink="http://www.w3.org/1999/xlink" width="27" height="27" viewBox="0 0 27 27">
    <defs>
        <path id="a" d="M0 .72h26.682v2.56H0z"/>
    </defs>
    <g fill="none" fill-rule="evenodd">
        <g transform="translate(0 -.72)">
            <mask id="b" fill="#fff">
                <use xlink:href="#a"/>
            </mask>
            <path fill="#767676" d="M26.573 3.061L26.502.982l.089.088-6.613.118c-2.205.047-4.41.051-6.613.054-4.41.01-8.818-.05-13.226-.123L.275.982.253 3.079l-.114-.114c2.197.033 4.402.048 6.594.016 2.193-.035 4.364-.098 6.55-.1 2.178-.02 4.389.029 6.589.042l6.7.138zm.035.036l-6.525.137c-2.208.014-4.406.062-6.636.042-2.223-.002-4.461-.065-6.677-.1a228.98 228.98 0 0 0-6.631.017l-.113.002-.002-.116L.002.982 0 .847.139.845A686.02 686.02 0 0 1 13.365.721c2.204.003 4.408.007 6.613.054l6.613.119.09.001-.002.087-.071 2.115z" mask="url(#b)"/>
        </g>
        <path fill="#767676" d="M.156 23.939l.07 2.08-.088-.09 6.613-.117c2.205-.047 4.409-.052 6.613-.055 4.409-.01 8.818.05 13.226.123l-.136.139.022-2.098.114.114a219.649 219.649 0 0 0-6.594-.017c-2.193.035-4.364.098-6.55.1-2.178.02-4.39-.028-6.59-.041l-6.7-.139zm-.035-.035l6.525-.139c2.208-.012 4.406-.062 6.636-.041 2.223.002 4.46.064 6.677.1 2.216.031 4.42.015 6.63-.018h.114l.002.114.022 2.098.002.134-.14.002a686.02 686.02 0 0 1-13.225.125 331.404 331.404 0 0 1-6.613-.055l-6.613-.119H.047l.003-.087.07-2.114z"/>
        <path fill="#767676" d="M2.205 2.358c.207 3.594.22 7.187.25 10.781-.029 3.594-.042 7.188-.25 10.781-.208-3.593-.22-7.187-.25-10.78.03-3.595.043-7.188.25-10.782M9.645 2.358c.207 3.594.22 7.187.25 10.781-.03 3.594-.042 7.188-.25 10.781-.208-3.593-.221-7.187-.25-10.78.03-3.595.043-7.188.25-10.782M17.084 2.358c.207 3.594.22 7.187.25 10.781-.03 3.594-.042 7.188-.25 10.781-.208-3.593-.221-7.187-.25-10.78.03-3.595.043-7.188.25-10.782M24.523 2.358c.207 3.594.22 7.187.25 10.781-.029 3.594-.042 7.188-.25 10.781-.208-3.593-.22-7.187-.25-10.78.03-3.595.043-7.188.25-10.782"/>
        <path fill="#767676" d="M9.645 15.492c1.24-.194 2.48-.24 3.72-.25 1.239.009 2.479.054 3.719.25-1.24.196-2.48.24-3.72.25-1.24-.01-2.48-.055-3.72-.25M8.09 14.115c-.195-.325-.24-.65-.25-.975.009-.325.054-.65.25-.975.196.325.241.65.25.975-.01.325-.055.65-.25.975M18.639 12.165c.195.325.24.65.25.975-.01.325-.054.65-.25.975-.196-.325-.241-.65-.25-.975.01-.325.055-.65.25-.975M9.645 18.278c1.24-.195 2.48-.24 3.72-.25 1.239.009 2.479.054 3.719.25-1.24.196-2.48.24-3.72.25-1.24-.01-2.48-.056-3.72-.25M9.645 21.064c1.24-.195 2.48-.24 3.72-.25 1.239.009 2.479.053 3.719.25-1.24.195-2.48.24-3.72.25-1.24-.01-2.48-.055-3.72-.25"/>
    </g>
</svg>
